<?xml version="1.0" encoding="utf-8"?>
<!-- Generator: Adobe Illustrator 23.0.2, SVG Export Plug-In . SVG Version: 6.00 Build 0)  -->
<svg version="1.1" id="レイヤー_1" xmlns="http://www.w3.org/2000/svg" xmlns:xlink="http://www.w3.org/1999/xlink" x="0px"
	 y="0px" viewBox="0 0 878.2 786.2" style="enable-background:new 0 0 878.2 786.2;" xml:space="preserve">
<style type="text/css">
	.st0{fill:none;stroke:url(#SVGID_1_);stroke-width:8;stroke-linecap:round;stroke-linejoin:round;stroke-miterlimit:10;}
	.st1{fill:#FFFFFF;stroke:url(#SVGID_2_);stroke-width:8;stroke-miterlimit:10;}
	.st2{fill:url(#SVGID_3_);}
	.st3{fill:none;stroke:url(#SVGID_4_);stroke-width:8;stroke-linecap:round;stroke-linejoin:round;stroke-miterlimit:10;}
	.st4{fill:none;stroke:url(#SVGID_5_);stroke-width:8;stroke-linecap:round;stroke-linejoin:round;stroke-miterlimit:10;}
	.st5{fill:none;stroke:url(#SVGID_6_);stroke-width:8;stroke-linecap:round;stroke-linejoin:round;stroke-miterlimit:10;}
	.st6{fill:#FFFFFF;stroke:url(#SVGID_7_);stroke-width:8;stroke-linecap:round;stroke-linejoin:round;stroke-miterlimit:10;}
	.st7{fill:none;stroke:#003D51;stroke-width:4;stroke-linecap:round;stroke-linejoin:round;stroke-miterlimit:10;}
	.st8{fill:#C7B5CF;stroke:#003D51;stroke-width:4;stroke-linecap:round;stroke-linejoin:round;stroke-miterlimit:10;}
	.st9{fill:none;}
	.st10{fill:#DAE47B;stroke:#003D51;stroke-width:4;stroke-linecap:round;stroke-linejoin:round;stroke-miterlimit:10;}
	.st11{fill:#F7F7F7;stroke:#003D51;stroke-width:4;stroke-linecap:round;stroke-linejoin:round;stroke-miterlimit:10;}
	.st12{fill:#F2F2F2;stroke:#003D51;stroke-width:4;stroke-linecap:round;stroke-linejoin:round;stroke-miterlimit:10;}
	.st13{fill:#C28194;stroke:#003D51;stroke-width:4;stroke-linecap:round;stroke-linejoin:round;stroke-miterlimit:10;}
	.st14{fill:#A0B57D;stroke:#003D51;stroke-width:4;stroke-linecap:round;stroke-linejoin:round;stroke-miterlimit:10;}
	.st15{fill:none;stroke:url(#SVGID_8_);stroke-width:8;stroke-linecap:round;stroke-linejoin:round;stroke-miterlimit:10;}
	.st16{fill:#FFFFFF;stroke:url(#SVGID_9_);stroke-width:8;stroke-linecap:round;stroke-linejoin:round;stroke-miterlimit:10;}
	.st17{fill:#D2D2D3;stroke:#003D51;stroke-width:4;stroke-linecap:round;stroke-linejoin:round;stroke-miterlimit:10;}
	.st18{fill:#FDDA57;stroke:#003D51;stroke-width:4;stroke-linecap:round;stroke-linejoin:round;stroke-miterlimit:10;}
	.st19{fill:#B193B3;stroke:#003D51;stroke-width:4;stroke-linecap:round;stroke-linejoin:round;stroke-miterlimit:10;}
	.st20{fill:#80BEA5;stroke:#003D51;stroke-width:4;stroke-linecap:round;stroke-linejoin:round;stroke-miterlimit:10;}
	.st21{fill:#79C1DE;stroke:#003D51;stroke-width:4;stroke-linecap:round;stroke-linejoin:round;stroke-miterlimit:10;}
	.st22{fill:#FFFFFF;stroke:url(#SVGID_10_);stroke-width:14;stroke-linecap:round;stroke-linejoin:round;stroke-miterlimit:10;}
	.st23{fill:#29A4CF;}
	.st24{fill:#003D51;}
	.st25{fill:#30BCEF;}
	.st26{fill:#D8D8D9;}
	.st27{fill:#BED400;}
	.st28{fill:#9CC2D6;}
	.st29{fill:#02647F;}
	.st30{fill:#107593;}
	.st31{fill:#D5EDFA;}
	.st32{fill:#E5F4FC;}
	.st33{fill:#FFFFFF;}
	.st34{fill:#B5E0F8;}
	.st35{fill:#EDF4E2;}
	.st36{fill:#FFFFFF;stroke:url(#SVGID_11_);stroke-width:8;stroke-linecap:round;stroke-linejoin:round;stroke-miterlimit:10;}
	.st37{fill:#E9D087;stroke:#003D51;stroke-width:4;stroke-linecap:round;stroke-linejoin:round;stroke-miterlimit:10;}
	.st38{fill:#D55A90;stroke:#003D51;stroke-width:4;stroke-linecap:round;stroke-linejoin:round;stroke-miterlimit:10;}
	.st39{fill:#FFFFFF;stroke:url(#SVGID_12_);stroke-width:8;stroke-linecap:round;stroke-linejoin:round;stroke-miterlimit:10;}
	.st40{fill:#CECECF;stroke:#003D51;stroke-width:4;stroke-linecap:round;stroke-linejoin:round;stroke-miterlimit:10;}
	.st41{fill:#E4F2EC;stroke:#003D51;stroke-width:4;stroke-linecap:round;stroke-linejoin:round;stroke-miterlimit:10;}
	.st42{fill:#FFFFFF;stroke:#003D51;stroke-width:4;stroke-linecap:round;stroke-linejoin:round;stroke-miterlimit:10;}
	.st43{fill:#77BD56;stroke:#003D51;stroke-width:4;stroke-linecap:round;stroke-linejoin:round;stroke-miterlimit:10;}
	.st44{fill:#F5AD58;stroke:#003D51;stroke-width:4;stroke-linecap:round;stroke-linejoin:round;stroke-miterlimit:10;}
	.st45{fill:#75CAEE;stroke:#003D51;stroke-width:4;stroke-linecap:round;stroke-linejoin:round;stroke-miterlimit:10;}
	.st46{fill:#888888;stroke:#003D51;stroke-width:4;stroke-linecap:round;stroke-linejoin:round;stroke-miterlimit:10;}
	.st47{fill:#FFFFFF;stroke:url(#SVGID_13_);stroke-width:8;stroke-linecap:round;stroke-linejoin:round;stroke-miterlimit:10;}
	.st48{fill:#DCF0FB;stroke:#003D51;stroke-width:4;stroke-linecap:round;stroke-linejoin:round;stroke-miterlimit:10;}
	.st49{fill:#B6C0E2;stroke:#003D51;stroke-width:4;stroke-linecap:round;stroke-linejoin:round;stroke-miterlimit:10;}
	.st50{fill:#ACD7BD;stroke:#003D51;stroke-width:4;stroke-linecap:round;stroke-linejoin:round;stroke-miterlimit:10;}
	.st51{fill:#E55576;}
	.st52{fill:#F6C373;}
	.st53{fill:#93D3E8;}
	.st54{fill:#84C257;}
	.st55{fill:#FFFFFF;stroke:url(#SVGID_14_);stroke-width:8;stroke-miterlimit:10;}
	.st56{fill:url(#SVGID_15_);}
	.st57{fill:#FFFFFF;stroke:url(#SVGID_16_);stroke-width:8;stroke-miterlimit:10;}
	.st58{fill:url(#SVGID_17_);}
	.st59{fill:#FFFFFF;stroke:url(#SVGID_18_);stroke-width:8;stroke-miterlimit:10;}
	.st60{fill:url(#SVGID_19_);}
	.st61{fill:#FFFFFF;stroke:url(#SVGID_20_);stroke-width:8;stroke-miterlimit:10;}
	.st62{fill:url(#SVGID_21_);}
</style>
<g>
	
		<linearGradient id="SVGID_1_" gradientUnits="userSpaceOnUse" x1="102.4" y1="362.1" x2="367.1" y2="362.1" gradientTransform="matrix(1 0 0 -1 0 788.5499)">
		<stop  offset="0" style="stop-color:#71C6D4"/>
		<stop  offset="1" style="stop-color:#499DD7"/>
	</linearGradient>
	<path class="st0" d="M363.1,475.4H148.9c-23.5,0-42.5-19-42.5-42.5v-55.4"/>
	<g>
		
			<linearGradient id="SVGID_2_" gradientUnits="userSpaceOnUse" x1="163.4367" y1="313.35" x2="209.4367" y2="313.35" gradientTransform="matrix(1 0 0 -1 0 788.5499)">
			<stop  offset="0" style="stop-color:#71C6D4"/>
			<stop  offset="1" style="stop-color:#499DD7"/>
		</linearGradient>
		<circle class="st1" cx="186.5" cy="475.2" r="19"/>
		
			<linearGradient id="SVGID_3_" gradientUnits="userSpaceOnUse" x1="177.602" y1="313.35" x2="195.3" y2="313.35" gradientTransform="matrix(1 0 0 -1 0 788.5499)">
			<stop  offset="0" style="stop-color:#71C6D4"/>
			<stop  offset="1" style="stop-color:#499DD7"/>
		</linearGradient>
		<circle class="st2" cx="186.5" cy="475.2" r="8.8"/>
	</g>
	
		<linearGradient id="SVGID_4_" gradientUnits="userSpaceOnUse" x1="2576.4268" y1="402.9" x2="2841.127" y2="402.9" gradientTransform="matrix(-1 0 0 -1 3352.2268 788.5499)">
		<stop  offset="0" style="stop-color:#71C6D4"/>
		<stop  offset="1" style="stop-color:#499DD7"/>
	</linearGradient>
	<path class="st3" d="M515.1,434.6h214.2c23.5,0,42.5-19,42.5-42.5v-55.4"/>
	
		<linearGradient id="SVGID_5_" gradientUnits="userSpaceOnUse" x1="1614.9353" y1="-432.1097" x2="1879.6353" y2="-432.1097" gradientTransform="matrix(0 1 1 0 797.1597 -1512.5353)">
		<stop  offset="0" style="stop-color:#71C6D4"/>
		<stop  offset="1" style="stop-color:#499DD7"/>
	</linearGradient>
	<path class="st4" d="M316.1,363.1V148.9c0-23.5,19-42.5,42.5-42.5H414"/>
	
		<linearGradient id="SVGID_6_" gradientUnits="userSpaceOnUse" x1="2204.9082" y1="679.1256" x2="2469.6082" y2="679.1256" gradientTransform="matrix(-1 0 0 1 2903.6082 -130.0757)">
		<stop  offset="0" style="stop-color:#71C6D4"/>
		<stop  offset="1" style="stop-color:#499DD7"/>
	</linearGradient>
	<path class="st5" d="M438,500.1h214.2c23.5,0,42.5,19,42.5,42.5V598"/>
	<g>
		
			<linearGradient id="SVGID_7_" gradientUnits="userSpaceOnUse" x1="589.5" y1="108.85" x2="802.5" y2="108.85" gradientTransform="matrix(1 0 0 -1 0 788.5499)">
			<stop  offset="0" style="stop-color:#71C6D4"/>
			<stop  offset="1" style="stop-color:#499DD7"/>
		</linearGradient>
		<circle class="st6" cx="696" cy="679.7" r="102.5"/>
		<g>
			<g>
				<line class="st7" x1="738.9" y1="621.4" x2="646.7" y2="673.7"/>
				<rect x="733.7" y="616.1" class="st8" width="10.6" height="10.6"/>
				<rect x="641.5" y="667" class="st8" width="10.6" height="10.6"/>
			</g>
			<g>
				<g>
					<path class="st9" d="M731.8,631.9"/>
					<path class="st7" d="M731.8,631.9c16.1,0,24.6,6.2,32.6,12.7"/>
				</g>
				<g>
					<path class="st9" d="M663.4,659.9"/>
					<path class="st7" d="M627.7,644.6c9.1,7.4,17.6,15.3,35.8,15.3"/>
				</g>
				<g>
					<path class="st9" d="M663.4,659.9c34.2,0,34.2-28,68.4-28"/>
					<path class="st7" d="M663.4,659.9c34.2,0,34.2-28,68.4-28"/>
				</g>
			</g>
			<path class="st10" d="M696,652.2l-18.9,22.3c-1.9,2.3-2.8,5.3-2.4,8.2l3.3,24.8h36l3.3-24.8c0.4-3-0.5-5.9-2.4-8.2L696,652.2z"/>
			<line class="st7" x1="696" y1="652.2" x2="696" y2="680.8"/>
			<circle class="st11" cx="696" cy="686.7" r="6.3"/>
			<circle class="st12" cx="696" cy="645.9" r="6.3"/>
			<circle class="st12" cx="627.7" cy="644.6" r="6.3"/>
			<circle class="st12" cx="764.4" cy="644.6" r="6.3"/>
			<path class="st13" d="M713.6,715.3h-35.1c-2.1,0-3.9-1.7-3.9-3.9l0,0c0-2.1,1.7-3.9,3.9-3.9h35.1c2.1,0,3.9,1.7,3.9,3.9l0,0
				C717.5,713.6,715.7,715.3,713.6,715.3z"/>
			<polygon class="st14" points="682.3,750.1 678.3,715.3 713.8,715.3 709.8,750.1 			"/>
		</g>
	</g>
	
		<linearGradient id="SVGID_8_" gradientUnits="userSpaceOnUse" x1="1083.751" y1="1294.6732" x2="1348.451" y2="1294.6732" gradientTransform="matrix(0 -1 -1 0 1606.5732 1757.551)">
		<stop  offset="0" style="stop-color:#71C6D4"/>
		<stop  offset="1" style="stop-color:#499DD7"/>
	</linearGradient>
	<path class="st15" d="M360.8,413.1v214.2c0,23.5-19,42.5-42.5,42.5H263"/>
	<g>
		
			<linearGradient id="SVGID_9_" gradientUnits="userSpaceOnUse" x1="0" y1="510.15" x2="213" y2="510.15" gradientTransform="matrix(1 0 0 -1 0 788.5499)">
			<stop  offset="0" style="stop-color:#71C6D4"/>
			<stop  offset="1" style="stop-color:#499DD7"/>
		</linearGradient>
		<circle class="st16" cx="106.5" cy="278.4" r="102.5"/>
		<g>
			<polygon class="st11" points="154.8,342 58.2,342 58.2,214.8 129.8,214.8 154.8,239.8 			"/>
			<polygon class="st17" points="129.8,214.8 129.8,239.8 154.8,239.8 			"/>
			<circle class="st18" cx="106.5" cy="262.7" r="25.2"/>
			<rect x="101.1" y="303" class="st19" width="44.2" height="8.4"/>
			<rect x="101.1" y="318.5" class="st19" width="44.2" height="8.4"/>
			<rect x="67.9" y="302.8" class="st20" width="24.1" height="24.1"/>
			<polygon class="st21" points="98,258.6 89.1,274.1 107,274.1 			"/>
			<polygon class="st21" points="110.6,252.3 98,274.1 123.2,274.1 			"/>
		</g>
	</g>
	
		<linearGradient id="SVGID_10_" gradientUnits="userSpaceOnUse" x1="267.2" y1="389.65" x2="573.2" y2="389.65" gradientTransform="matrix(1 0 0 -1 0 788.5499)">
		<stop  offset="0" style="stop-color:#71C6D4"/>
		<stop  offset="1" style="stop-color:#499DD7"/>
	</linearGradient>
	<circle class="st22" cx="420.2" cy="398.9" r="146"/>
	<g>
		<g>
			<path class="st23" d="M514.4,353.3c-3.8-3.2-9.1-6.5-13.6-5c-3.7,1.2-4.5,4.8-8,8.4c-3.1,3.2-8.4,6.7-18.3,7.7
				c2.1,0.5,5.4,1.1,9.5,0.8c2.1-0.2,6.3-0.6,10.5-3.2c5.1-3.1,5-6.2,9.2-8.2C505.8,352.8,509.2,352,514.4,353.3z"/>
			<path class="st24" d="M481.3,367.4c-2.5,0-5-0.3-7.5-1c-1-0.3-1.6-1.2-1.6-2.2c0.1-1,0.9-1.8,1.9-1.9c7.5-0.8,13.2-3.2,17-7.1
				c1.2-1.2,2.1-2.5,2.9-3.6c1.6-2.2,3-4.3,6-5.3c4.3-1.4,9.6,0.4,15.6,5.4c0.8,0.6,1,1.7,0.5,2.6c-0.4,0.9-1.4,1.3-2.4,1.1
				c-3.7-1-6.9-0.8-9.4,0.4c-1.7,0.8-2.5,1.8-3.6,3.1c-1.2,1.4-2.6,3.2-5.5,5c-4.7,2.9-9.4,3.3-11.4,3.5
				C483.1,367.4,482.2,367.4,481.3,367.4z M503.1,350c-0.6,0-1.2,0.1-1.7,0.3c-1.6,0.5-2.4,1.6-3.9,3.7c-0.9,1.3-1.9,2.7-3.3,4.1
				c-1.4,1.5-3,2.7-4.8,3.8c1.2-0.4,2.6-1,3.9-1.8c2.3-1.4,3.3-2.7,4.4-4c1.2-1.5,2.5-3,5-4.2c1.2-0.6,2.4-0.9,3.8-1.2
				C505.2,350.3,504.1,350,503.1,350z"/>
		</g>
		<g>
			<path class="st25" d="M519.3,330.5c-6.8-4.1-15.1-7.8-20.4-4.5c-4.7,2.9-3.7,9.4-7.3,17.6c-2.7,6-8,13.4-19.8,19.9
				c3.1-0.4,7.7-1.4,12.8-4.1c3.1-1.7,9.1-5.5,13.6-12.5s3.3-10.6,7.4-13.9S515.4,329.9,519.3,330.5z"/>
			<path class="st24" d="M471.8,365.6c-0.9,0-1.7-0.6-2-1.4c-0.3-1,0.1-2,1-2.5c9.2-5.1,15.6-11.5,18.9-19c1.4-3.1,2-5.9,2.7-8.4
				c1-4.2,1.9-7.9,5.5-10.1c5-3.1,12.4-1.7,22.6,4.5c0.9,0.5,1.2,1.6,0.9,2.5s-1.3,1.5-2.3,1.4c-5.3-0.8-9.4-0.1-12.1,2.1
				c-1.8,1.4-2.2,2.8-3.1,5.2c-0.7,2.1-1.7,4.8-3.9,8.2c-4.5,6.9-10.2,11-14.3,13.2c-4.2,2.3-8.7,3.7-13.5,4.3
				C472,365.6,471.9,365.6,471.8,365.6z M503.8,326.8c-1.5,0-2.7,0.3-3.7,0.9c-2,1.3-2.6,3.5-3.6,7.6c-0.6,2.7-1.4,5.7-2.9,9.1
				c-2.1,4.7-5.2,9-9.4,12.9c3.6-2,8.5-5.6,12.3-11.5c1.9-3,2.7-5.3,3.5-7.3c0.9-2.6,1.7-4.9,4.4-7.1c1.8-1.5,4-2.5,6.6-3
				C508.1,327.4,505.7,326.8,503.8,326.8z"/>
		</g>
		<g>
			
				<rect x="385.7" y="453.4" transform="matrix(0.7102 -0.704 0.704 0.7102 -198.2384 440.9966)" class="st26" width="101.6" height="15.8"/>
			<path class="st24" d="M406.1,502.1c-2.5,0-5.1-1-7-2.9l-1.8-1.8c-0.2-0.2-0.4-0.4-0.5-0.7c-2.4-4.4-1.6-9.2,1.5-12.2l61.8-61.3
				c1.8-1.8,4.3-2.8,6.9-2.8h3c0.7,0,1.3,0.3,1.8,0.8l7.6,7.5c1.6,3.2-0.8,5.6-4.7,9.4L413,499.3C411,501.2,408.6,502.1,406.1,502.1
				z M467,425.4c-1.3,0-2.4,0.5-3.3,1.4l-61.8,61.3c-1.5,1.5-1.9,3.9-0.6,6.1l1.5,1.5c1.8,1.9,4.8,1.9,6.7,0l61.8-61.3
				c1.9-1.8,4.1-4.1,4.1-4.1l-6.4-4.9H467z"/>
		</g>
		<g>
			<path class="st27" d="M502.1,407.4l-17.1,17c-3.1,3.1-8.1,3.1-11.2,0l0,0c-3.1-3.1-3.1-8.1,0-11.2l17.1-17
				c3.1-3.1,8.1-3.1,11.2,0l0,0C505.2,399.3,505.2,404.3,502.1,407.4z"/>
			<path class="st24" d="M479.4,429.2c-2.7,0-5.4-1-7.4-3.1c-4.1-4.1-4-10.7,0.1-14.8l17.1-17c4.1-4.1,10.7-4,14.8,0.1
				c4.1,4.1,4,10.7-0.1,14.8l0,0l-17.1,17C484.7,428.2,482.1,429.2,479.4,429.2z M496.5,396.4c-1.4,0-2.7,0.5-3.8,1.6l-17.1,17
				c-2.1,2.1-2.1,5.5,0,7.6s5.5,2.1,7.6,0l17.1-17l0,0c2.1-2.1,2.1-5.5,0-7.6C499.3,396.9,497.9,396.4,496.5,396.4z"/>
		</g>
		<g>
			<path class="st28" d="M481.2,434l-17-17.2c-1.8-1.8-1.8-4.8,0-6.6l0,0c1.8-1.8,4.8-1.8,6.6,0l17,17.2c1.8,1.8,1.8,4.8,0,6.6l0,0
				C486,435.8,483,435.8,481.2,434z"/>
			<path class="st24" d="M484.5,437.9c-1.9,0-3.7-0.7-5.1-2.1l-17-17.2c-2.8-2.8-2.8-7.4,0-10.2c2.8-2.8,7.4-2.8,10.2,0l17,17.2
				c1.4,1.4,2.1,3.2,2.1,5.1s-0.8,3.7-2.1,5.1C488.2,437.2,486.4,437.9,484.5,437.9z M467.5,411.4c-0.5,0-1.1,0.2-1.5,0.6
				c-0.8,0.8-0.8,2.2,0,3l17,17.2c0.4,0.4,0.9,0.6,1.5,0.6s1.1-0.2,1.5-0.6s0.6-0.9,0.6-1.5s-0.2-1.1-0.6-1.5L469,412
				C468.6,411.6,468,411.4,467.5,411.4z"/>
		</g>
		<g>
			<circle class="st29" cx="374.3" cy="493.3" r="10.7"/>
			<path class="st30" d="M383.1,487.3c1.7,2.5,2.2,5.4,1.6,8.1c-0.3,0.3-0.6,0.5-1,0.7c-4.9,3.3-11.5,2-14.8-2.9
				c-1.7-2.5-2.2-5.4-1.6-8.1c0.3-0.3,0.6-0.5,1-0.7C373.2,481.1,379.8,482.4,383.1,487.3z"/>
			<path class="st24" d="M363.3,500.7L363.3,500.7c-4.1-6-2.5-14.2,3.6-18.3c6-4.1,14.2-2.5,18.3,3.6c4.1,6,2.5,14.2-3.6,18.3
				c-2.2,1.5-4.8,2.2-7.3,2.3C370.1,506.5,365.9,504.5,363.3,500.7z M369.7,486.5c-3.7,2.5-4.7,7.6-2.2,11.3l0,0
				c2.5,3.7,7.6,4.7,11.3,2.2c3.7-2.5,4.7-7.6,2.2-11.3c-1.6-2.3-4.2-3.6-6.8-3.6C372.7,485.1,371.1,485.6,369.7,486.5z"/>
			<circle class="st29" cx="454.4" cy="493.2" r="10.7"/>
			<path class="st30" d="M445.5,487.2c-1.7,2.5-2.1,5.4-1.6,8.1c0.3,0.3,0.6,0.5,1,0.7c4.9,3.3,11.5,2,14.8-2.9
				c1.7-2.5,2.1-5.4,1.6-8.1c-0.3-0.3-0.6-0.5-1-0.7C455.4,481,448.8,482.3,445.5,487.2z"/>
			<path class="st24" d="M454.4,506.3c-2.5,0-5.1-0.7-7.3-2.2c-6-4-7.7-12.3-3.6-18.3c4-6,12.3-7.7,18.3-3.6c6,4,7.7,12.3,3.6,18.3
				l0,0C462.8,504.3,458.6,506.3,454.4,506.3z M454.4,485c-2.6,0-5.2,1.3-6.8,3.6c-2.5,3.7-1.5,8.8,2.2,11.3s8.8,1.5,11.3-2.2l0,0
				c2.5-3.7,1.5-8.8-2.2-11.3C457.5,485.4,455.9,485,454.4,485z"/>
		</g>
		<g>
			<path class="st25" d="M419.7,501.4H409c-25.1,0-45.5-20.3-45.5-45.4l0,0c0-25.1,20.3-45.5,45.4-45.5h10.7
				c25.1,0,45.5,20.3,45.5,45.4l0,0C465.1,481,444.8,501.4,419.7,501.4z"/>
			<path class="st24" d="M419.7,503.9H409c-26.4,0-48-21.4-48-47.8s21.4-48,47.8-48h10.7c26.4,0,48,21.4,48,47.8
				S446.1,503.9,419.7,503.9z M408.8,413c-23.7,0-43,19.4-42.9,43.1c0,23.7,19.4,43,43.1,42.9h10.7c23.7,0,43-19.4,42.9-43.1
				c0-23.7-19.4-43-43.1-42.9H408.8z"/>
		</g>
		<path class="st23" d="M408.7,409.6c-13.6,0-25.9,5.9-34.4,15.3c11.9,22.2,35.2,37.2,62.1,37.2c10.6,0,20.6-2.4,29.6-6.6
			c-0.3-25.4-21-45.9-46.5-45.9H408.7z"/>
		<circle class="st29" cx="466.1" cy="445.1" r="10.7"/>
		<path class="st30" d="M455.4,445.2c0,0.2,0,0.5,0,0.7c1.7,1.1,3.7,1.8,5.9,1.8c5.9,0,10.7-4.8,10.7-10.7c0-0.2,0-0.5,0-0.7
			c-1.7-1.1-3.7-1.8-5.9-1.8C460.2,434.5,455.4,439.3,455.4,445.2z"/>
		<circle class="st30" cx="362.3" cy="445.3" r="10.7"/>
		<path class="st29" d="M355.6,450c0,1.5,0.3,2.9,0.9,4.2c1.7,1.1,3.7,1.8,5.9,1.8c5.9,0,10.7-4.8,10.7-10.7c0-1.5-0.3-2.9-0.9-4.2
			c-1.7-1.1-3.7-1.8-5.9-1.8C360.4,439.4,355.6,444.1,355.6,450z"/>
		<path class="st24" d="M466.1,458.3c-7.3,0-13.2-5.9-13.2-13.2c0-7.3,5.9-13.2,13.2-13.2s13.2,5.9,13.2,13.2
			C479.3,452.4,473.4,458.3,466.1,458.3z M466.1,437c-4.5,0-8.2,3.7-8.2,8.2s3.7,8.2,8.2,8.2s8.2-3.7,8.2-8.2
			C474.3,440.6,470.6,437,466.1,437z"/>
		<path class="st24" d="M362.4,458.5c-7.3,0-13.2-5.9-13.2-13.2c0-7.3,5.9-13.2,13.2-13.2c7.3,0,13.2,5.9,13.2,13.2
			C375.5,452.6,369.6,458.5,362.4,458.5z M362.3,437.2c-4.5,0-8.2,3.7-8.2,8.2s3.7,8.2,8.2,8.2s8.2-3.7,8.2-8.2
			C370.5,440.8,366.8,437.1,362.3,437.2z"/>
		<circle class="st23" cx="414.1" cy="385.7" r="70.3"/>
		<path class="st31" d="M477.8,367.3c0-4.8-0.4-9.4-1.2-14c-11.7-22.6-35.4-38-62.6-38c-38.8,0.1-70.3,31.6-70.2,70.4
			c0,27.2,15.5,50.8,38.2,62.4c4.5,0.8,9.2,1.2,14,1.2C441.2,449.3,477.9,412.6,477.8,367.3z"/>
		<path class="st25" d="M344.6,396.1c3.4,22.8,17.7,42,37.4,52.2c4.5,0.8,9.2,1.2,14,1.2c45.3-0.1,81.9-36.8,81.8-82.1
			c0-4.8-0.4-9.4-1.2-14c-6.4-12.3-16.3-22.5-28.4-29.2c-8.2-2.9-17-4.5-26.3-4.5C379.5,319.7,345.1,353.8,344.6,396.1z"/>
		<path class="st23" d="M444.8,400.5l-52.7,0.1c-11.1,0-20.1-9-20.1-20.1l0,0c0-11.1,9-20.1,20.1-20.1l52.7-0.1
			c11.1,0,20.1,9,20.1,20.1l0,0C464.8,391.5,455.9,400.5,444.8,400.5z"/>
		<path class="st24" d="M414.3,458.5c-40.2,0.1-72.9-32.5-73-72.7s32.5-72.9,72.7-73s72.9,32.5,73,72.7S454.4,458.4,414.3,458.5z
			 M414,317.9c-37.4,0.1-67.8,30.5-67.7,67.9c0.1,37.4,30.5,67.8,67.9,67.7c37.4-0.1,67.8-30.5,67.7-67.9
			C481.9,348.2,451.4,317.8,414,317.9z"/>
		<path class="st32" d="M440.5,396.3l-52.7,0.1c-11.1,0-20.1-9-20.1-20.1l0,0c0-11.1,9-20.1,20.1-20.1l52.7-0.1
			c11.1,0,20.1,9,20.1,20.1l0,0C460.6,387.3,451.6,396.3,440.5,396.3z"/>
		<path class="st24" d="M440.5,398.8l-52.7,0.1c-12.5,0-22.6-10.1-22.6-22.6s10.1-22.6,22.6-22.6l52.7-0.1
			c12.5,0,22.6,10.1,22.6,22.6C463.1,388.6,453,398.8,440.5,398.8z M387.7,358.7c-9.7,0-17.6,7.9-17.5,17.6
			c0,9.7,7.9,17.6,17.6,17.5l52.7-0.1c9.7,0,17.6-7.9,17.5-17.6c0-9.7-7.9-17.6-17.6-17.5L387.7,358.7z"/>
		<circle class="st24" cx="435.7" cy="376.2" r="8.6"/>
		<circle class="st24" cx="392.5" cy="376.3" r="8.6"/>
		<circle class="st33" cx="390.4" cy="374.2" r="2.1"/>
		<circle class="st33" cx="433.5" cy="374.1" r="2.1"/>
		<circle class="st33" cx="381.2" cy="339.7" r="5.3"/>
		<circle class="st33" cx="390.3" cy="344.1" r="3.1"/>
		<g>
			<circle class="st34" cx="398.6" cy="475.5" r="5.3"/>
			<path class="st24" d="M398.6,483.2c-4.3,0-7.8-3.5-7.8-7.8s3.5-7.8,7.8-7.8s7.8,3.5,7.8,7.8S402.9,483.2,398.6,483.2z
				 M398.6,472.7c-1.5,0-2.8,1.2-2.8,2.8c0,1.5,1.2,2.8,2.8,2.8s2.8-1.2,2.8-2.8S400.1,472.7,398.6,472.7z"/>
		</g>
		<g>
			<circle class="st34" cx="430" cy="475.4" r="5.3"/>
			<path class="st24" d="M430,483.2c-4.3,0-7.8-3.5-7.8-7.8s3.5-7.8,7.8-7.8s7.8,3.5,7.8,7.8S434.3,483.2,430,483.2z M430,472.6
				c-1.5,0-2.8,1.2-2.8,2.8c0,1.5,1.2,2.8,2.8,2.8s2.8-1.2,2.8-2.8S431.5,472.6,430,472.6z"/>
		</g>
		<g>
			
				<rect x="404.2" y="472.9" transform="matrix(1 -1.824522e-03 1.824522e-03 1 -0.8667 0.7566)" class="st24" width="20.1" height="5"/>
		</g>
		<circle class="st35" cx="495.4" cy="402.9" r="2.1"/>
		<circle class="st35" cx="490.6" cy="407.7" r="2.1"/>
		<circle class="st35" cx="485.7" cy="412.5" r="2.1"/>
	</g>
	<g>
		
			<linearGradient id="SVGID_11_" gradientUnits="userSpaceOnUse" x1="57.3" y1="118.85" x2="270.3" y2="118.85" gradientTransform="matrix(1 0 0 -1 0 788.5499)">
			<stop  offset="0" style="stop-color:#71C6D4"/>
			<stop  offset="1" style="stop-color:#499DD7"/>
		</linearGradient>
		<circle class="st36" cx="163.8" cy="669.7" r="102.5"/>
		<g>
			<rect x="113" y="606" class="st11" width="81.5" height="107.3"/>
			<rect x="133" y="626" class="st11" width="81.5" height="107.3"/>
			<rect x="169.3" y="671.3" class="st37" width="37.3" height="7.1"/>
			<rect x="141" y="671.3" class="st38" width="20.4" height="44.5"/>
			<rect x="169.3" y="683.8" class="st37" width="37.3" height="7.1"/>
			<rect x="196.1" y="696.3" class="st37" width="10.4" height="7.1"/>
			<rect x="169.3" y="696.3" class="st37" width="21.6" height="7.1"/>
			<rect x="169.3" y="708.7" class="st37" width="37.3" height="7.1"/>
			<rect x="141" y="637.2" class="st20" width="65.5" height="20.3"/>
			<line class="st7" x1="194.5" y1="606" x2="133" y2="626"/>
		</g>
	</g>
	<g>
		
			<linearGradient id="SVGID_12_" gradientUnits="userSpaceOnUse" x1="411.8" y1="682.05" x2="624.8" y2="682.05" gradientTransform="matrix(1 0 0 -1 0 788.5499)">
			<stop  offset="0" style="stop-color:#71C6D4"/>
			<stop  offset="1" style="stop-color:#499DD7"/>
		</linearGradient>
		<circle class="st39" cx="518.3" cy="106.5" r="102.5"/>
		<g>
			<polygon class="st40" points="531.8,164.1 504.8,164.1 511.9,141.2 524.7,141.2 			"/>
			<path class="st11" d="M539.6,173.5H497c-2.6,0-4.7-2.1-4.7-4.7l0,0c0-2.6,2.1-4.7,4.7-4.7h42.7c2.6,0,4.7,2.1,4.7,4.7l0,0
				C544.4,171.4,542.2,173.5,539.6,173.5z"/>
			<path class="st11" d="M571.8,152.7h-107c-8.5,0-15.3-6.9-15.3-15.3V64.1c0-8.5,6.9-15.3,15.3-15.3h107.1
				c8.5,0,15.3,6.9,15.3,15.3v73.3C587.1,145.8,580.3,152.7,571.8,152.7z"/>
			<path class="st41" d="M457.5,130.5v-60c0-7.1,5.9-12.9,13.2-12.9h95.1c7.3,0,13.2,5.8,13.2,12.9v59.9H457.5V130.5z"/>
			<line class="st7" x1="449.5" y1="130.5" x2="587.1" y2="130.5"/>
			<g>
				<path class="st42" d="M545.3,117.8h-54c-2.6,0-4.8-2.1-4.8-4.8V72.3c0-2.6,2.1-4.8,4.8-4.8h54c2.6,0,4.8,2.1,4.8,4.8V113
					C550.1,115.7,548,117.8,545.3,117.8z"/>
				<line class="st7" x1="486.5" y1="77.5" x2="550.1" y2="77.5"/>
				<rect x="493.3" y="85" class="st43" width="30.6" height="7"/>
				<rect x="531.3" y="85" class="st44" width="13.1" height="7"/>
				<g>
					<rect x="493.3" y="100.2" class="st45" width="11.4" height="11.4"/>
					<rect x="512.6" y="100.2" class="st45" width="11.4" height="11.4"/>
					<rect x="531.9" y="100.2" class="st45" width="11.4" height="11.4"/>
				</g>
			</g>
			<polygon class="st46" points="547.6,95.7 549.3,108.5 552.7,105.1 561.3,113.7 565.6,109.5 557,100.8 560.4,97.4 			"/>
		</g>
	</g>
	<g>
		
			<linearGradient id="SVGID_13_" gradientUnits="userSpaceOnUse" x1="665.2" y1="515.15" x2="878.2" y2="515.15" gradientTransform="matrix(1 0 0 -1 0 788.5499)">
			<stop  offset="0" style="stop-color:#71C6D4"/>
			<stop  offset="1" style="stop-color:#499DD7"/>
		</linearGradient>
		<circle class="st47" cx="771.7" cy="273.4" r="102.5"/>
		<g>
			<path class="st48" d="M805.9,345.7h-68.4c-4.4,0-8-3.6-8-8V209.2c0-4.4,3.6-8,8-8h68.4c4.4,0,8,3.6,8,8v128.5
				C813.9,342.1,810.3,345.7,805.9,345.7z"/>
			<path class="st42" d="M794.3,213.9h-31.9c-1.3,0-2.4-1.1-2.4-2.4v-1.1c0-1.3,1.1-2.4,2.4-2.4h31.9c1.3,0,2.4,1.1,2.4,2.4v1.1
				C796.6,212.9,795.6,213.9,794.3,213.9z"/>
			<path class="st49" d="M807,224.7v92.9c0,2.9-2.4,5.3-5.4,5.3h-59.8c-3,0-5.4-2.4-5.4-5.3v-92.9c0-2.9,2.4-5.3,5.4-5.3h59.8
				C804.6,219.4,807,221.8,807,224.7z"/>
			<circle class="st42" cx="748.3" cy="211" r="2.9"/>
			<circle class="st40" cx="771.7" cy="334.4" r="6.6"/>
			<g>
				<polyline class="st7" points="745.1,298.3 754.6,288.9 765.7,298.3 775.2,288.9 				"/>
				<circle class="st50" cx="745.1" cy="298.3" r="3.2"/>
				<circle class="st50" cx="754.6" cy="288.9" r="3.2"/>
				<circle class="st50" cx="765.7" cy="298.3" r="3.2"/>
				<circle class="st50" cx="775.2" cy="288.9" r="3.2"/>
			</g>
			<g id="XMLID_1_">
				<g>
					<path class="st51" d="M790.5,251.7c0,3.8-1.1,7.2-3,10.2l-15.9-10.2v-18.8C782.1,232.9,790.5,241.3,790.5,251.7z"/>
					<path class="st52" d="M771.7,251.7l15.9,10.2c-3.3,5.2-9.2,8.7-15.9,8.7c-7.6,0-14.2-4.5-17.1-11L771.7,251.7z"/>
					<path class="st53" d="M771.7,232.9v18.8l-9.8-16.1C764.8,233.9,768.1,232.9,771.7,232.9z"/>
					<path class="st54" d="M761.9,235.6l9.8,16.1l-17.1,7.8c-1.1-2.4-1.7-5-1.7-7.8C752.9,244.9,756.5,238.9,761.9,235.6z"/>
				</g>
				<g>
					<path class="st7" d="M771.7,232.9c10.4,0,18.8,8.4,18.8,18.8c0,3.8-1.1,7.2-3,10.2c-3.3,5.2-9.2,8.7-15.9,8.7
						c-7.6,0-14.2-4.5-17.1-11c-1.1-2.4-1.7-5-1.7-7.8c0-6.8,3.6-12.8,9-16.1C764.8,233.9,768.1,232.9,771.7,232.9z"/>
					<polyline class="st7" points="771.7,232.9 771.7,251.7 787.6,261.9 					"/>
					<polyline class="st7" points="754.6,259.6 754.6,259.6 771.7,251.7 761.9,235.6 					"/>
				</g>
			</g>
			<line class="st7" x1="782.3" y1="285.7" x2="801" y2="285.7"/>
			<line class="st7" x1="782.3" y1="293.6" x2="801" y2="293.6"/>
			<line class="st7" x1="782.3" y1="301.4" x2="801" y2="301.4"/>
		</g>
	</g>
	<g>
		
			<linearGradient id="SVGID_14_" gradientUnits="userSpaceOnUse" x1="338.1" y1="181.75" x2="384.1" y2="181.75" gradientTransform="matrix(1 0 0 -1 0 788.5499)">
			<stop  offset="0" style="stop-color:#71C6D4"/>
			<stop  offset="1" style="stop-color:#499DD7"/>
		</linearGradient>
		<circle class="st55" cx="361.1" cy="606.8" r="19"/>
		
			<linearGradient id="SVGID_15_" gradientUnits="userSpaceOnUse" x1="352.2292" y1="181.75" x2="369.9272" y2="181.75" gradientTransform="matrix(1 0 0 -1 0 788.5499)">
			<stop  offset="0" style="stop-color:#71C6D4"/>
			<stop  offset="1" style="stop-color:#499DD7"/>
		</linearGradient>
		<circle class="st56" cx="361.1" cy="606.8" r="8.8"/>
	</g>
	<g>
		
			<linearGradient id="SVGID_16_" gradientUnits="userSpaceOnUse" x1="293.2" y1="604.55" x2="339.2" y2="604.55" gradientTransform="matrix(1 0 0 -1 0 788.5499)">
			<stop  offset="0" style="stop-color:#71C6D4"/>
			<stop  offset="1" style="stop-color:#499DD7"/>
		</linearGradient>
		<circle class="st57" cx="316.2" cy="184" r="19"/>
		
			<linearGradient id="SVGID_17_" gradientUnits="userSpaceOnUse" x1="307.3483" y1="604.55" x2="325.0463" y2="604.55" gradientTransform="matrix(1 0 0 -1 0 788.5499)">
			<stop  offset="0" style="stop-color:#71C6D4"/>
			<stop  offset="1" style="stop-color:#499DD7"/>
		</linearGradient>
		<circle class="st58" cx="316.2" cy="184" r="8.8"/>
	</g>
	<g>
		
			<linearGradient id="SVGID_18_" gradientUnits="userSpaceOnUse" x1="677.2" y1="354.05" x2="723.2" y2="354.05" gradientTransform="matrix(1 0 0 -1 0 788.5499)">
			<stop  offset="0" style="stop-color:#71C6D4"/>
			<stop  offset="1" style="stop-color:#499DD7"/>
		</linearGradient>
		<circle class="st59" cx="700.2" cy="434.5" r="19"/>
		
			<linearGradient id="SVGID_19_" gradientUnits="userSpaceOnUse" x1="691.366" y1="354.05" x2="709.064" y2="354.05" gradientTransform="matrix(1 0 0 -1 0 788.5499)">
			<stop  offset="0" style="stop-color:#71C6D4"/>
			<stop  offset="1" style="stop-color:#499DD7"/>
		</linearGradient>
		<circle class="st60" cx="700.2" cy="434.5" r="8.8"/>
	</g>
	<g>
		
			<linearGradient id="SVGID_20_" gradientUnits="userSpaceOnUse" x1="614.2527" y1="288.35" x2="660.2527" y2="288.35" gradientTransform="matrix(1 0 0 -1 0 788.5499)">
			<stop  offset="0" style="stop-color:#71C6D4"/>
			<stop  offset="1" style="stop-color:#499DD7"/>
		</linearGradient>
		<circle class="st61" cx="637.3" cy="500.2" r="19"/>
		
			<linearGradient id="SVGID_21_" gradientUnits="userSpaceOnUse" x1="628.418" y1="288.35" x2="646.116" y2="288.35" gradientTransform="matrix(1 0 0 -1 0 788.5499)">
			<stop  offset="0" style="stop-color:#71C6D4"/>
			<stop  offset="1" style="stop-color:#499DD7"/>
		</linearGradient>
		<circle class="st62" cx="637.3" cy="500.2" r="8.8"/>
	</g>
</g>
</svg>
