<?xml version="1.0" encoding="utf-8"?>
<!-- Generator: Adobe Illustrator 23.0.1, SVG Export Plug-In . SVG Version: 6.00 Build 0)  -->
<svg version="1.1" id="レイヤー_1" xmlns="http://www.w3.org/2000/svg" xmlns:xlink="http://www.w3.org/1999/xlink" x="0px"
	 y="0px" viewBox="0 0 171.5 252.1" style="enable-background:new 0 0 171.5 252.1;" xml:space="preserve">
<style type="text/css">
	.st0{fill:#DCF0FB;stroke:#003D51;stroke-width:4;stroke-linecap:round;stroke-linejoin:round;stroke-miterlimit:10;}
	.st1{fill:#FFFFFF;stroke:#003D51;stroke-width:4;stroke-linecap:round;stroke-linejoin:round;stroke-miterlimit:10;}
	.st2{fill:#E5E5E6;stroke:#003D51;stroke-width:4;stroke-linecap:round;stroke-linejoin:round;stroke-miterlimit:10;}
	.st3{fill:#29A4CF;}
	.st4{fill:#003D51;}
	.st5{fill:#30BCEF;}
	.st6{fill:#D8D8D9;}
	.st7{fill:#BED400;}
	.st8{fill:#9CC2D6;}
	.st9{fill:#02647F;}
	.st10{fill:#107593;}
	.st11{fill:#D5EDFA;}
	.st12{fill:#E5F4FC;}
	.st13{fill:#FFFFFF;}
	.st14{fill:#B5E0F8;}
	.st15{fill:#EDF4E2;}
</style>
<g>
	<path class="st0" d="M133.1,250.1H15.8c-7.6,0-13.8-6.2-13.8-13.8V15.8C2,8.2,8.2,2,15.8,2h117.3c7.6,0,13.8,6.2,13.8,13.8v220.5
		C146.9,243.9,140.7,250.1,133.1,250.1z"/>
	<path class="st1" d="M113.1,23.9H58.4c-2.3,0-4.1-1.8-4.1-4.1V18c0-2.3,1.8-4.1,4.1-4.1h54.7c2.3,0,4.1,1.8,4.1,4.1v1.8
		C117.2,22.1,115.4,23.9,113.1,23.9z"/>
	<path class="st1" d="M135,42.6v162.5c0,5.1-4.2,9.3-9.3,9.3H23.1c-5.1,0-9.3-4.2-9.3-9.3V42.6c0-5.1,4.1-9.3,9.3-9.3h102.6
		C130.8,33.4,135,37.5,135,42.6z"/>
	<circle class="st1" cx="34.2" cy="18.9" r="5"/>
	<circle class="st2" cx="74.4" cy="232.2" r="10.5"/>
	<g>
		<g>
			<path class="st3" d="M165.5,103c-3.2-2.7-7.7-5.5-11.5-4.2c-3.1,1-3.8,4-6.8,7.1c-2.6,2.7-7.1,5.7-15.5,6.5c1.8,0.5,4.6,1,8,0.7
				c1.7-0.2,5.3-0.5,8.9-2.7c4.4-2.6,4.3-5.2,7.8-6.9C158.3,102.5,161.2,101.9,165.5,103z"/>
			<path class="st4" d="M166.7,101.7c-2.4-2-4.7-3.5-6.9-4.2c-1.9-0.7-3.8-0.9-5.4-0.6c-0.3,0-0.6,0.1-0.9,0.2
				c-0.7,0.2-1.3,0.6-1.9,0.9c-1.4,0.9-2.3,2.2-3.2,3.5c-0.4,0.5-0.8,1-1.1,1.6l-0.1,0.1c-0.4,0.5-0.8,0.9-1.2,1.4
				c-1.9,2-4.3,3.4-7.3,4.5c-0.3,0.1-0.6,0.2-0.8,0.3c0,0,0,0,0,0c-0.4,0.1-0.8,0.2-1.2,0.3c-0.7,0.2-1.4,0.3-2.1,0.5c0,0,0,0,0,0
				c-0.9,0.2-1.9,0.3-2.9,0.4c-0.1,0-0.3,0-0.4,0.1c-0.2,0.1-0.4,0.2-0.6,0.3c-0.2,0.1-0.3,0.3-0.4,0.5c-0.1,0.2-0.2,0.5-0.2,0.7
				c0,0.4,0.1,0.8,0.3,1.1c0.2,0.4,0.6,0.7,1.1,0.8c1.1,0.3,2.2,0.5,3.3,0.6c0.5,0.1,0.9,0.1,1.4,0.1c0.5,0,1.1,0,1.6,0
				c0.2,0,0.4,0,0.6,0c0.6,0,1.1,0,1.7-0.1c0.1,0,0.3,0,0.5,0c1.9-0.2,5.5-0.7,9.2-2.9c2.4-1.5,3.7-3,4.7-4.2c0.9-1.1,1.6-1.9,3-2.6
				c0.8-0.4,1.7-0.6,2.6-0.8c1.6-0.2,3.3,0,5.3,0.5c0.8,0.2,1.6-0.2,2-0.9C167.5,103.1,167.3,102.2,166.7,101.7z M151.4,105.4
				c-0.9,1.2-1.8,2.3-3.8,3.4c-1.1,0.7-2.2,1.2-3.3,1.5c1.5-0.9,2.9-2,4.1-3.2c1.2-1.2,2.1-2.4,2.8-3.5c1.3-1.8,2-2.7,3.3-3.2
				c0.4-0.1,0.9-0.2,1.4-0.2c0.8,0,1.8,0.2,2.8,0.6c-1.1,0.2-2.2,0.5-3.2,1C153.5,102.8,152.4,104.1,151.4,105.4z"/>
		</g>
		<g>
			<path class="st5" d="M169.8,83.7c-5.8-3.5-12.8-6.6-17.2-3.8c-4,2.5-3.1,7.9-6.2,14.9c-2.3,5.1-6.8,11.3-16.7,16.8
				c2.6-0.3,6.5-1.2,10.8-3.4c2.6-1.4,7.7-4.6,11.5-10.5c3.9-5.9,2.8-9,6.3-11.7C161.7,83.1,166.5,83.2,169.8,83.7z"/>
			<path class="st4" d="M170.7,82.2c-4.2-2.5-7.8-4.1-10.9-4.8c-3.3-0.7-6-0.4-8.2,1c-3,1.9-3.8,5-4.6,8.6c-0.5,2.1-1.1,4.5-2.3,7.1
				c-1.7,3.8-4.4,7.4-8,10.5c-0.5,0.5-1.1,0.9-1.7,1.4c-0.3,0.2-0.6,0.5-0.9,0.7c-0.3,0.2-0.6,0.4-0.8,0.6c-1.4,1-2.9,1.9-4.5,2.8
				c-0.7,0.4-1.1,1.3-0.8,2.1c0.2,0.7,0.9,1.2,1.7,1.2c0.1,0,0.1,0,0.2,0c0.1,0,0.3,0,0.4-0.1c1-0.1,2-0.3,3-0.6
				c0.4-0.1,0.9-0.2,1.3-0.3c0.2,0,0.4-0.1,0.6-0.2c0.7-0.2,1.4-0.4,2-0.7c0.4-0.1,0.8-0.3,1.1-0.4h0c0,0,0,0,0,0c0,0,0,0,0,0
				c0.2-0.1,0.5-0.2,0.7-0.3c0.7-0.3,1.4-0.6,2.1-1c2.1-1.1,4.7-2.8,7.2-5.2c0,0,0,0,0,0c1.5-1.4,3-3.1,4.4-5.1v0
				c0.2-0.2,0.3-0.5,0.5-0.7c0.4-0.6,0.7-1.2,1-1.7c1.2-2.1,1.8-3.8,2.3-5.2c0.7-2,1.1-3.2,2.6-4.4c0.2-0.1,0.4-0.3,0.6-0.4
				c2.3-1.6,5.6-2,9.7-1.4c0.8,0.1,1.6-0.4,1.9-1.1C171.7,83.5,171.4,82.6,170.7,82.2z M159.8,82.9c-1,0.4-1.9,1-2.8,1.6
				c-2.3,1.8-3,3.7-3.7,6c-0.6,1.7-1.3,3.7-2.9,6.2c-3.2,5-7.3,8-10.4,9.7c3.5-3.3,6.2-6.9,8-10.9c1.3-2.9,1.9-5.5,2.5-7.7
				c0.8-3.5,1.4-5.3,3.1-6.4c0.8-0.5,1.9-0.8,3.1-0.8c1,0,2,0.2,3.2,0.5c0.9,0.2,1.8,0.5,2.8,0.9C161.6,82.2,160.7,82.5,159.8,82.9z
				"/>
		</g>
		<g>
			<path class="st6" d="M134.8,168.8l-1.4,1.4l-1.8,1.7l-1.5,1.5l-0.4,0.4l-1.1,1.1l-4.2,4.2l-0.9,0.9l-0.8,0.8l-1.8,1.7l-0.2,0.2
				l-1.8,1.7l-1.5,1.5l-1.5,1.5l-6.7,6.6l-9.3,9.2l-1.6,1.6l-2.1,2l-1.5,1.5l-2,2L91,212l-0.4,0.4h-19l4.2-4.2l4.3-4.2l10-9.9
				l3.7-3.7l2.9-2.9l3.4-3.3l15.1-14.9l1.5-1.5l0.7-0.7l0.8-0.8l5.7-5.6l1-1l0.4-0.4l0.4,0.4l1.9,1.9l0.6,0.6l1.5,1.6l1.5,1.5
				l1.2,1.2c0,0,0,0,0,0L134.8,168.8z"/>
			<path class="st4" d="M136.1,167.1c0-0.1-0.1-0.3-0.2-0.4l-0.3-0.3l-1.7-1.7l0,0l-1.3-1.3l-3.1-3l0,0l-0.1-0.1
				c-0.4-0.4-0.9-0.6-1.5-0.6h-2.6c-0.1,0-0.3,0-0.4,0c-0.6,0-1.2,0.1-1.7,0.3c-1.4,0.4-2.7,1.1-3.7,2.1l-2.5,2.5l-0.8,0.8l-0.7,0.6
				l-1.5,1.5l-18.3,18.1l-2.9,2.9c0,0,0,0,0,0l-2.6,2.6c0,0,0,0,0,0l-2.5,2.5L77,204l-3.1,3l-1.2,1.2l-4.2,4.2l-0.2,0.2
				c0.4,0,0.7-0.1,1.1-0.2h5.2l4.2-4.2l4.3-4.2l9.7-9.5l5.2-5.1l3.4-3.3c0,0,0,0,0,0l4.1-4.1l11-10.9l1.5-1.5l0.7-0.7l0.8-0.8l3-3
				c0.8-0.8,1.7-1.2,2.8-1.2h1.7l0,0l0.7,0.5l1,0.8l1.7,1.3l2,1.5c0,0-0.2,0.2-0.6,0.6l-2.1,2.1c-0.3,0.3-0.6,0.6-0.9,0.8l-0.7,0.7
				v0l-1.7,1.7l-2.9,2.8l-0.9,0.9l-0.8,0.7l-1.7,1.7l-2.3,2.2l-0.1,0.1l-1.7,1.7l-1.6,1.6l-9,8.9l-7,6.9l-1.5,1.5l-1.5,1.5l-3.3,3.3
				l-1.5,1.5l-1.5,1.5l-1.7,1.7h4.6c0.4,0.1,0.8,0.2,1.3,0.2l0.2-0.2l2.3-2.3c0,0,0,0,0,0l2-2l2.6-2.5l12.5-12.3l4.3-4.3l1.5-1.5
				l1.5-1.5l2.8-2.7l0.8-0.8l0.8-0.8l0.2-0.2l3.7-3.7l1.4-1.4l1.5-1.5l0.3-0.3c0.4-0.4,0.8-0.8,1.2-1.2c0.6-0.6,1.2-1.2,1.6-1.8
				c0.5-0.6,0.9-1.3,1.2-1.8C136.3,168.9,136.4,168,136.1,167.1z"/>
		</g>
		<g>
			<path class="st7" d="M155.1,148.7l-14.5,14.3c-2.6,2.6-6.9,2.6-9.5-0.1h0c-2.6-2.6-2.6-6.9,0.1-9.5l14.5-14.3
				c2.6-2.6,6.9-2.6,9.5,0.1l0,0C157.7,141.9,157.7,146.1,155.1,148.7z"/>
			<path class="st4" d="M156.6,137.8c-3.4-3.5-9-3.5-12.5-0.1l-2.7,2.7l-2.7,2.6l-2.9,2.9l-4.8,4.7l-1.5,1.4c0,0,0,0,0,0.1
				c-0.5,0.5-1,1.1-1.3,1.7c-0.7,1.2-1.1,2.6-1.2,3.9c0,0.7,0,1.3,0.1,1.9c0.1,0.6,0.2,1.1,0.4,1.6c0,0.1,0,0.2,0.1,0.3
				c0.1,0.3,0.3,0.6,0.4,0.9c0.4,0.7,0.8,1.3,1.3,1.8c0,0.1,0.1,0.1,0.1,0.2c0.4,0.5,0.9,0.9,1.5,1.2c0.5,0.3,0.9,0.5,1.4,0.8
				c0,0,0,0,0,0c0.1,0,0.2,0.1,0.3,0.1h0c1,0.4,2,0.6,3.1,0.6c0.1,0,0.1,0,0.2,0c0.1,0,0.2,0,0.2,0c1.4-0.1,2.7-0.4,4-1.2
				c0.6-0.4,1.2-0.8,1.7-1.3c0,0,0,0,0,0l1.5-1.5l13-12.9C160,146.8,160.1,141.2,156.6,137.8z M153.6,147.2l-13,12.9l-1.5,1.5
				c0,0,0,0,0,0c-0.6,0.5-1.2,0.9-1.9,1.1c-1.2,0.3-2.6,0.1-3.7-0.6c-0.3-0.2-0.5-0.4-0.8-0.6c-0.3-0.3-0.5-0.6-0.7-1
				c-0.6-1.1-0.7-2.3-0.4-3.5c0.2-0.7,0.6-1.4,1.1-1.9c0,0,0,0,0.1-0.1l1.5-1.4l2.1-2.1l3.4-3.4l7.6-7.5c0.9-0.9,2-1.3,3.2-1.3
				c1.2,0,2.3,0.4,3.2,1.3c0.9,0.9,1.3,2,1.3,3.2C154.9,145.1,154.5,146.3,153.6,147.2z"/>
		</g>
		<g>
			<path class="st8" d="M137.4,171.2L123,156.6c-1.5-1.6-1.5-4.1,0-5.6h0c1.6-1.5,4.1-1.5,5.6,0l14.4,14.6c1.5,1.6,1.5,4.1,0,5.6h0
				C141.4,172.8,138.9,172.8,137.4,171.2z"/>
			<path class="st4" d="M144.5,164.1l-1-1l-1.5-1.5l-1.5-1.5l-3.9-4l-1.6-1.6l-0.9-0.9l-0.7-0.8l-0.8-0.8l-1.5-1.5l-1-1
				c-1.1-1.1-2.5-1.7-3.9-1.8c-1.7-0.1-3.4,0.5-4.7,1.7c-2,1.9-2.3,4.9-1.1,7.2c0.3,0.5,0.6,1,1,1.4l1.8,1.8l0.7,0.7l3.2,3.2
				l0.6,0.6l0.9,0.9l1.5,1.5l1.7,1.7l1.5,1.5l1.4,1.4l1.1,1.1c1.2,1.2,2.8,1.8,4.3,1.8c1.5,0,3.1-0.6,4.3-1.8
				c1.2-1.1,1.8-2.7,1.8-4.3C146.3,166.8,145.7,165.3,144.5,164.1z M135.9,166.7l-0.3-0.3l-1.6-1.7l0,0l-1.3-1.4l-1.5-1.5l-1.6-1.6
				l-0.1-0.1l0,0l-2.4-2.4l-2.5-2.6c-0.7-0.7-0.7-1.9,0-2.6c0.4-0.4,0.8-0.5,1.3-0.5c0.5,0,0.9,0.2,1.3,0.5l1.2,1.2l3.2,3.2l0.1,0.1
				l1.5,1.5c0,0,0,0,0,0l1.5,1.6l2.5,2.5l1.6,1.7l1.6,1.6l1.2,1.2c0.3,0.3,0.5,0.8,0.5,1.3c0,0.5-0.2,0.9-0.5,1.3
				c-0.4,0.3-0.8,0.5-1.3,0.5c-0.5,0-0.9-0.2-1.3-0.5l-2.6-2.6L135.9,166.7z"/>
		</g>
		<g>
			<path class="st9" d="M50.3,215.3c-1.1-0.6-2.3-1-3.5-1c-0.1,0-0.1,0-0.2,0c-0.8,0-1.6,0.2-2.3,0.4c-0.4-0.6-0.9-1.2-1.3-1.7
				c0.5-0.2,1-0.4,1.5-0.5c0.2,0,0.4-0.1,0.5-0.1c0.8-0.2,1.7-0.2,2.5-0.1c0.5,0,1,0.1,1.5,0.3h-1.3
				C48.6,213.4,49.5,214.4,50.3,215.3z"/>
			<path class="st10" d="M50.3,215.3c-1.1-0.6-2.3-1-3.5-1c-0.1,0-0.1,0-0.2,0c-0.8,0-1.6,0.2-2.3,0.4c-0.4-0.6-0.9-1.2-1.3-1.7
				c0.5-0.2,1-0.4,1.5-0.5c0.2,0,0.4-0.1,0.5-0.1c0.8-0.2,1.7-0.2,2.5-0.1c0.5,0,1,0.1,1.5,0.3h-1.3
				C48.6,213.4,49.5,214.4,50.3,215.3z"/>
			<path class="st4" d="M53.8,212.5c-2.2-1.7-5-2.6-7.7-2.4c-0.8,0-1.5,0.2-2.2,0.4c-0.7,0.2-1.3,0.4-2,0.8
				c-0.4,0.2-0.8,0.4-1.3,0.7c-0.2,0.2-0.5,0.3-0.7,0.5h2.8c0.1,0.2,0.2,0.4,0.4,0.5c0.4,0.6,0.8,1.2,1.3,1.7
				c0.7-0.3,1.5-0.4,2.3-0.4c0.1,0,0.1,0,0.2,0c1.2,0,2.5,0.3,3.5,1c-0.9-0.9-1.7-1.8-2.5-2.8H53.8z"/>
			<path class="st9" d="M118.3,213c-0.4,0.6-0.8,1.2-1.3,1.7c-0.7-0.3-1.5-0.4-2.3-0.4c-0.1,0-0.1,0-0.2,0c-1.2,0-2.5,0.3-3.5,1
				c0.9-0.9,1.7-1.8,2.5-2.8h-1.3c0.5-0.1,1-0.2,1.5-0.3c0.8-0.1,1.7,0,2.5,0.1c0.2,0,0.4,0.1,0.5,0.1
				C117.3,212.6,117.8,212.8,118.3,213z"/>
			<path class="st10" d="M118.3,213c-0.4,0.6-0.8,1.2-1.3,1.7c-0.7-0.3-1.5-0.4-2.3-0.4c-0.1,0-0.1,0-0.2,0c-1.2,0-2.5,0.3-3.5,1
				c0.9-0.9,1.7-1.8,2.5-2.8h-1.3c0.5-0.1,1-0.2,1.5-0.3c0.8-0.1,1.7,0,2.5,0.1c0.2,0,0.4,0.1,0.5,0.1
				C117.3,212.6,117.8,212.8,118.3,213z"/>
			<path class="st4" d="M120.8,211.9c-0.4-0.3-0.8-0.5-1.3-0.7c-0.6-0.3-1.3-0.6-2-0.8c-0.7-0.2-1.5-0.3-2.3-0.4
				c-2.7-0.2-5.5,0.6-7.7,2.4h5.9c-0.8,1-1.6,1.9-2.5,2.8c1.1-0.6,2.3-1,3.5-1c0.1,0,0.1,0,0.2,0c0.8,0,1.6,0.2,2.3,0.4
				c0.4-0.6,0.9-1.2,1.3-1.7c0.1-0.2,0.3-0.4,0.4-0.5h2.8C121.3,212.3,121,212.1,120.8,211.9z"/>
		</g>
		<g>
			<path class="st5" d="M123.7,189.6v0.1c0,0.7,0,1.3,0,2c-0.4,6.9-2.5,13.3-6,18.8c-0.4,0.6-0.8,1.3-1.3,1.9c0,0-0.1,0.1-0.1,0.1
				c-0.4,0.6-0.9,1.3-1.4,1.8c-0.1,0-0.1,0-0.2,0c-1.2,0-2.5,0.3-3.5,1c0.9-0.9,1.7-1.8,2.5-2.8H95.9c-0.6,0.2-1.2,0.3-1.9,0.3
				c-0.2,0-0.4,0-0.6,0c-0.4,0-0.9-0.1-1.3-0.2H69.3c-0.4,0.1-0.7,0.2-1.1,0.2c-0.3,0-0.5,0.1-0.8,0.1c-0.7,0-1.3-0.1-1.9-0.3H47.8
				c0.8,1,1.6,1.9,2.5,2.8c-1.1-0.6-2.3-1-3.5-1c-0.1,0-0.1,0-0.2,0c-0.5-0.6-1-1.2-1.4-1.8c0,0-0.1-0.1-0.1-0.1
				c-0.4-0.6-0.9-1.2-1.3-1.9c-3.5-5.5-5.7-11.9-6-18.8c0-0.7,0-1.3,0-2v-0.1c0-0.7,0-1.4,0.1-2.2c0.2-3.8,1-7.5,2.3-10.9
				c0.1-0.3,0.2-0.6,0.4-0.9c0.1-0.2,0.2-0.4,0.3-0.7c0.1-0.2,0.1-0.3,0.2-0.5c0.2-0.5,0.4-1,0.7-1.5c0.1-0.2,0.2-0.4,0.3-0.5
				c0.2-0.5,0.5-0.9,0.7-1.3c1.4-2.5,3-4.8,4.9-6.9c0.5-0.6,1-1.1,1.5-1.6c7-7,16.6-11.3,27.2-11.3h9c11.4,0,21.7,5,28.7,12.9
				c0.5,0.6,1.1,1.2,1.6,1.9c0.4,0.6,0.9,1.2,1.3,1.7c0.4,0.6,0.8,1.2,1.2,1.8c0.3,0.5,0.6,1,0.8,1.5c0.3,0.4,0.5,0.9,0.7,1.3
				c0.1,0.2,0.2,0.4,0.3,0.5c0.2,0.5,0.5,1,0.7,1.5c0.1,0.1,0.1,0.3,0.2,0.4c0.2,0.5,0.4,1.1,0.6,1.6c0.2,0.6,0.4,1.3,0.6,1.9
				c0.3,0.8,0.5,1.6,0.7,2.4c0.1,0.5,0.2,1.1,0.4,1.6c0,0.3,0.1,0.6,0.1,0.9c0.2,1.3,0.4,2.7,0.5,4.1
				C123.6,188.1,123.7,188.9,123.7,189.6z"/>
			<path class="st4" d="M125.7,187.4c-0.1-2-0.4-3.9-0.8-5.8c0,0,0-0.1,0-0.1c-0.2-0.8-0.4-1.6-0.6-2.4c-0.2-0.8-0.4-1.6-0.7-2.3
				c-0.2-0.6-0.4-1.2-0.6-1.8c-0.1-0.3-0.3-0.7-0.4-1c-0.1-0.4-0.3-0.7-0.5-1.1c-0.1-0.3-0.3-0.6-0.4-0.9c-0.2-0.4-0.4-0.8-0.6-1.1
				c-0.1-0.3-0.3-0.5-0.4-0.8c-0.4-0.7-0.8-1.4-1.2-2c-0.4-0.6-0.8-1.2-1.2-1.8c-0.4-0.6-0.8-1.2-1.3-1.7c-0.5-0.6-1-1.3-1.6-1.9
				c-7.4-8.3-18.2-13.5-30.2-13.5h-9c-15.3,0-28.6,8.5-35.5,21c-0.1,0.3-0.3,0.5-0.4,0.8c-0.2,0.4-0.4,0.8-0.6,1.1
				c-0.1,0.3-0.3,0.6-0.4,0.9c-0.2,0.4-0.3,0.7-0.5,1.1c-0.1,0.3-0.3,0.7-0.4,1c-0.1,0.3-0.2,0.5-0.3,0.8c-1.3,3.7-2.2,7.6-2.4,11.6
				c0,0.7-0.1,1.4-0.1,2.1v0.2c0,0.7,0,1.3,0,2c0.4,7.2,2.5,13.8,6.1,19.5c0.3,0.4,0.5,0.8,0.8,1.2c0.1,0.2,0.2,0.4,0.4,0.5
				c0.4,0.6,0.8,1.2,1.3,1.7c0.7-0.3,1.5-0.4,2.3-0.4c0.1,0,0.1,0,0.2,0c1.2,0,2.5,0.3,3.5,1c-0.9-0.9-1.7-1.8-2.5-2.8
				c-0.1-0.1-0.1-0.2-0.2-0.3c-0.5-0.7-1.1-1.4-1.6-2.1c-3.7-5.4-5.9-11.8-6.2-18.7c0-0.5,0-1.1,0-1.6c0-0.2,0-0.4,0-0.6
				c0-0.8,0-1.6,0.1-2.4c0.2-3,0.9-6,1.8-8.8c0.2-0.5,0.3-1,0.5-1.5c0.1-0.2,0.1-0.4,0.2-0.6v0c0.2-0.5,0.4-1.1,0.7-1.6
				c0.1-0.1,0.1-0.3,0.2-0.4c0.2-0.5,0.5-1,0.8-1.5c1.2-2.2,2.7-4.3,4.3-6.2c6.7-7.8,16.6-12.7,27.6-12.7h9
				c10.8,0,20.5,4.7,27.2,12.3c0.6,0.6,1.1,1.3,1.6,1.9c0.4,0.6,0.9,1.2,1.3,1.7c0.4,0.6,0.8,1.2,1.2,1.8c0.2,0.4,0.5,0.8,0.7,1.2
				c0.3,0.5,0.5,1,0.8,1.5c0.1,0.1,0.2,0.3,0.2,0.4c0.3,0.5,0.5,1,0.7,1.6c0.1,0.2,0.2,0.4,0.2,0.6c0.2,0.5,0.4,1,0.5,1.5
				c0.3,0.7,0.5,1.4,0.7,2.1c0.2,0.8,0.4,1.6,0.6,2.4c0,0.1,0,0.1,0,0.2c0.2,0.8,0.3,1.6,0.4,2.4c0.1,0.5,0.1,1.1,0.2,1.6
				c0.1,0.8,0.1,1.6,0.1,2.4c0,0.2,0,0.4,0,0.6c0,0.3,0,0.6,0,0.9c0,0.2,0,0.5,0,0.7c-0.3,6.9-2.5,13.4-6.2,18.7
				c-0.5,0.7-1,1.4-1.6,2.1c-0.1,0.1-0.1,0.2-0.2,0.3c-0.8,1-1.6,1.9-2.5,2.8c1.1-0.6,2.3-1,3.5-1c0.1,0,0.1,0,0.2,0
				c0.8,0,1.6,0.2,2.3,0.4c0.4-0.6,0.9-1.2,1.3-1.7c0.1-0.2,0.3-0.4,0.4-0.5c0.3-0.4,0.6-0.8,0.8-1.2c3.6-5.7,5.8-12.4,6.1-19.5
				c0-0.7,0-1.3,0-2v-0.2C125.7,188.8,125.7,188.1,125.7,187.4z M116.8,167.8c-0.4-0.6-0.8-1.2-1.3-1.7c-0.5-0.6-1-1.3-1.6-1.9
				c-0.1,0.1-0.2,0.2-0.3,0.2c-0.4,0.4-0.8,0.8-1.3,1.2c0.6,0.6,1.1,1.3,1.6,1.9c0.4,0.6,0.9,1.2,1.3,1.7c0.4,0.6,0.8,1.2,1.2,1.8
				l1.5-1.5C117.6,169,117.2,168.4,116.8,167.8z"/>
		</g>
		<path class="st3" d="M76.1,150.4c-11.5,0-21.9,5-29.1,12.9c10,18.8,29.8,31.5,52.5,31.5c9,0,17.5-2,25.1-5.5
			c-0.2-21.5-17.7-38.9-39.3-38.9H76.1z"/>
		<circle class="st9" cx="124.6" cy="180.6" r="9"/>
		<path class="st10" d="M115.6,180.6c0,0.2,0,0.4,0,0.6c1.4,1,3.2,1.5,5,1.5c5,0,9-4,9-9c0-0.2,0-0.4,0-0.6c-1.4-1-3.2-1.5-5-1.5
			C119.6,171.6,115.6,175.6,115.6,180.6z"/>
		<circle class="st10" cx="36.8" cy="180.6" r="9"/>
		<path class="st9" d="M31.1,184.6c0,1.3,0.3,2.5,0.7,3.5c1.4,1,3.1,1.5,5,1.5c5,0,9-4,9-9c0-1.3-0.3-2.5-0.7-3.5
			c-1.4-1-3.1-1.5-5-1.5C35.1,175.6,31.1,179.6,31.1,184.6z"/>
		<path class="st4" d="M133.1,173.4c-0.4-0.5-1-1.1-1.5-1.5c-0.6-0.5-1.2-0.9-1.8-1.2c-0.6-0.3-1.3-0.6-2-0.8
			c-0.8-0.2-1.6-0.4-2.4-0.4c-0.3,0-0.5,0-0.8,0c-0.8,0-1.5,0.1-2.3,0.2c-0.6,0.1-1.1,0.3-1.6,0.5c-0.4,0.1-0.7,0.3-1.1,0.5h0
			c-0.3,0.1-0.5,0.3-0.8,0.4c-0.6,0.4-1.2,0.8-1.7,1.3c-1.4,1.2-2.4,2.8-3,4.5c-0.4,1-0.6,2-0.6,3c0,0.2,0,0.5,0,0.7
			c0,0.6,0,1.2,0.1,1.7c0.2,1.2,0.5,2.3,1.1,3.3c0.3,0.6,0.7,1.3,1.2,1.8c0.4,0.6,0.9,1.1,1.5,1.6c1,0.8,2.1,1.5,3.3,2h0
			c0.3,0.1,0.6,0.2,1,0.3c0.7,0.2,1.4,0.3,2.1,0.4c0.3,0,0.7,0,1,0c0.4,0,0.7,0,1.1-0.1c5.6-0.5,10.1-5.3,10.1-11.1
			C135.7,177.9,134.8,175.4,133.1,173.4z M124.6,187.5L124.6,187.5c-0.4,0-0.7,0-1-0.1c-0.8-0.1-1.5-0.3-2.1-0.7
			c-0.4-0.2-0.8-0.4-1.1-0.7c-0.6-0.4-1.1-1-1.5-1.6c-0.4-0.6-0.8-1.3-0.9-2.1c0,0,0-0.1,0-0.1c-0.2-0.5-0.2-1.1-0.2-1.7
			c0-0.4,0-0.8,0.1-1.2c0.2-1.1,0.6-2.1,1.3-2.9c0.5-0.6,1-1.1,1.6-1.6c0.3-0.2,0.5-0.3,0.8-0.5c0.3-0.2,0.7-0.3,1-0.4
			c0.6-0.2,1.2-0.3,1.8-0.3c0.1,0,0.2,0,0.3,0c0.7,0,1.3,0.1,1.9,0.3c0.8,0.2,1.4,0.5,2.1,1c0.3,0.2,0.6,0.5,0.9,0.8
			c0.2,0.2,0.4,0.5,0.6,0.7c0.9,1.2,1.4,2.6,1.4,4.2c0,3.4-2.5,6.3-5.8,6.8C125.3,187.5,124.9,187.5,124.6,187.5z"/>
		<path class="st4" d="M47.9,179.9c-0.1-1.1-0.3-2.1-0.6-3c-0.6-1.8-1.7-3.3-3-4.5c-0.5-0.5-1.1-0.9-1.7-1.3
			c-0.6-0.4-1.2-0.7-1.9-0.9c-0.5-0.2-1.1-0.4-1.6-0.5c-0.7-0.2-1.5-0.2-2.3-0.2c-0.3,0-0.5,0-0.8,0c-0.8,0-1.6,0.2-2.4,0.4
			c-4.6,1.4-8,5.6-8,10.7c0,5.8,4.4,10.5,10.1,11.1c0.4,0,0.7,0.1,1.1,0.1c0.3,0,0.7,0,1,0c0.7-0.1,1.4-0.2,2.1-0.4
			c4.1-1.2,7.3-4.7,8-9v0c0.1-0.6,0.1-1.1,0.1-1.7C48,180.4,47.9,180.1,47.9,179.9z M43.7,180.6c0,2.7-1.5,5-3.8,6.1
			c-0.7,0.4-1.4,0.6-2.1,0.7c-0.3,0.1-0.7,0.1-1,0.1c-0.4,0-0.7,0-1.1-0.1c-1.9-0.3-3.6-1.4-4.6-2.9v0c-0.7-1.1-1.2-2.4-1.2-3.9
			c0-3.8,3.1-6.9,6.9-6.9c0.1,0,0.2,0,0.3,0c0.6,0,1.2,0.1,1.8,0.3c0.7,0.2,1.3,0.5,1.9,0.9c0.3,0.2,0.6,0.5,0.9,0.8
			c0.3,0.2,0.5,0.5,0.7,0.8c0.6,0.8,1.1,1.8,1.3,2.9C43.7,179.8,43.7,180.2,43.7,180.6z"/>
		<circle class="st3" cx="80.7" cy="130.2" r="59.5"/>
		<path class="st11" d="M134.6,114.8c0-4-0.3-8-1-11.8c-9.9-19.1-29.8-32.2-52.9-32.2c-32.8,0-59.5,26.6-59.5,59.5
			c0,23,13.1,43,32.2,52.9c3.8,0.7,7.8,1,11.8,1C103.5,184.1,134.6,153.1,134.6,114.8z"/>
		<path class="st5" d="M21.8,138.9c2.8,19.3,14.9,35.6,31.6,44.2c3.8,0.7,7.8,1,11.8,1c38.3,0,69.3-31,69.3-69.3c0-4-0.3-8-1-11.8
			c-5.4-10.4-13.8-19-24-24.7c-6.9-2.5-14.4-3.9-22.2-3.9C51.5,74.4,22.4,103.2,21.8,138.9z"/>
		<path class="st3" d="M106.6,142.8H62c-9.4,0-17-7.6-17-17v0c0-9.4,7.6-17,17-17h44.6c9.4,0,17,7.6,17,17v0
			C123.6,135.2,116,142.8,106.6,142.8z"/>
		<path class="st4" d="M140.3,114.8c-0.1-0.6-0.3-1.2-0.5-1.7c-0.2-0.7-0.4-1.5-0.7-2.2c0,0,0-0.1,0-0.1c-0.2-0.5-0.4-1.1-0.5-1.6
			c0,0,0-0.1,0-0.1c-0.4-0.9-0.7-1.9-1.1-2.8c-0.3-0.6-0.5-1.1-0.8-1.7c-9.7-21.2-31.2-35.9-56-35.9c-34,0-61.6,27.6-61.6,61.6
			c0,15.1,5.5,28.9,14.5,39.7c0.5,0.6,1,1.2,1.6,1.8c0.6,0.7,1.3,1.3,1.9,2c0.4,0.4,0.9,0.9,1.3,1.3c0.2,0.2,0.4,0.4,0.6,0.6
			c0.3,0.3,0.7,0.6,1,0.9c0.6,0.5,1.1,1,1.7,1.4c0.6,0.5,1.2,1,1.8,1.4c0.7,0.5,1.5,1.1,2.2,1.6c0.7,0.5,1.3,0.9,2,1.3v0
			c9.5,6,20.8,9.5,32.9,9.5h0.1c3.2,0,6.3-0.2,9.3-0.7c0,0,0,0,0,0c1.3-0.2,2.5-0.4,3.7-0.7c1.4-0.3,2.8-0.6,4.1-1
			c5.6-1.6,10.8-4,15.6-7.1c0.7-0.4,1.3-0.9,2-1.3c0.8-0.5,1.5-1.1,2.2-1.6c0.6-0.5,1.2-0.9,1.8-1.4c0.6-0.5,1.2-0.9,1.7-1.4
			c0.2-0.2,0.5-0.4,0.7-0.7c0.3-0.3,0.6-0.6,0.9-0.8c0.5-0.4,0.9-0.9,1.3-1.3c0.6-0.6,1.3-1.3,1.9-2c0,0,0,0,0,0
			c0.5-0.6,1.1-1.2,1.6-1.8c0.8-1,1.6-1.9,2.4-2.9c0.1-0.1,0.2-0.3,0.3-0.4c0.2-0.3,0.4-0.6,0.6-0.9c0.1-0.1,0.2-0.3,0.3-0.4
			c0,0,0-0.1,0.1-0.1c0.3-0.4,0.6-0.8,0.8-1.3c0.1-0.2,0.2-0.3,0.3-0.5c0,0,0,0,0-0.1c0.3-0.4,0.5-0.8,0.8-1.2
			c0.4-0.6,0.8-1.3,1.2-2c0.4-0.7,0.7-1.3,1.1-2c0.3-0.7,0.7-1.3,1-2c1.2-2.5,2.2-5.2,3-7.9c0.4-1.3,0.8-2.7,1.1-4.1
			c0.3-1.2,0.5-2.5,0.7-3.7c0.5-3.3,0.8-6.7,0.8-10.1C142.3,124.9,141.6,119.7,140.3,114.8z M134.4,150.3L134.4,150.3
			c-0.3,0.9-0.7,1.7-1,2.5c-0.3,0.7-0.6,1.4-0.9,2.1c-0.3,0.7-0.7,1.3-1,2c-0.6,1.1-1.2,2.2-1.9,3.3c0,0,0,0.1-0.1,0.1c0,0,0,0,0,0
			c-0.4,0.6-0.7,1.2-1.1,1.7c0,0,0,0.1-0.1,0.1c-0.1,0.1-0.1,0.2-0.2,0.3c-0.3,0.5-0.6,0.9-1,1.4c0,0,0,0.1-0.1,0.1
			c-1.5,2-3,3.9-4.7,5.7c-0.4,0.4-0.8,0.8-1.2,1.2c-0.3,0.3-0.6,0.6-0.8,0.8c-0.2,0.2-0.5,0.4-0.7,0.7c-0.5,0.5-1.1,1-1.6,1.4
			c-1.2,1.1-2.5,2.1-3.8,3c-2.7,2-5.6,3.7-8.7,5.1c-1.7,0.8-3.5,1.6-5.3,2.2c-1.5,0.5-2.9,1-4.5,1.4c-4.8,1.3-9.8,2-14.9,2
			c-4,0-8-0.4-11.8-1.2h0c-2.9-0.6-5.6-1.4-8.3-2.4c-4.8-1.8-9.2-4.2-13.3-7.1c-1.3-0.9-2.6-1.9-3.8-3c-0.5-0.5-1.1-0.9-1.6-1.4
			c-0.5-0.5-1-1-1.6-1.5c-0.4-0.4-0.8-0.8-1.2-1.2c-9.7-10.3-15.7-24.2-15.7-39.5c0-1.8,0.1-3.7,0.3-5.4v0
			c2.8-29.1,27.3-51.9,57.1-51.9c5.2,0,10.3,0.7,15.1,2c0,0,0,0,0,0c16.8,4.6,30.5,16.6,37.4,32.3c0.2,0.5,0.5,1.1,0.7,1.7v0
			c0.2,0.4,0.3,0.8,0.5,1.2c0,0,0,0.1,0,0.1c0,0.1,0.1,0.2,0.1,0.3c0.2,0.4,0.3,0.9,0.5,1.3c0,0.1,0.1,0.2,0.1,0.3
			c0.1,0.3,0.2,0.6,0.3,0.8c0.2,0.6,0.4,1.2,0.5,1.8c1.4,4.9,2.1,10.1,2.1,15.4c0,5.4-0.8,10.7-2.2,15.6
			C135.4,147.4,135,148.9,134.4,150.3z"/>
		<path class="st12" d="M103,139.2H58.4c-9.4,0-17-7.6-17-17v0c0-9.4,7.6-17,17-17H103c9.4,0,17,7.6,17,17v0
			C120,131.6,112.4,139.2,103,139.2z"/>
		<path class="st4" d="M121.6,117.9L121.6,117.9c-2-8.4-9.6-14.8-18.6-14.8H58.4c-10.5,0-19.1,8.6-19.1,19.1c0,9,6.3,16.6,14.7,18.6
			h0c1.4,0.3,2.9,0.5,4.4,0.5H103c10.5,0,19.1-8.6,19.1-19.1C122.1,120.7,122,119.3,121.6,117.9z M103,137.1H58.4
			c-5.6,0-10.5-3.1-13-7.7c-1.2-2.1-1.8-4.6-1.8-7.2c0-8.2,6.7-14.9,14.9-14.9H103c2.6,0,5,0.7,7.2,1.8c4.6,2.5,7.7,7.4,7.7,13
			C117.9,130.5,111.2,137.1,103,137.1z"/>
		<circle class="st4" cx="98.9" cy="122.3" r="7.3"/>
		<circle class="st4" cx="62.4" cy="122.3" r="7.3"/>
		<circle class="st13" cx="60.6" cy="120.4" r="1.8"/>
		<circle class="st13" cx="97.1" cy="120.4" r="1.8"/>
		<circle class="st13" cx="53" cy="91.3" r="4.5"/>
		<circle class="st13" cx="60.6" cy="95" r="2.7"/>
		<g>
			<circle class="st14" cx="67.4" cy="206.1" r="4.5"/>
			<path class="st4" d="M73.7,204c-0.9-2.6-3.3-4.5-6.2-4.5c-3.6,0-6.6,2.9-6.6,6.6c0,3,2,5.5,4.7,6.3c0.6,0.2,1.3,0.3,1.9,0.3
				c0.3,0,0.6,0,0.8-0.1c0.4,0,0.7-0.1,1.1-0.2c2-0.6,3.6-2.2,4.3-4.2c0.1-0.4,0.2-0.8,0.3-1.2c0-0.3,0.1-0.6,0.1-0.9
				C74,205.4,73.9,204.7,73.7,204z M67.4,203.8c1.3,0,2.3,1,2.3,2.3s-1,2.3-2.3,2.3c-1.3,0-2.3-1.1-2.3-2.3S66.1,203.8,67.4,203.8z"
				/>
		</g>
		<g>
			<circle class="st14" cx="94" cy="206.1" r="4.5"/>
			<path class="st4" d="M100.5,205.6c-0.1-0.8-0.3-1.7-0.7-2.4c-0.3-0.7-0.7-1.3-1.3-1.8c-1.2-1.2-2.8-1.9-4.6-1.9
				c-2.9,0-5.4,1.9-6.2,4.5c-0.2,0.7-0.4,1.4-0.4,2.1s0.1,1.5,0.4,2.1c0.3,0.9,0.8,1.8,1.5,2.5c0.5,0.5,1.1,1,1.7,1.3
				c0.3,0.2,0.7,0.3,1.1,0.4c0.4,0.1,0.8,0.2,1.3,0.2c0.2,0,0.4,0,0.6,0c0.7,0,1.3-0.1,1.9-0.3c2.7-0.8,4.7-3.4,4.7-6.3
				C100.5,206,100.5,205.8,100.5,205.6z M94.7,208.4c-0.2,0.1-0.4,0.1-0.7,0.1c-0.7,0-1.3-0.3-1.7-0.7c-0.4-0.4-0.6-1-0.6-1.6
				c0-1.3,1.1-2.3,2.3-2.3c0.6,0,1.2,0.2,1.6,0.7c0.4,0.4,0.7,1,0.7,1.7c0,0.3,0,0.5-0.1,0.7C95.9,207.6,95.4,208.2,94.7,208.4z"/>
		</g>
		<g>
			<rect x="72.2" y="204" class="st4" width="17" height="4.2"/>
		</g>
		<circle class="st15" cx="149.4" cy="144.9" r="1.7"/>
		<circle class="st15" cx="145.3" cy="149" r="1.7"/>
		<circle class="st15" cx="141.2" cy="153" r="1.7"/>
	</g>
</g>
</svg>
