<?xml version="1.0" encoding="utf-8"?>
<!-- Generator: Adobe Illustrator 22.1.0, SVG Export Plug-In . SVG Version: 6.00 Build 0)  -->
<svg version="1.1" id="レイヤー_1" xmlns="http://www.w3.org/2000/svg" xmlns:xlink="http://www.w3.org/1999/xlink" x="0px"
	 y="0px" viewBox="0 0 906.7 305" style="enable-background:new 0 0 906.7 305;" xml:space="preserve">
<style type="text/css">
	.st0{fill:#28A5D0;}
	.st1{fill:#003D51;}
	.st2{fill:#2FBDF0;}
	.st3{fill:#D9D9DA;}
	.st4{fill:#BFD500;}
	.st5{fill:#9DC3D7;}
	.st6{fill:#01647F;}
	.st7{fill:#0F7595;}
	.st8{fill:#D6EEFB;}
	.st9{fill:#E6F4FD;}
	.st10{fill:#FFFFFF;}
	.st11{fill:#B5E1F8;}
	.st12{fill:#EEF5E3;}
</style>
<g>
	<g>
		<g>
			<path class="st0" d="M272.8,64.1c-6-5-14.3-10.3-21.5-7.9c-5.8,1.9-7.1,7.5-12.7,13.2c-4.8,5-13.3,10.5-28.9,12.1
				c3.3,0.9,8.5,1.8,14.9,1.2c3.2-0.3,9.9-1,16.6-5c8.1-4.9,7.9-9.7,14.6-12.9C259.3,63.2,264.7,62,272.8,64.1z"/>
			<path class="st1" d="M220.7,86.2c-4,0-7.9-0.5-11.8-1.5c-1.5-0.4-2.6-1.9-2.4-3.4c0.1-1.6,1.4-2.9,3-3
				c11.8-1.2,20.9-4.9,26.9-11.1c1.9-1.9,3.2-3.9,4.6-5.7c2.5-3.5,4.8-6.8,9.5-8.3c6.9-2.3,15.1,0.6,24.6,8.5c1.2,1,1.5,2.7,0.8,4
				c-0.7,1.4-2.3,2.1-3.8,1.7c-5.8-1.5-10.8-1.3-14.8,0.5c-2.7,1.3-3.9,2.8-5.6,4.9c-1.8,2.3-4.1,5.1-8.7,7.8
				c-7.5,4.5-14.8,5.2-18,5.5C223.6,86.1,222.1,86.2,220.7,86.2z M255.1,58.9c-1,0-1.9,0.1-2.7,0.4c-2.5,0.8-3.8,2.6-6.1,5.9
				c-1.4,2-3,4.2-5.2,6.5c-2.2,2.3-4.8,4.3-7.6,6c2-0.7,4-1.6,6.1-2.8c3.6-2.2,5.2-4.2,7-6.4c1.9-2.3,3.9-4.8,7.9-6.7
				c1.8-0.9,3.8-1.5,5.9-1.8C258.4,59.3,256.7,58.9,255.1,58.9z"/>
		</g>
		<g>
			<path class="st2" d="M280.7,28.1c-10.7-6.5-23.8-12.3-32.1-7.2c-7.4,4.6-5.8,14.8-11.6,27.8c-4.2,9.5-12.7,21.1-31.2,31.4
				c4.8-0.6,12.2-2.2,20.1-6.4c4.9-2.6,14.3-8.6,21.4-19.6c7.2-11.1,5.3-16.7,11.7-21.9C265.6,26.9,274.6,27.2,280.7,28.1z"/>
			<path class="st1" d="M205.8,83.4c-1.4,0-2.7-0.9-3.1-2.3c-0.5-1.5,0.2-3.1,1.5-3.9c14.5-8,24.5-18.1,29.8-29.8
				c2.1-4.8,3.2-9.3,4.2-13.3c1.6-6.7,3-12.4,8.7-16c7.9-4.9,19.5-2.6,35.6,7.1c1.3,0.8,1.9,2.5,1.4,3.9c-0.5,1.5-2,2.4-3.6,2.1
				c-8.3-1.3-14.8-0.1-19.1,3.3c-2.8,2.2-3.6,4.5-4.9,8.2c-1.2,3.4-2.7,7.6-6.2,13c-7,10.9-16.2,17.3-22.6,20.7
				c-6.6,3.5-13.7,5.8-21.3,6.8C206.1,83.3,205.9,83.4,205.8,83.4z M256.2,22.3c-2.3,0-4.3,0.5-5.9,1.5c-3.2,2-4.2,5.5-5.8,11.9
				c-1,4.2-2.2,9-4.6,14.4c-3.3,7.4-8.3,14.2-14.8,20.2c5.7-3.2,13.4-8.8,19.4-18.1c3.1-4.7,4.3-8.4,5.5-11.6
				c1.5-4.1,2.7-7.7,7-11.1c2.9-2.3,6.4-3.9,10.4-4.7C263.1,23.1,259.3,22.3,256.2,22.3z"/>
		</g>
		<g>
			
				<rect x="69.8" y="221.5" transform="matrix(0.7115 -0.7027 0.7027 0.7115 -121.1619 172.7869)" class="st3" width="160.1" height="24.9"/>
			<path class="st1" d="M101.8,298.3c-4,0-8-1.5-11-4.6l-2.9-2.9c-0.3-0.3-0.6-0.7-0.8-1.1c-3.7-6.9-2.5-14.5,2.4-19.3l97.6-96.4
				c2.9-2.9,6.8-4.5,10.9-4.5h4.8c1.1,0,2.1,0.4,2.8,1.2l12,11.8c2.5,5-1.3,8.8-7.4,14.8l-97.6,96.4
				C109.6,296.8,105.7,298.3,101.8,298.3z M197.9,177.6c-2,0-3.8,0.8-5.2,2.2l-97.6,96.4c-2.4,2.4-3,6.2-1,9.6l2.3,2.4
				c2.9,2.9,7.6,3,10.6,0.1l97.6-96.4c2.9-2.9,6.5-6.5,6.5-6.5l-10-7.7H197.9z"/>
		</g>
		<g>
			<path class="st4" d="M253.3,149.2l-27,26.7c-4.9,4.8-12.8,4.8-17.6-0.1l0,0c-4.8-4.9-4.8-12.8,0.1-17.6l27-26.7
				c4.9-4.8,12.8-4.8,17.6,0.1l0,0C258.3,136.5,258.2,144.4,253.3,149.2z"/>
			<path class="st1" d="M217.6,183.5c-4.2,0-8.5-1.6-11.7-4.9c-6.4-6.5-6.3-16.9,0.1-23.3l27-26.7c6.5-6.4,16.9-6.3,23.3,0.1
				c6.4,6.5,6.3,16.9-0.1,23.3h0l-27,26.7C225.9,181.9,221.7,183.5,217.6,183.5z M244.6,131.9c-2.1,0-4.3,0.8-5.9,2.4l-27,26.7
				c-3.3,3.3-3.4,8.6-0.1,12c3.3,3.3,8.6,3.4,12,0.1l27-26.7h0c3.3-3.3,3.4-8.6,0.1-12C249,132.8,246.8,131.9,244.6,131.9z"/>
		</g>
		<g>
			<path class="st5" d="M220.3,191.1L193.6,164c-2.9-2.9-2.8-7.6,0.1-10.4v0c2.9-2.9,7.6-2.8,10.4,0.1l26.8,27.1
				c2.9,2.9,2.8,7.6-0.1,10.4l0,0C227.9,194,223.2,194,220.3,191.1z"/>
			<path class="st1" d="M225.6,197.3c-2.9,0-5.9-1.1-8.1-3.4l-26.8-27.1c-4.4-4.5-4.4-11.7,0.1-16.1c4.5-4.4,11.7-4.4,16.1,0.1
				l26.8,27.1c2.1,2.2,3.3,5,3.3,8.1c0,3-1.2,5.9-3.4,8C231.4,196.2,228.5,197.3,225.6,197.3z M198.8,155.4c-0.9,0-1.7,0.3-2.4,1
				c-1.3,1.3-1.3,3.5,0,4.8l26.8,27.1c0.6,0.6,1.5,1,2.4,1c0.9,0,1.8-0.3,2.4-1c0.6-0.6,1-1.5,1-2.4c0-0.9-0.3-1.8-1-2.4l-26.8-27.1
				C200.6,155.8,199.7,155.4,198.8,155.4z"/>
		</g>
		<g>
			<circle class="st6" cx="51.7" cy="284.3" r="16.8"/>
			<path class="st7" d="M65.6,274.9c2.6,3.9,3.4,8.5,2.5,12.8c-0.5,0.4-1,0.8-1.5,1.2c-7.7,5.2-18.2,3.1-23.4-4.6
				c-2.6-3.9-3.4-8.5-2.5-12.8c0.5-0.4,1-0.8,1.5-1.2C50,265.1,60.4,267.2,65.6,274.9z"/>
			<path class="st1" d="M34.4,295.8L34.4,295.8c-6.4-9.5-3.9-22.5,5.7-28.8c9.5-6.4,22.5-3.9,28.8,5.7c6.4,9.5,3.9,22.5-5.7,28.8
				c-3.5,2.4-7.6,3.5-11.6,3.5C45,305,38.4,301.8,34.4,295.8z M44.5,273.6c-5.9,4-7.5,12-3.5,17.9l0,0c4,5.9,12,7.5,17.9,3.5
				c5.9-4,7.5-12,3.5-17.9c-2.5-3.7-6.6-5.7-10.7-5.7C49.2,271.4,46.7,272.1,44.5,273.6z"/>
			<circle class="st6" cx="177.9" cy="284.3" r="16.8"/>
			<path class="st7" d="M163.9,274.9c-2.6,3.9-3.4,8.5-2.5,12.8c0.5,0.4,1,0.8,1.5,1.2c7.7,5.2,18.2,3.1,23.4-4.6
				c2.6-3.9,3.4-8.5,2.5-12.8c-0.5-0.4-1-0.8-1.5-1.2C179.6,265.1,169.1,267.2,163.9,274.9z"/>
			<path class="st1" d="M177.9,305c-4,0-8-1.1-11.6-3.5c-9.5-6.4-12.1-19.3-5.7-28.8c6.4-9.5,19.3-12,28.8-5.7
				c9.5,6.4,12.1,19.3,5.7,28.8l0,0C191.1,301.8,184.6,305,177.9,305z M177.9,271.4c-4.1,0-8.2,2-10.7,5.7c-4,5.9-2.4,13.9,3.5,17.9
				c5.9,4,13.9,2.4,17.9-3.5l0,0c4-5.9,2.4-13.9-3.5-17.9C182.9,272.1,180.4,271.4,177.9,271.4z"/>
		</g>
		<g>
			<path class="st2" d="M123.2,297.2h-16.8c-39.6,0-71.6-32.1-71.6-71.6v0c0-39.6,32.1-71.6,71.6-71.6h16.8
				c39.6,0,71.6,32.1,71.6,71.6v0C194.8,265.2,162.7,297.2,123.2,297.2z"/>
			<path class="st1" d="M123.2,301.1h-16.8c-41.6,0-75.5-33.9-75.5-75.5s33.9-75.5,75.5-75.5h16.8c41.6,0,75.5,33.9,75.5,75.5
				S164.8,301.1,123.2,301.1z M106.4,157.8c-37.4,0-67.8,30.4-67.8,67.8s30.4,67.8,67.8,67.8h16.8c37.4,0,67.8-30.4,67.8-67.8
				s-30.4-67.8-67.8-67.8H106.4z"/>
		</g>
		<path class="st0" d="M106.2,152.4c-21.5,0-40.8,9.3-54.2,24c18.6,34.9,55.4,58.7,97.8,58.7c16.7,0,32.5-3.7,46.7-10.3
			c-0.4-40.1-33-72.4-73.2-72.4H106.2z"/>
		<circle class="st6" cx="196.6" cy="208.6" r="16.8"/>
		<path class="st7" d="M179.7,208.6c0,0.4,0,0.7,0.1,1.1c2.7,1.8,5.9,2.8,9.4,2.8c9.3,0,16.8-7.5,16.8-16.8c0-0.4,0-0.7-0.1-1.1
			c-2.7-1.8-5.9-2.8-9.4-2.8C187.3,191.8,179.7,199.3,179.7,208.6z"/>
		<circle class="st7" cx="33" cy="208.6" r="16.8"/>
		<path class="st6" d="M22.4,216c0,2.3,0.5,4.6,1.3,6.6c2.7,1.8,5.9,2.8,9.3,2.8c9.3,0,16.8-7.5,16.8-16.8c0-2.3-0.5-4.6-1.3-6.6
			c-2.7-1.8-5.9-2.8-9.3-2.8C29.9,199.2,22.4,206.7,22.4,216z"/>
		<path class="st1" d="M196.6,229.4c-11.5,0-20.8-9.3-20.8-20.8c0-11.5,9.3-20.8,20.8-20.8s20.8,9.3,20.8,20.8
			C217.3,220.1,208,229.4,196.6,229.4z M196.6,195.7c-7.1,0-12.9,5.8-12.9,12.9s5.8,12.9,12.9,12.9s12.9-5.8,12.9-12.9
			S203.7,195.7,196.6,195.7z"/>
		<path class="st1" d="M33,229.4c-11.5,0-20.8-9.3-20.8-20.8c0-11.5,9.3-20.8,20.8-20.8s20.8,9.3,20.8,20.8
			C53.8,220.1,44.5,229.4,33,229.4z M33,195.7c-7.1,0-12.9,5.8-12.9,12.9s5.8,12.9,12.9,12.9s12.9-5.8,12.9-12.9
			S40.1,195.7,33,195.7z"/>
		<circle class="st0" cx="114.8" cy="114.8" r="110.8"/>
		<path class="st8" d="M215.2,86c0-7.5-0.6-14.9-1.9-22c-18.4-35.6-55.6-60-98.5-60C53.6,4,4,53.6,4,114.8c0,42.9,24.4,80.1,60,98.5
			c7.2,1.2,14.5,1.9,22,1.9C157.3,215.2,215.2,157.3,215.2,86z"/>
		<path class="st2" d="M5.1,130.9c5.3,35.9,27.7,66.3,58.8,82.3c7.2,1.2,14.5,1.9,22,1.9c71.3,0,129.2-57.8,129.2-129.2
			c0-7.5-0.6-14.9-1.9-22c-10-19.4-25.6-35.4-44.7-46c-12.9-4.7-26.9-7.2-41.4-7.2C60.4,10.7,6.1,64.4,5.1,130.9z"/>
		<path class="st0" d="M163,138.2H79.9c-17.5,0-31.7-14.2-31.7-31.7v0c0-17.5,14.2-31.7,31.7-31.7H163c17.5,0,31.7,14.2,31.7,31.7v0
			C194.7,124.1,180.5,138.2,163,138.2z"/>
		<path class="st1" d="M114.8,229.6C51.5,229.6,0,178.1,0,114.8S51.5,0,114.8,0c63.3,0,114.8,51.5,114.8,114.8
			S178.1,229.6,114.8,229.6z M114.8,7.9C55.9,7.9,7.9,55.9,7.9,114.8s47.9,106.9,106.9,106.9c58.9,0,106.9-47.9,106.9-106.9
			S173.7,7.9,114.8,7.9z"/>
		<path class="st9" d="M156.3,131.6H73.2c-17.5,0-31.7-14.2-31.7-31.7v0c0-17.5,14.2-31.7,31.7-31.7h83.1
			c17.5,0,31.7,14.2,31.7,31.7v0C188,117.4,173.8,131.6,156.3,131.6z"/>
		<path class="st1" d="M156.3,135.5H73.2c-19.6,0-35.6-16-35.6-35.6c0-19.6,16-35.6,35.6-35.6h83.1c19.6,0,35.6,16,35.6,35.6
			C192,119.5,176,135.5,156.3,135.5z M73.2,72.2c-15.3,0-27.7,12.4-27.7,27.7c0,15.3,12.4,27.7,27.7,27.7h83.1
			c15.3,0,27.7-12.4,27.7-27.7c0-15.3-12.4-27.7-27.7-27.7H73.2z"/>
		<circle class="st1" cx="148.8" cy="99.9" r="13.6"/>
		<circle class="st1" cx="80.8" cy="99.9" r="13.6"/>
		<circle class="st10" cx="77.4" cy="96.5" r="3.4"/>
		<circle class="st10" cx="145.4" cy="96.5" r="3.4"/>
		<circle class="st10" cx="63.1" cy="42.2" r="8.3"/>
		<circle class="st10" cx="77.4" cy="49.1" r="4.9"/>
		<g>
			<circle class="st11" cx="90.1" cy="256.2" r="8.3"/>
			<path class="st1" d="M90.1,268.5c-6.8,0-12.3-5.5-12.3-12.3s5.5-12.3,12.3-12.3s12.3,5.5,12.3,12.3S96.8,268.5,90.1,268.5z
				 M90.1,251.9c-2.4,0-4.4,2-4.4,4.4c0,2.4,2,4.4,4.4,4.4c2.4,0,4.4-2,4.4-4.4C94.4,253.8,92.5,251.9,90.1,251.9z"/>
		</g>
		<g>
			<circle class="st11" cx="139.5" cy="256.2" r="8.3"/>
			<path class="st1" d="M139.5,268.5c-6.8,0-12.3-5.5-12.3-12.3s5.5-12.3,12.3-12.3s12.3,5.5,12.3,12.3S146.3,268.5,139.5,268.5z
				 M139.5,251.9c-2.4,0-4.4,2-4.4,4.4c0,2.4,2,4.4,4.4,4.4c2.4,0,4.4-2,4.4-4.4C143.9,253.8,141.9,251.9,139.5,251.9z"/>
		</g>
		<g>
			<rect x="98.9" y="252.2" class="st1" width="31.7" height="7.9"/>
		</g>
		<circle class="st12" cx="242.8" cy="142.1" r="3.2"/>
		<circle class="st12" cx="235.2" cy="149.7" r="3.2"/>
		<circle class="st12" cx="227.6" cy="157.2" r="3.2"/>
	</g>
	<g>
		<path class="st2" d="M383.9,208.5c-5.1,0-9.3-4.1-9.3-9.2l0-28.7c0-4.8-3.9-8.7-8.7-8.7h-26.8c-4.8,0-8.7,3.9-8.7,8.7v28.6
			c0,5.1-4.2,9.3-9.3,9.3s-9.3-4.2-9.3-9.3v-93.3c0-5.1,4.2-9.3,9.3-9.3s9.3,4.2,9.3,9.3v28.6c0,4.8,3.9,8.7,8.7,8.7h26.8
			c4.8,0,8.7-3.9,8.7-8.7l0-28.7c0-5.1,4.2-9.2,9.3-9.2c5.1,0,9.3,4.2,9.3,9.3v93.3C393.2,204.3,389,208.5,383.9,208.5z"/>
		<g>
			<path class="st2" d="M560,208.5c-5.1,0-9.3-4.4-9.3-9.8v-57.9c0-5.4,4.2-9.8,9.3-9.8c5.1,0,9.3,4.4,9.3,9.8v57.9
				C569.3,204.1,565.1,208.5,560,208.5z"/>
			<circle class="st2" cx="560" cy="105.9" r="9.3"/>
			<circle class="st2" cx="560" cy="105.9" r="9.3"/>
		</g>
		<g>
			<circle class="st2" cx="427.1" cy="105.9" r="9.3"/>
			<path class="st2" d="M436.5,140.8c0-5.4-4.2-9.8-9.3-9.8c-5.1,0-9.3,4.4-9.3,9.8v57.9c0,0.1,0,0.2,0,0.2c0,0.1,0,0.2,0,0.2
				c0,5.1,4.2,9.3,9.3,9.3c5.1,0,9.3-4.2,9.3-9.3c0-0.1,0-0.2,0-0.2c0-0.1,0-0.2,0-0.2V140.8z"/>
		</g>
		<path class="st2" d="M497.1,131c-4.8,0-9,3.9-9.3,8.7c-0.3,4.9,3.4,9.3,8.2,9.9c1.2,0.1,2.5,0,3.7,0.2c1.2,0.2,2.4,0.4,3.5,0.8
			c2.3,0.7,4.4,1.8,6.3,3.3c3.7,2.9,6.3,7.1,7.3,11.7c2,9.5-3.3,19.3-12.3,22.9c-9.2,3.6-19.9-0.2-24.8-8.7c-1.2-2.1-2-4.4-2.4-6.8
			c-0.2-1.5-0.1-67.1-0.3-68.6c-0.8-4.7-5.2-8.2-10-7.8c-4.8,0.4-8.5,4.5-8.6,9.3c0,2.7,0,63.1,0,63.9c0,6,1.4,11.9,4.1,17.3
			c5.4,10.7,15.7,18.5,27.5,20.8c10,1.9,20.5-0.3,28.9-6c7.7-5.2,13.4-13.2,15.8-22.2c2.5-9.4,1.3-19.5-3.3-28.1
			c-4.4-8.2-11.8-14.7-20.5-18C506.4,131.9,501.8,131,497.1,131z"/>
		<path class="st2" d="M769.3,169.7c0-0.2,0-0.3,0-0.5v-28.5c0-5.4-4.2-9.8-9.3-9.8c-3.9,0-7.2,2.5-8.6,6.1
			c-6-3.8-13.1-6.1-20.8-6.1c-20.2,0-36.9,15.6-38.6,35.4c-0.1,1.1-0.2,2.2-0.2,3.3c0,1.1,0,2.2,0.2,3.3
			c1.7,19.8,18.4,35.5,38.6,35.5c7.6,0,14.8-2.2,20.8-6.1c1.4,3.6,4.7,6.1,8.6,6.1c5.1,0,9.3-4.4,9.3-9.8v-28
			C769.3,170.4,769.3,170.1,769.3,169.7z M750.6,170.6c0,0.3,0,0.6-0.1,0.9c-0.9,10.3-9.5,18.4-20,18.4c-10.5,0-19.1-8.1-20-18.4
			c-0.1-0.6-0.1-1.1-0.1-1.7c0-0.6,0-1.2,0.1-1.7c0.9-10.3,9.5-18.4,20-18.4c10.5,0,19.1,8.1,20,18.4c0.1,0.6,0.1,1.1,0.1,1.7
			C750.6,170,750.6,170.3,750.6,170.6z"/>
		<path class="st2" d="M831.3,139.5c-0.4-4.8-4.4-8.5-9.3-8.5c-0.2,0-0.3,0-0.5,0c-7.5,0.1-14.4,2.3-20.3,6
			c-1.4-3.5-4.7-6.1-8.6-6.1c-5.1,0-9.3,4.4-9.3,9.8v27.9c0,0,0,0,0,0v0.4c0,0.2,0,0.4,0,0.6c0,0.1,0,0.2,0,0.2v28.7c0,0,0,0,0,0v0
			c0,4.4,2.8,8.1,6.6,9.3c0.9,0.3,1.8,0.4,2.8,0.4c2,0,3.9-0.7,5.4-1.8c2.4-1.8,3.9-4.7,3.9-7.9v0c0,0,0,0,0,0v-29.9c0,0,0,0,0,0
			v-0.3c0.6-10.3,9.1-18.5,19.5-18.8c0.2,0,0.4,0,0.6,0c0.2,0,0.4,0,0.6,0c4.6-0.3,8.3-3.9,8.7-8.5c0-0.1,0-0.3,0-0.4
			c0-0.1,0-0.3,0-0.4C831.4,140.1,831.4,139.8,831.3,139.5z"/>
		<path class="st2" d="M897.3,131c-4.3,0-7.9,3.1-9,7.2c-0.7,2.5-0.3,5.4-0.3,8c0,3.4,0,6.7,0,10.1c0,5.6,0,11.3,0,16.9
			c0,1.3,0.1,2.6,0,3.9c-0.2,4.1-2.4,8-5.8,10.3c-7.2,5.1-17.5,1.9-20.6-6.4c-0.7-2-0.9-4-0.9-6.1c0-2.2,0-4.4,0-6.6
			c0-9.1,0-18.2,0-27.2c0-3.7-1.8-7.3-5.3-9.1c-3.7-1.9-8.3-0.9-11,2.3c-3,3.4-2.4,7.9-2.4,12.1c0,9.9,0,19.7,0,29.6
			c0,9.1,3.7,17.8,10.4,24c7.7,7.1,18.7,10.1,29,7.7c2.5-0.6,5-1.5,7.4-2.7c0.1-0.1,0.8-0.5,0.9-0.5c0.1,0,0.4,0.5,0.5,0.7
			c0.4,0.4,0.7,0.8,1.2,1.2c0.9,0.8,1.9,1.3,3.1,1.7c4.2,1.4,8.7-0.6,10.8-4.4c1.6-2.9,1.3-6.3,1.3-9.4c0-10.9,0-21.9,0-32.8
			c0-5.1,0-10.1,0-15.2c0-2.7,0.4-5.9-0.5-8.5C904.9,133.9,901.4,131,897.3,131z"/>
		<g>
			<path class="st2" d="M642.8,157.5c-0.4-7.7-3.9-14.6-9.4-19.4c-1.9-1.7-4.1-3.1-6.4-4.3c-3.7-1.8-7.8-2.8-12.2-2.8h-0.2
				c-4.4,0-8.5,1-12.2,2.8c-2.3,1.1-4.5,2.6-6.4,4.3c-5.4,4.8-8.9,11.7-9.4,19.4c0,0.5,0,1,0,1.5v39.7c0,5.3,4,9.6,9,9.8
				c0.2,0,0.3,0,0.4,0c0,0,0,0,0,0c0.1,0,0.2,0,0.3,0c4.4-0.1,8.1-3.5,8.9-8c0.1-0.6,0.2-1.2,0.2-1.8V159c0-0.3,0-0.5,0-0.8
				c0.4-4.5,3.9-8,8.4-8.5c0.2,0,0.3,0,0.5,0s0.3,0,0.5,0c0.1,0,0.2,0,0.3,0c0.2,0,0.3,0,0.5,0c4.5,0.4,8,4,8.4,8.5
				c0,0.3,0,0.5,0,0.8v39.7c0,0.6,0.1,1.2,0.2,1.8c0.8,4.4,4.4,7.8,8.9,8c0.2,0,0.3,0,0.5,0c0.1,0,0.2,0,0.3,0c5-0.2,9-4.5,9-9.8
				V159C642.9,158.5,642.8,158,642.8,157.5z"/>
			<path class="st4" d="M664.2,133.8c-3.5-1.7-7.5-2.7-11.6-2.8c-0.2,0-0.3,0-0.5,0s-0.3,0-0.5,0c-4.5,0.2-8.1,3.6-8.7,7.9
				c-0.1,0.4-0.1,0.9-0.1,1.4c0,0.5,0,0.9,0.1,1.4c0.7,4.5,4.5,7.9,9.2,7.9h0.1c4.8,0,8.8,3.8,9.2,8.5c0,0.3,0,0.5,0,0.8v39.7
				c0,5.4,4.2,9.8,9.3,9.8c4.8,0,8.8-3.9,9.3-8.8c0-0.3,0-0.7,0-1V159C680,147.9,673.5,138.3,664.2,133.8z M659.8,145.5
				C659.8,145.5,659.8,145.6,659.8,145.5C659.8,145.6,659.8,145.5,659.8,145.5z"/>
		</g>
	</g>
</g>
</svg>
