<?xml version="1.0" encoding="utf-8"?>
<!-- Generator: Adobe Illustrator 23.0.1, SVG Export Plug-In . SVG Version: 6.00 Build 0)  -->
<svg version="1.1" id="レイヤー_1" xmlns="http://www.w3.org/2000/svg" xmlns:xlink="http://www.w3.org/1999/xlink" x="0px"
	 y="0px" viewBox="0 0 167.4 82.1" style="enable-background:new 0 0 167.4 82.1;" xml:space="preserve">
<style type="text/css">
	.st0{fill:#00E4FF;}
</style>
<path class="st0" d="M96.4,81.1L158.9,52l0,0l0.3-0.1c0.2-0.1,0.4-0.2,0.6-0.4c4.4-1.4,7.6-5.5,7.6-10.4l0,0c0-4.7-2.9-8.6-7-10.2
	c-0.1-0.1-0.2-0.2-0.4-0.2l-1.1-0.5l0,0L96.4,1C91-1.5,84.5,0.8,81.9,6.3l0,0c-2.5,5.4-0.2,11.9,5.3,14.5l20.2,9.4l0,0H10.9
	C4.9,30.2,0,35,0,41l0,0c0,6,4.9,10.9,10.9,10.9h96.5l0,0l-20.2,9.4c-5.4,2.5-7.8,9-5.3,14.5l0,0C84.5,81.2,90.9,83.6,96.4,81.1z"/>
</svg>
