<?xml version="1.0" encoding="utf-8"?>
<!-- Generator: Adobe Illustrator 23.0.2, SVG Export Plug-In . SVG Version: 6.00 Build 0)  -->
<svg version="1.1" id="レイヤー_1" xmlns="http://www.w3.org/2000/svg" xmlns:xlink="http://www.w3.org/1999/xlink" x="0px"
	 y="0px" viewBox="0 0 167.4 82.1" style="enable-background:new 0 0 167.4 82.1;" xml:space="preserve">
<style type="text/css">
	.st0{fill:#B1E44C;}
</style>
<path class="st0" d="M71,1L8.5,30.1l0,0l-0.3,0.1c-0.2,0.1-0.4,0.2-0.6,0.4C3.2,32,0,36.1,0,41l0,0c0,4.7,2.9,8.6,7,10.2
	c0.1,0.1,0.2,0.2,0.4,0.2l1.1,0.5l0,0L71,81.1c5.4,2.5,11.9,0.2,14.5-5.3l0,0c2.5-5.4,0.2-11.9-5.3-14.5L60,51.9l0,0h96.5
	c6,0,10.9-4.8,10.9-10.8l0,0c0-6-4.9-10.9-10.9-10.9H60l0,0l20.2-9.4c5.4-2.5,7.8-9,5.3-14.5l0,0C82.9,0.9,76.5-1.5,71,1z"/>
</svg>
