<svg id="グループ_308" data-name="グループ 308" xmlns="http://www.w3.org/2000/svg" xmlns:xlink="http://www.w3.org/1999/xlink" width="987.13" height="363.635" viewBox="0 0 987.13 363.635">
  <defs>
    <clipPath id="clip-path">
      <rect id="長方形_1682" data-name="長方形 1682" width="987.13" height="363.635" fill="none"/>
    </clipPath>
    <clipPath id="clip-path-2">
      <rect id="長方形_1681" data-name="長方形 1681" width="987.129" height="363.635" fill="none"/>
    </clipPath>
    <clipPath id="clip-path-3">
      <rect id="長方形_1648" data-name="長方形 1648" width="721.388" height="360.695" fill="none"/>
    </clipPath>
    <clipPath id="clip-path-4">
      <rect id="長方形_1657" data-name="長方形 1657" width="63.015" height="5.879" fill="none"/>
    </clipPath>
    <clipPath id="clip-path-5">
      <rect id="長方形_1658" data-name="長方形 1658" width="81.369" height="5.879" fill="none"/>
    </clipPath>
    <clipPath id="clip-path-7">
      <rect id="長方形_1660" data-name="長方形 1660" width="22.948" height="5.879" fill="none"/>
    </clipPath>
    <clipPath id="clip-path-8">
      <rect id="長方形_1661" data-name="長方形 1661" width="47.015" height="5.879" fill="none"/>
    </clipPath>
    <clipPath id="clip-path-9">
      <rect id="長方形_1662" data-name="長方形 1662" width="72.685" height="5.879" fill="none"/>
    </clipPath>
  </defs>
  <g id="グループ_307" data-name="グループ 307" clip-path="url(#clip-path)">
    <g id="グループ_306" data-name="グループ 306">
      <g id="グループ_305" data-name="グループ 305" clip-path="url(#clip-path-2)">
        <g id="グループ_286" data-name="グループ 286" transform="translate(227.771)" opacity="0.2">
          <g id="グループ_285" data-name="グループ 285">
            <g id="グループ_284" data-name="グループ 284" clip-path="url(#clip-path-3)">
              <path id="パス_927" data-name="パス 927" d="M748.138,0c-199.207,0-360.7,161.489-360.7,360.7h721.391c0-199.207-161.489-360.7-360.7-360.7" transform="translate(-387.443)" fill="#99faff"/>
            </g>
          </g>
        </g>
        <path id="線_113" data-name="線 113" d="M-2.061,64.683A2.939,2.939,0,0,1-5,61.743v-63.8A2.939,2.939,0,0,1-2.061-5,2.939,2.939,0,0,1,.879-2.061v63.8A2.939,2.939,0,0,1-2.061,64.683Z" transform="translate(798.706 295.757)" fill="#2e383a"/>
        <path id="パス_928" data-name="パス 928" d="M1336.4,448.5l-14.06,36.108a5.422,5.422,0,0,0,5.052,7.389h28.12a5.421,5.421,0,0,0,5.052-7.389L1346.5,448.5a5.421,5.421,0,0,0-10.1,0" transform="translate(-544.805 -183.413)" fill="#ffe578"/>
        <path id="パス_929" data-name="パス 929" d="M1339.393,440.049a8.309,8.309,0,0,1,7.791,5.327l14.06,36.107a8.361,8.361,0,0,1-7.791,11.395h-28.12a8.361,8.361,0,0,1-7.792-11.394l14.061-36.108A8.309,8.309,0,0,1,1339.393,440.049Zm14.06,46.95a2.482,2.482,0,0,0,2.313-3.383l-14.06-36.108a2.482,2.482,0,0,0-4.625,0l-14.06,36.108a2.482,2.482,0,0,0,2.313,3.383Z" transform="translate(-542.748 -181.352)" fill="#2e383a"/>
        <path id="パス_930" data-name="パス 930" d="M1336.4,408.572l-14.06,36.108a5.422,5.422,0,0,0,5.052,7.389h28.12a5.421,5.421,0,0,0,5.052-7.389l-14.06-36.108a5.421,5.421,0,0,0-10.1,0" transform="translate(-544.805 -166.956)" fill="#ffe578"/>
        <path id="パス_931" data-name="パス 931" d="M1339.393,400.117a8.309,8.309,0,0,1,7.791,5.327l14.06,36.107a8.361,8.361,0,0,1-7.791,11.395h-28.12a8.361,8.361,0,0,1-7.792-11.394l14.061-36.108A8.309,8.309,0,0,1,1339.393,400.117Zm14.06,46.95a2.482,2.482,0,0,0,2.313-3.383l-14.06-36.108a2.482,2.482,0,0,0-4.625,0l-14.06,36.108a2.482,2.482,0,0,0,2.313,3.382Z" transform="translate(-542.748 -164.896)" fill="#2e383a"/>
        <path id="パス_932" data-name="パス 932" d="M1336.4,368.641l-14.06,36.108a5.422,5.422,0,0,0,5.052,7.388h28.12a5.421,5.421,0,0,0,5.052-7.388l-14.06-36.108a5.421,5.421,0,0,0-10.1,0" transform="translate(-544.805 -150.5)" fill="#ffe578"/>
        <path id="パス_933" data-name="パス 933" d="M1339.393,360.186a8.309,8.309,0,0,1,7.791,5.327l14.06,36.107a8.361,8.361,0,0,1-7.791,11.395h-28.12a8.361,8.361,0,0,1-7.792-11.394l14.061-36.108A8.309,8.309,0,0,1,1339.393,360.186Zm14.06,46.95a2.482,2.482,0,0,0,2.313-3.383l-14.06-36.108a2.482,2.482,0,0,0-4.625,0l-14.06,36.108a2.482,2.482,0,0,0,2.313,3.382Z" transform="translate(-542.748 -148.439)" fill="#2e383a"/>
        <path id="パス_934" data-name="パス 934" d="M266.377,482.505h39.841a55.757,55.757,0,0,1,55.757,55.758v5.824a15.458,15.458,0,0,1-15.458,15.458H226.077a15.458,15.458,0,0,1-15.458-15.458v-5.824a55.758,55.758,0,0,1,55.758-55.758" transform="translate(-86.8 -198.849)" fill="#b1e068"/>
        <path id="パス_935" data-name="パス 935" d="M264.316,477.505h39.841a58.763,58.763,0,0,1,58.7,58.7v5.824a18.418,18.418,0,0,1-18.4,18.4H224.017a18.418,18.418,0,0,1-18.4-18.4V536.2A58.764,58.764,0,0,1,264.316,477.505Zm80.141,77.04a12.533,12.533,0,0,0,12.518-12.518V536.2a52.878,52.878,0,0,0-52.818-52.818H264.316A52.878,52.878,0,0,0,211.5,536.2v5.824a12.533,12.533,0,0,0,12.519,12.518Z" transform="translate(-84.739 -196.788)" fill="#2e383a"/>
        <path id="パス_936" data-name="パス 936" d="M140.744,535.622h23.692a33.157,33.157,0,0,1,33.157,33.157v3.464a9.193,9.193,0,0,1-9.192,9.192H116.779a9.193,9.193,0,0,1-9.192-9.192v-3.464a33.157,33.157,0,0,1,33.157-33.157" transform="translate(-44.339 -220.74)" fill="#b1e068"/>
        <path id="パス_937" data-name="パス 937" d="M138.684,530.622h23.692a36.137,36.137,0,0,1,36.1,36.1v3.464a12.145,12.145,0,0,1-12.132,12.132H114.719a12.145,12.145,0,0,1-12.132-12.132v-3.464A36.137,36.137,0,0,1,138.684,530.622Zm47.657,45.813a6.26,6.26,0,0,0,6.253-6.253v-3.464A30.252,30.252,0,0,0,162.376,536.5H138.684a30.252,30.252,0,0,0-30.218,30.218v3.464a6.26,6.26,0,0,0,6.253,6.253Z" transform="translate(-42.278 -218.679)" fill="#2e383a"/>
        <rect id="長方形_1649" data-name="長方形 1649" width="91.918" height="166.5" transform="translate(812.881 194.196)" fill="#99faff"/>
        <path id="長方形_1650" data-name="長方形 1650" d="M-2.061-5H89.858A2.939,2.939,0,0,1,92.8-2.061v166.5a2.939,2.939,0,0,1-2.939,2.939H-2.061A2.939,2.939,0,0,1-5,164.439V-2.061A2.939,2.939,0,0,1-2.061-5ZM86.918.879H.879V161.5H86.918Z" transform="translate(814.941 196.256)" fill="#2e383a"/>
        <rect id="長方形_1651" data-name="長方形 1651" width="51.587" height="15.357" transform="translate(821.256 286.413)" fill="#ffe578"/>
        <path id="長方形_1652" data-name="長方形 1652" d="M-2.061-5H49.527a2.939,2.939,0,0,1,2.939,2.939V13.3a2.939,2.939,0,0,1-2.939,2.939H-2.061A2.939,2.939,0,0,1-5,13.3V-2.061A2.939,2.939,0,0,1-2.061-5ZM46.587.879H.879v9.478H46.587Z" transform="translate(823.317 288.473)" fill="#2e383a"/>
        <rect id="長方形_1653" data-name="長方形 1653" width="69.182" height="33.215" transform="translate(824.249 138.905)" fill="#fff"/>
        <path id="長方形_1654" data-name="長方形 1654" d="M-2.061-5H67.121a2.939,2.939,0,0,1,2.939,2.939V31.155a2.939,2.939,0,0,1-2.939,2.939H-2.061A2.939,2.939,0,0,1-5,31.155V-2.061A2.939,2.939,0,0,1-2.061-5ZM64.182.879H.879V28.215h63.3Z" transform="translate(826.31 140.965)" fill="#2e383a"/>
        <rect id="長方形_1655" data-name="長方形 1655" width="9.225" height="10.833" transform="translate(839.602 145.867)" fill="#fff"/>
        <path id="長方形_1656" data-name="長方形 1656" d="M-2.061-5H7.164A2.939,2.939,0,0,1,10.1-2.061V8.773a2.939,2.939,0,0,1-2.939,2.939H-2.061A2.939,2.939,0,0,1-5,8.773V-2.061A2.939,2.939,0,0,1-2.061-5ZM4.225.879H.879V5.833H4.225Z" transform="translate(841.663 147.928)" fill="#2e383a"/>
        <path id="パス_938" data-name="パス 938" d="M1402.646,200.861h58.193l12.5,20.822h-83.2Z" transform="translate(-572.902 -82.778)" fill="#ffe578"/>
        <path id="パス_939" data-name="パス 939" d="M1400.585,195.861h58.193a2.939,2.939,0,0,1,2.52,1.426l12.5,20.822a2.939,2.939,0,0,1-2.52,4.453h-83.2a2.939,2.939,0,0,1-2.52-4.453l12.5-20.822A2.939,2.939,0,0,1,1400.585,195.861Zm56.529,5.879h-54.866l-8.974,14.943h72.814Z" transform="translate(-570.842 -80.718)" fill="#2e383a"/>
        <path id="パス_940" data-name="パス 940" d="M1486.687,88.51h-22.3a2.939,2.939,0,0,1-2.939-2.939,44.878,44.878,0,0,0-83.39-23.039,2.939,2.939,0,0,1-4.1.966,26.166,26.166,0,0,0-40.228,22.073,2.939,2.939,0,0,1-2.939,2.939h-23.554a2.939,2.939,0,0,1,0-5.879h20.748a32.048,32.048,0,0,1,46.589-25.555,50.754,50.754,0,0,1,92.671,25.555h19.441a2.939,2.939,0,1,1,0,5.879Z" transform="translate(-537.525 -14.348)" fill="#2e383a"/>
        <path id="パス_941" data-name="パス 941" d="M203.225,201.254H186.6a2.939,2.939,0,0,1-2.939-2.939,17.608,17.608,0,0,0-27.07-14.854,2.939,2.939,0,0,1-4.1-.966,30.818,30.818,0,0,0-57.264,15.82,2.939,2.939,0,0,1-2.939,2.939H61.115a2.939,2.939,0,1,1,0-5.879H89.459a36.694,36.694,0,0,1,66.513-18.282,23.491,23.491,0,0,1,33.382,18.282h13.871a2.939,2.939,0,1,1,0,5.879Z" transform="translate(-23.975 -66.606)" fill="#2e383a"/>
        <path id="線_114" data-name="線 114" d="M359.434.879H-2.061A2.939,2.939,0,0,1-5-2.061,2.939,2.939,0,0,1-2.061-5H359.434a2.939,2.939,0,0,1,2.939,2.939A2.939,2.939,0,0,1,359.434.879Z" transform="translate(5 362.756)" fill="#2e383a"/>
        <path id="線_115" data-name="線 115" d="M44.334.879h-46.4A2.939,2.939,0,0,1-5-2.061,2.939,2.939,0,0,1-2.061-5h46.4a2.939,2.939,0,0,1,2.939,2.939A2.939,2.939,0,0,1,44.334.879Z" transform="translate(416.711 362.756)" fill="#2e383a"/>
        <g id="グループ_289" data-name="グループ 289" transform="translate(662.901 150.166)" opacity="0.5">
          <g id="グループ_288" data-name="グループ 288">
            <g id="グループ_287" data-name="グループ 287" clip-path="url(#clip-path-4)">
              <path id="線_116" data-name="線 116" d="M55.077.879H-2.061A2.939,2.939,0,0,1-5-2.061,2.939,2.939,0,0,1-2.061-5H55.077a2.939,2.939,0,0,1,2.939,2.939A2.939,2.939,0,0,1,55.077.879Z" transform="translate(5.001 5)" fill="#99faff"/>
            </g>
          </g>
        </g>
        <g id="グループ_292" data-name="グループ 292" transform="translate(598.546 169.181)" opacity="0.5">
          <g id="グループ_291" data-name="グループ 291">
            <g id="グループ_290" data-name="グループ 290" clip-path="url(#clip-path-5)">
              <path id="線_117" data-name="線 117" d="M73.43.879H-2.061A2.939,2.939,0,0,1-5-2.061,2.939,2.939,0,0,1-2.061-5H73.43a2.939,2.939,0,0,1,2.939,2.939A2.939,2.939,0,0,1,73.43.879Z" transform="translate(4.999 5)" fill="#99faff"/>
            </g>
          </g>
        </g>
        <g id="グループ_295" data-name="グループ 295" transform="translate(743.406 240.153)" opacity="0.5">
          <g id="グループ_294" data-name="グループ 294">
            <g id="グループ_293" data-name="グループ 293" clip-path="url(#clip-path-5)">
              <path id="線_118" data-name="線 118" d="M73.43.879H-2.061A2.939,2.939,0,0,1-5-2.061,2.939,2.939,0,0,1-2.061-5H73.43a2.939,2.939,0,0,1,2.939,2.939A2.939,2.939,0,0,1,73.43.879Z" transform="translate(5.001 5)" fill="#99faff"/>
            </g>
          </g>
        </g>
        <g id="グループ_298" data-name="グループ 298" transform="translate(543.618 115.143)" opacity="0.5">
          <g id="グループ_297" data-name="グループ 297">
            <g id="グループ_296" data-name="グループ 296" clip-path="url(#clip-path-7)">
              <path id="線_119" data-name="線 119" d="M15.009.879H-2.061A2.939,2.939,0,0,1-5-2.061,2.939,2.939,0,0,1-2.061-5H15.009a2.939,2.939,0,0,1,2.939,2.939A2.939,2.939,0,0,1,15.009.879Z" transform="translate(5 5)" fill="#99faff"/>
            </g>
          </g>
        </g>
        <g id="グループ_301" data-name="グループ 301" transform="translate(386.699 202.964)" opacity="0.5">
          <g id="グループ_300" data-name="グループ 300">
            <g id="グループ_299" data-name="グループ 299" clip-path="url(#clip-path-8)">
              <path id="線_120" data-name="線 120" d="M39.075.879H-2.061A2.939,2.939,0,0,1-5-2.061,2.939,2.939,0,0,1-2.061-5H39.075a2.939,2.939,0,0,1,2.939,2.939A2.939,2.939,0,0,1,39.075.879Z" transform="translate(5 5)" fill="#99faff"/>
            </g>
          </g>
        </g>
        <g id="グループ_304" data-name="グループ 304" transform="translate(418.415 221.193)" opacity="0.5">
          <g id="グループ_303" data-name="グループ 303">
            <g id="グループ_302" data-name="グループ 302" clip-path="url(#clip-path-9)">
              <path id="線_121" data-name="線 121" d="M64.745.879H-2.061A2.939,2.939,0,0,1-5-2.061,2.939,2.939,0,0,1-2.061-5H64.745a2.939,2.939,0,0,1,2.939,2.939A2.939,2.939,0,0,1,64.745.879Z" transform="translate(5 5)" fill="#99faff"/>
            </g>
          </g>
        </g>
        <path id="線_122" data-name="線 122" d="M277.233.879H-2.061A2.939,2.939,0,0,1-5-2.061,2.939,2.939,0,0,1-2.061-5H277.233a2.939,2.939,0,0,1,2.939,2.939A2.939,2.939,0,0,1,277.233.879Z" transform="translate(482.25 362.756)" fill="#2e383a"/>
        <path id="線_123" data-name="線 123" d="M204.97.879H-2.061A2.939,2.939,0,0,1-5-2.061,2.939,2.939,0,0,1-2.061-5H204.97a2.939,2.939,0,0,1,2.939,2.939A2.939,2.939,0,0,1,204.97.879Z" transform="translate(779.219 362.756)" fill="#2e383a"/>
        <path id="パス_942" data-name="パス 942" d="M317.944,486.707a28.627,28.627,0,1,1-28.627-28.627,28.627,28.627,0,0,1,28.627,28.627" transform="translate(-107.435 -188.783)" fill="#ffe578"/>
        <path id="パス_943" data-name="パス 943" d="M287.257,516.213a31.566,31.566,0,1,1,31.566-31.566A31.6,31.6,0,0,1,287.257,516.213Zm0-57.254a25.687,25.687,0,1,0,25.688,25.688A25.717,25.717,0,0,0,287.257,458.959Z" transform="translate(-105.374 -186.723)" fill="#2e383a"/>
        <path id="パス_944" data-name="パス 944" d="M677.235,163.572a48.882,48.882,0,1,1-48.882-48.882,48.882,48.882,0,0,1,48.882,48.882" transform="translate(-238.811 -47.266)" fill="#ffe578"/>
        <path id="楕円形_376" data-name="楕円形 376" d="M46.821-5A51.821,51.821,0,1,1-5,46.821,51.88,51.88,0,0,1,46.821-5Zm0,97.764A45.942,45.942,0,1,0,.879,46.821,45.994,45.994,0,0,0,46.821,92.764Z" transform="translate(342.721 69.485)" fill="#2e383a"/>
        <path id="パス_945" data-name="パス 945" d="M632.086,208.733a2.939,2.939,0,0,1-2.939-2.939,19.7,19.7,0,0,1,19.678-19.678,2.939,2.939,0,0,1,0,5.879,13.815,13.815,0,0,0-13.8,13.8A2.939,2.939,0,0,1,632.086,208.733Z" transform="translate(-259.283 -76.701)" fill="#2e383a"/>
        <path id="パス_946" data-name="パス 946" d="M620.352,208.733a2.939,2.939,0,0,1-2.939-2.939,13.815,13.815,0,0,0-13.8-13.8,2.939,2.939,0,0,1,0-5.879,19.7,19.7,0,0,1,19.678,19.678A2.939,2.939,0,0,1,620.352,208.733Z" transform="translate(-247.549 -76.701)" fill="#2e383a"/>
        <path id="パス_947" data-name="パス 947" d="M327.3,263.069a2.939,2.939,0,0,1-2.939-2.939,14.7,14.7,0,0,1,14.685-14.685,2.939,2.939,0,1,1,0,5.879,8.816,8.816,0,0,0-8.806,8.806A2.939,2.939,0,0,1,327.3,263.069Z" transform="translate(-133.674 -101.152)" fill="#2e383a"/>
        <path id="パス_948" data-name="パス 948" d="M319.066,263.069a2.939,2.939,0,0,1-2.939-2.939,8.816,8.816,0,0,0-8.806-8.806,2.939,2.939,0,1,1,0-5.879,14.7,14.7,0,0,1,14.685,14.685A2.939,2.939,0,0,1,319.066,263.069Z" transform="translate(-125.441 -101.152)" fill="#2e383a"/>
        <path id="線_124" data-name="線 124" d="M-2.061,59.272A2.939,2.939,0,0,1-5,56.333V-2.061A2.939,2.939,0,0,1-2.061-5,2.939,2.939,0,0,1,.879-2.061V56.333A2.939,2.939,0,0,1-2.061,59.272Z" transform="translate(183.94 304.363)" fill="#2e383a"/>
        <path id="線_125" data-name="線 125" d="M-2.061,12a2.93,2.93,0,0,1-2.078-.861,2.939,2.939,0,0,1,0-4.157L6.98-4.139a2.939,2.939,0,0,1,4.157,0,2.939,2.939,0,0,1,0,4.157L.018,11.137A2.93,2.93,0,0,1-2.061,12Z" transform="translate(183.943 313.171)" fill="#2e383a"/>
        <path id="パス_949" data-name="パス 949" d="M1531.917,412.373a35.506,35.506,0,1,0-35.506,35.506,35.506,35.506,0,0,0,35.506-35.506" transform="translate(-602.065 -155.314)" fill="#b1e068"/>
        <path id="楕円形_377" data-name="楕円形 377" d="M38.446,0A38.446,38.446,0,1,1,0,38.446,38.489,38.489,0,0,1,38.446,0Zm0,71.012A32.567,32.567,0,1,0,5.879,38.446,32.6,32.6,0,0,0,38.446,71.012Z" transform="translate(855.852 218.661) rotate(-0.072)" fill="#2e383a"/>
        <path id="線_126" data-name="線 126" d="M-2.061,102.285A2.939,2.939,0,0,1-5,99.346V-2.061A2.939,2.939,0,0,1-2.061-5,2.939,2.939,0,0,1,.879-2.061V99.346A2.939,2.939,0,0,1-2.061,102.285Z" transform="translate(896.406 259.119)" fill="#2e383a"/>
        <path id="線_127" data-name="線 127" d="M13.08,16.02A2.93,2.93,0,0,1,11,15.159L-4.139.018a2.939,2.939,0,0,1,0-4.157,2.939,2.939,0,0,1,4.157,0L15.159,11A2.939,2.939,0,0,1,13.08,16.02Z" transform="translate(881.266 268.985)" fill="#2e383a"/>
        <path id="線_128" data-name="線 128" d="M-2.061,22.954A2.939,2.939,0,0,1-5,20.015V-2.061A2.939,2.939,0,0,1-2.061-5,2.939,2.939,0,0,1,.879-2.061V20.015A2.939,2.939,0,0,1-2.061,22.954Z" transform="translate(853.782 174.18)" fill="#2e383a"/>
        <path id="線_129" data-name="線 129" d="M-2.061,22.954A2.939,2.939,0,0,1-5,20.015V-2.061A2.939,2.939,0,0,1-2.061-5,2.939,2.939,0,0,1,.879-2.061V20.015A2.939,2.939,0,0,1-2.061,22.954Z" transform="translate(870.022 174.18)" fill="#2e383a"/>
        <path id="線_130" data-name="線 130" d="M-2.061,22.954A2.939,2.939,0,0,1-5,20.015V-2.061A2.939,2.939,0,0,1-2.061-5,2.939,2.939,0,0,1,.879-2.061V20.015A2.939,2.939,0,0,1-2.061,22.954Z" transform="translate(886.262 174.18)" fill="#2e383a"/>
        <path id="線_131" data-name="線 131" d="M-2.061,22.954A2.939,2.939,0,0,1-5,20.015V-2.061A2.939,2.939,0,0,1-2.061-5,2.939,2.939,0,0,1,.879-2.061V20.015A2.939,2.939,0,0,1-2.061,22.954Z" transform="translate(902.502 174.18)" fill="#2e383a"/>
        <path id="線_132" data-name="線 132" d="M-2.061,22.954A2.939,2.939,0,0,1-5,20.015V-2.061A2.939,2.939,0,0,1-2.061-5,2.939,2.939,0,0,1,.879-2.061V20.015A2.939,2.939,0,0,1-2.061,22.954Z" transform="translate(837.543 174.18)" fill="#2e383a"/>
        <path id="線_133" data-name="線 133" d="M-2.061,22.954A2.939,2.939,0,0,1-5,20.015V-2.061A2.939,2.939,0,0,1-2.061-5,2.939,2.939,0,0,1,.879-2.061V20.015A2.939,2.939,0,0,1-2.061,22.954Z" transform="translate(821.303 174.18)" fill="#2e383a"/>
        <path id="線_134" data-name="線 134" d="M94.183.879H-2.061A2.939,2.939,0,0,1-5-2.061,2.939,2.939,0,0,1-2.061-5H94.183a2.939,2.939,0,0,1,2.939,2.939A2.939,2.939,0,0,1,94.183.879Z" transform="translate(812.779 174.181)" fill="#2e383a"/>
        <line id="線_135" data-name="線 135" y2="58.926" transform="translate(860.934 301.769)" fill="#fff"/>
        <path id="線_136" data-name="線 136" d="M-2.061,59.805A2.939,2.939,0,0,1-5,56.866V-2.061A2.939,2.939,0,0,1-2.061-5,2.939,2.939,0,0,1,.879-2.061V56.866A2.939,2.939,0,0,1-2.061,59.805Z" transform="translate(862.995 303.83)" fill="#2e383a"/>
        <line id="線_137" data-name="線 137" y2="58.926" transform="translate(833.166 301.769)" fill="#fff"/>
        <path id="線_138" data-name="線 138" d="M-2.061,59.805A2.939,2.939,0,0,1-5,56.866V-2.061A2.939,2.939,0,0,1-2.061-5,2.939,2.939,0,0,1,.879-2.061V56.866A2.939,2.939,0,0,1-2.061,59.805Z" transform="translate(835.226 303.83)" fill="#2e383a"/>
        <path id="線_139" data-name="線 139" d="M-2.061,77.28A2.939,2.939,0,0,1-5,74.341v-76.4A2.939,2.939,0,0,1-2.061-5,2.939,2.939,0,0,1,.879-2.061v76.4A2.939,2.939,0,0,1-2.061,77.28Z" transform="translate(57.89 286.355)" fill="#2e383a"/>
        <path id="パス_950" data-name="パス 950" d="M72.561,422.423,55.725,465.66a6.492,6.492,0,0,0,6.049,8.847H95.447a6.492,6.492,0,0,0,6.049-8.847L84.659,422.423a6.492,6.492,0,0,0-12.1,0" transform="translate(-22.78 -172.384)" fill="#b1e068"/>
        <path id="パス_951" data-name="パス 951" d="M76.553,413.287a9.373,9.373,0,0,1,8.788,6.009l16.836,43.237a9.431,9.431,0,0,1-8.788,12.853H59.717a9.431,9.431,0,0,1-8.788-12.853L67.765,419.3A9.373,9.373,0,0,1,76.553,413.287Zm16.836,56.22a3.552,3.552,0,0,0,3.31-4.841L79.864,421.429a3.552,3.552,0,0,0-6.62,0L56.407,464.666a3.552,3.552,0,0,0,3.31,4.841Z" transform="translate(-20.723 -170.323)" fill="#2e383a"/>
        <path id="パス_952" data-name="パス 952" d="M72.561,374.607,55.725,417.844a6.492,6.492,0,0,0,6.049,8.847H95.447a6.492,6.492,0,0,0,6.049-8.847L84.659,374.607a6.492,6.492,0,0,0-12.1,0" transform="translate(-22.78 -152.678)" fill="#b1e068"/>
        <path id="パス_953" data-name="パス 953" d="M76.553,365.471a9.373,9.373,0,0,1,8.788,6.009l16.836,43.237A9.431,9.431,0,0,1,93.39,427.57H59.717a9.431,9.431,0,0,1-8.788-12.853L67.765,371.48A9.373,9.373,0,0,1,76.553,365.471Zm16.836,56.22a3.552,3.552,0,0,0,3.31-4.841L79.864,373.613a3.552,3.552,0,0,0-6.62,0L56.407,416.85a3.552,3.552,0,0,0,3.31,4.841Z" transform="translate(-20.723 -150.617)" fill="#2e383a"/>
        <path id="パス_954" data-name="パス 954" d="M72.561,326.792,55.725,370.029a6.492,6.492,0,0,0,6.049,8.847H95.447a6.492,6.492,0,0,0,6.049-8.847L84.659,326.792a6.492,6.492,0,0,0-12.1,0" transform="translate(-22.78 -132.973)" fill="#b1e068"/>
        <path id="パス_955" data-name="パス 955" d="M76.553,317.656a9.373,9.373,0,0,1,8.788,6.009L102.178,366.9a9.431,9.431,0,0,1-8.788,12.853H59.717A9.431,9.431,0,0,1,50.929,366.9l16.836-43.237A9.373,9.373,0,0,1,76.553,317.656Zm16.836,56.22a3.552,3.552,0,0,0,3.31-4.841L79.864,325.8a3.552,3.552,0,0,0-6.62,0L56.407,369.035a3.552,3.552,0,0,0,3.31,4.841Z" transform="translate(-20.723 -130.912)" fill="#2e383a"/>
        <path id="線_140" data-name="線 140" d="M-2.061,79.509A2.939,2.939,0,0,1-5,76.57V-2.061A2.939,2.939,0,0,1-2.061-5,2.939,2.939,0,0,1,.879-2.061V76.57A2.939,2.939,0,0,1-2.061,79.509Z" transform="translate(960.689 284.126)" fill="#2e383a"/>
        <path id="パス_956" data-name="パス 956" d="M1607.586,416.847l-17.327,44.5a6.681,6.681,0,0,0,6.226,9.105h34.655a6.681,6.681,0,0,0,6.226-9.105l-17.328-44.5a6.681,6.681,0,0,0-12.451,0" transform="translate(-655.184 -170.036)" fill="#b1e068"/>
        <path id="パス_957" data-name="パス 957" d="M1611.755,407.59a9.561,9.561,0,0,1,8.965,6.13l17.328,44.5a9.621,9.621,0,0,1-8.965,13.111h-34.655a9.62,9.62,0,0,1-8.965-13.111l17.327-44.5A9.561,9.561,0,0,1,1611.755,407.59Zm17.328,57.861a3.742,3.742,0,0,0,3.487-5.1l-17.328-44.5a3.741,3.741,0,0,0-6.973,0l-17.327,44.5a3.741,3.741,0,0,0,3.487,5.1Z" transform="translate(-653.128 -167.975)" fill="#2e383a"/>
        <path id="パス_958" data-name="パス 958" d="M1607.586,367.636l-17.327,44.5a6.681,6.681,0,0,0,6.226,9.105h34.655a6.681,6.681,0,0,0,6.226-9.105l-17.328-44.5a6.681,6.681,0,0,0-12.451,0" transform="translate(-655.184 -149.755)" fill="#b1e068"/>
        <path id="パス_959" data-name="パス 959" d="M1611.755,358.379a9.561,9.561,0,0,1,8.965,6.13l17.328,44.5a9.621,9.621,0,0,1-8.965,13.111h-34.655a9.62,9.62,0,0,1-8.965-13.111l17.327-44.5A9.561,9.561,0,0,1,1611.755,358.379Zm17.328,57.861a3.742,3.742,0,0,0,3.487-5.1l-17.328-44.5a3.741,3.741,0,0,0-6.973,0l-17.327,44.5a3.741,3.741,0,0,0,3.487,5.1Z" transform="translate(-653.128 -147.694)" fill="#2e383a"/>
        <path id="パス_960" data-name="パス 960" d="M1607.586,318.425l-17.327,44.5a6.681,6.681,0,0,0,6.226,9.105h34.655a6.681,6.681,0,0,0,6.226-9.105l-17.328-44.5a6.681,6.681,0,0,0-12.451,0" transform="translate(-655.184 -129.474)" fill="#b1e068"/>
        <path id="パス_961" data-name="パス 961" d="M1611.755,309.168a9.561,9.561,0,0,1,8.965,6.13l17.328,44.5a9.621,9.621,0,0,1-8.965,13.111h-34.655a9.62,9.62,0,0,1-8.965-13.111l17.327-44.5A9.561,9.561,0,0,1,1611.755,309.168Zm17.328,57.861a3.742,3.742,0,0,0,3.487-5.1l-17.328-44.5a3.741,3.741,0,0,0-6.973,0l-17.327,44.5a3.741,3.741,0,0,0,3.487,5.1Z" transform="translate(-653.128 -127.414)" fill="#2e383a"/>
        <path id="パス_962" data-name="パス 962" d="M1438.391,371.663a7.423,7.423,0,1,1-7.423-7.423,7.423,7.423,0,0,1,7.423,7.423" transform="translate(-586.669 -150.11)" fill="#fff"/>
        <path id="楕円形_378" data-name="楕円形 378" d="M5.362-5A10.362,10.362,0,1,1-5,5.362,10.374,10.374,0,0,1,5.362-5Zm0,14.845A4.483,4.483,0,1,0,.879,5.362,4.488,4.488,0,0,0,5.362,9.845Z" transform="translate(838.937 216.191)" fill="#2e383a"/>
        <path id="パス_963" data-name="パス 963" d="M1438.391,424.8a7.423,7.423,0,1,1-7.423-7.423,7.423,7.423,0,0,1,7.423,7.423" transform="translate(-586.669 -172.007)" fill="#fff"/>
        <path id="楕円形_379" data-name="楕円形 379" d="M5.362-5A10.362,10.362,0,1,1-5,5.362,10.374,10.374,0,0,1,5.362-5Zm0,14.845A4.483,4.483,0,1,0,.879,5.362,4.488,4.488,0,0,0,5.362,9.845Z" transform="translate(838.937 247.426)" fill="#2e383a"/>
        <rect id="長方形_1663" data-name="長方形 1663" width="14.282" height="7.305" transform="translate(836.112 156.837)" fill="#fff"/>
        <path id="長方形_1664" data-name="長方形 1664" d="M-2.061-5H12.221a2.939,2.939,0,0,1,2.939,2.939V5.244a2.939,2.939,0,0,1-2.939,2.939H-2.061A2.939,2.939,0,0,1-5,5.244V-2.061A2.939,2.939,0,0,1-2.061-5ZM9.282.879H.879V2.305h8.4Z" transform="translate(838.173 158.898)" fill="#2e383a"/>
        <rect id="長方形_1665" data-name="長方形 1665" width="30.061" height="8.851" transform="translate(688.912 350.047)" fill="#ffe578"/>
        <path id="長方形_1666" data-name="長方形 1666" d="M-2.061-5H28A2.939,2.939,0,0,1,30.94-2.061V6.79A2.939,2.939,0,0,1,28,9.729H-2.061A2.939,2.939,0,0,1-5,6.79V-2.061A2.939,2.939,0,0,1-2.061-5ZM25.061.879H.879V3.851H25.061Z" transform="translate(690.973 352.107)" fill="#2e383a"/>
        <path id="線_141" data-name="線 141" d="M-2.061,28.572A2.939,2.939,0,0,1-5,25.633V-2.061A2.939,2.939,0,0,1-2.061-5,2.939,2.939,0,0,1,.879-2.061V25.633A2.939,2.939,0,0,1-2.061,28.572Z" transform="translate(667.902 300.476)" fill="#2e383a"/>
        <path id="線_142" data-name="線 142" d="M-2.061,28.572A2.939,2.939,0,0,1-5,25.633V-2.061A2.939,2.939,0,0,1-2.061-5,2.939,2.939,0,0,1,.879-2.061V25.633A2.939,2.939,0,0,1-2.061,28.572Z" transform="translate(608.518 300.476)" fill="#2e383a"/>
        <rect id="長方形_1667" data-name="長方形 1667" width="107.079" height="8.354" transform="translate(582.324 326.109)" fill="#ffe578"/>
        <path id="長方形_1668" data-name="長方形 1668" d="M-2.061-5H105.018a2.939,2.939,0,0,1,2.939,2.939V6.293a2.939,2.939,0,0,1-2.939,2.939H-2.061A2.939,2.939,0,0,1-5,6.293V-2.061A2.939,2.939,0,0,1-2.061-5ZM102.079.879H.879V3.354h101.2Z" transform="translate(584.385 328.169)" fill="#2e383a"/>
        <rect id="長方形_1669" data-name="長方形 1669" width="94.795" height="8.709" transform="translate(588.466 309.107)" fill="#ffe578"/>
        <path id="長方形_1670" data-name="長方形 1670" d="M-2.061-5H92.734a2.939,2.939,0,0,1,2.939,2.939V6.649a2.939,2.939,0,0,1-2.939,2.939H-2.061A2.939,2.939,0,0,1-5,6.649V-2.061A2.939,2.939,0,0,1-2.061-5ZM89.795.879H.879V3.709H89.795Z" transform="translate(590.527 311.168)" fill="#2e383a"/>
        <rect id="長方形_1671" data-name="長方形 1671" width="94.795" height="8.709" transform="translate(588.466 292.301)" fill="#ffe578"/>
        <path id="長方形_1672" data-name="長方形 1672" d="M-2.061-5H92.734a2.939,2.939,0,0,1,2.939,2.939V6.649a2.939,2.939,0,0,1-2.939,2.939H-2.061A2.939,2.939,0,0,1-5,6.649V-2.061A2.939,2.939,0,0,1-2.061-5ZM89.795.879H.879V3.709H89.795Z" transform="translate(590.527 294.361)" fill="#2e383a"/>
        <rect id="長方形_1673" data-name="長方形 1673" width="11.2" height="24.435" transform="translate(595.884 334.462)" fill="#ffe578"/>
        <path id="長方形_1674" data-name="長方形 1674" d="M-2.061-5h11.2a2.939,2.939,0,0,1,2.939,2.939V22.374a2.939,2.939,0,0,1-2.939,2.939h-11.2A2.939,2.939,0,0,1-5,22.374V-2.061A2.939,2.939,0,0,1-2.061-5ZM6.2.879H.879V19.435H6.2Z" transform="translate(597.945 336.523)" fill="#2e383a"/>
        <rect id="長方形_1675" data-name="長方形 1675" width="11.2" height="24.435" transform="translate(668.719 334.462)" fill="#ffe578"/>
        <path id="長方形_1676" data-name="長方形 1676" d="M-2.061-5h11.2a2.939,2.939,0,0,1,2.939,2.939V22.374a2.939,2.939,0,0,1-2.939,2.939h-11.2A2.939,2.939,0,0,1-5,22.374V-2.061A2.939,2.939,0,0,1-2.061-5ZM6.2.879H.879V19.435H6.2Z" transform="translate(670.78 336.523)" fill="#2e383a"/>
        <path id="パス_964" data-name="パス 964" d="M1180.544,506.511v-100.8h-24.076" transform="translate(-476.601 -167.201)" fill="#fff"/>
        <path id="パス_965" data-name="パス 965" d="M1178.483,507.39a2.939,2.939,0,0,1-2.939-2.939v-97.86h-21.137a2.939,2.939,0,0,1,0-5.879h24.076a2.939,2.939,0,0,1,2.939,2.939v100.8A2.939,2.939,0,0,1,1178.483,507.39Z" transform="translate(-474.541 -165.141)" fill="#2e383a"/>
        <path id="パス_966" data-name="パス 966" d="M1160.423,418.942a13.23,13.23,0,1,1-13.23-13.23,13.23,13.23,0,0,1,13.23,13.23" transform="translate(-467.327 -167.201)" fill="#fff"/>
        <path id="パス_967" data-name="パス 967" d="M1145.132,400.712a16.169,16.169,0,1,1-16.169,16.169A16.188,16.188,0,0,1,1145.132,400.712Zm0,26.46a10.291,10.291,0,1,0-10.29-10.291A10.3,10.3,0,0,0,1145.132,427.172Z" transform="translate(-465.266 -165.141)" fill="#2e383a"/>
        <path id="パス_968" data-name="パス 968" d="M1199.037,355.646a5.4,5.4,0,1,1-5.4-5.4,5.4,5.4,0,0,1,5.4,5.4" transform="translate(-489.694 -144.343)" fill="#99faff"/>
        <path id="パス_969" data-name="パス 969" d="M1191.576,345.246a8.34,8.34,0,1,1-8.339,8.34A8.349,8.349,0,0,1,1191.576,345.246Zm0,10.8a2.461,2.461,0,1,0-2.46-2.461A2.464,2.464,0,0,0,1191.576,356.047Z" transform="translate(-487.634 -142.282)" fill="#2e383a"/>
        <path id="パス_970" data-name="パス 970" d="M1178.484,430.667a2.939,2.939,0,0,1-2.939-2.939,21.161,21.161,0,0,0-21.137-21.137,2.939,2.939,0,1,1,0-5.879,27.046,27.046,0,0,1,27.015,27.016A2.939,2.939,0,0,1,1178.484,430.667Z" transform="translate(-474.541 -165.141)" fill="#2e383a"/>
        <line id="線_143" data-name="線 143" y1="129.976" transform="translate(703.943 216.704)" fill="#fff"/>
        <path id="線_144" data-name="線 144" d="M-2.061,130.855A2.939,2.939,0,0,1-5,127.915V-2.061A2.939,2.939,0,0,1-2.061-5,2.939,2.939,0,0,1,.879-2.061V127.915A2.939,2.939,0,0,1-2.061,130.855Z" transform="translate(706.003 218.764)" fill="#2e383a"/>
        <rect id="長方形_1677" data-name="長方形 1677" width="15.667" height="7.282" transform="translate(688.276 220.492)" fill="#fff"/>
        <path id="長方形_1678" data-name="長方形 1678" d="M-2.061-5H13.606a2.939,2.939,0,0,1,2.939,2.939V5.221a2.939,2.939,0,0,1-2.939,2.939H-2.061A2.939,2.939,0,0,1-5,5.221V-2.061A2.939,2.939,0,0,1-2.061-5ZM10.667.879H.879v1.4h9.788Z" transform="translate(690.336 222.552)" fill="#2e383a"/>
        <path id="パス_971" data-name="パス 971" d="M873.516,509.422h29.81a4.991,4.991,0,0,1,4.991,4.991v37.252a4.991,4.991,0,0,1-4.991,4.991h-29.81a4.991,4.991,0,0,1-4.991-4.991V514.413a4.991,4.991,0,0,1,4.991-4.991" transform="translate(-357.935 -209.942)" fill="#fff"/>
        <path id="長方形_1679" data-name="長方形 1679" d="M2.931-5H32.74a7.94,7.94,0,0,1,7.931,7.931V40.182a7.939,7.939,0,0,1-7.93,7.93H2.931A7.94,7.94,0,0,1-5,40.182V2.931A7.94,7.94,0,0,1,2.931-5Zm29.81,47.233a2.053,2.053,0,0,0,2.051-2.051V2.931A2.054,2.054,0,0,0,32.74.879H2.931A2.054,2.054,0,0,0,.879,2.931V40.182a2.054,2.054,0,0,0,2.052,2.052Z" transform="translate(512.651 301.541)" fill="#2e383a"/>
        <path id="パス_972" data-name="パス 972" d="M870.9,595.437h35.052a2.37,2.37,0,0,1,2.369,2.37v5.909a2.37,2.37,0,0,1-2.369,2.37H870.9a2.37,2.37,0,0,1-2.37-2.37v-5.909a2.37,2.37,0,0,1,2.37-2.37" transform="translate(-357.935 -245.39)" fill="#99faff"/>
        <path id="長方形_1680" data-name="長方形 1680" d="M.309-5H35.362A5.315,5.315,0,0,1,40.671.309V6.219a5.315,5.315,0,0,1-5.309,5.309H.309A5.315,5.315,0,0,1-5,6.219V.309A5.315,5.315,0,0,1,.309-5ZM34.792.879H.879v4.77H34.792Z" transform="translate(512.651 352.107)" fill="#2e383a"/>
        <line id="線_145" data-name="線 145" y2="34.982" transform="translate(519.433 299.48)" fill="#b1e068"/>
        <path id="線_146" data-name="線 146" d="M-2.061,35.861A2.939,2.939,0,0,1-5,32.922V-2.061A2.939,2.939,0,0,1-2.061-5,2.939,2.939,0,0,1,.879-2.061V32.922A2.939,2.939,0,0,1-2.061,35.861Z" transform="translate(521.494 301.541)" fill="#2e383a"/>
        <line id="線_147" data-name="線 147" y2="28.112" transform="translate(527.755 299.48)" fill="#b1e068"/>
        <path id="線_148" data-name="線 148" d="M-2.061,28.991A2.939,2.939,0,0,1-5,26.051V-2.061A2.939,2.939,0,0,1-2.061-5,2.939,2.939,0,0,1,.879-2.061V26.051A2.939,2.939,0,0,1-2.061,28.991Z" transform="translate(529.816 301.541)" fill="#2e383a"/>
        <line id="線_149" data-name="線 149" y2="7.418" transform="translate(527.755 339.296)" fill="#b1e068"/>
        <path id="線_150" data-name="線 150" d="M-2.061,8.3A2.939,2.939,0,0,1-5,5.357V-2.061A2.939,2.939,0,0,1-2.061-5,2.939,2.939,0,0,1,.879-2.061V5.357A2.939,2.939,0,0,1-2.061,8.3Z" transform="translate(529.816 341.356)" fill="#2e383a"/>
        <line id="線_151" data-name="線 151" y2="47.233" transform="translate(540.239 299.48)" fill="#b1e068"/>
        <path id="線_152" data-name="線 152" d="M-2.061,48.112A2.939,2.939,0,0,1-5,45.173V-2.061A2.939,2.939,0,0,1-2.061-5,2.939,2.939,0,0,1,.879-2.061V45.173A2.939,2.939,0,0,1-2.061,48.112Z" transform="translate(542.3 301.541)" fill="#2e383a"/>
      </g>
    </g>
  </g>
</svg>
