<svg xmlns="http://www.w3.org/2000/svg" xmlns:xlink="http://www.w3.org/1999/xlink" width="31.831" height="30.193" viewBox="0 0 31.831 30.193"><defs><clipPath id="a"><rect width="31.831" height="30.193" fill="none"/></clipPath></defs><g transform="translate(0 0)"><g transform="translate(0 0)" clip-path="url(#a)"><path d="M31.831,12a12.02,12.02,0,0,0-12-12H12A12.02,12.02,0,0,0,0,12a4.662,4.662,0,0,0,.429,1.963A3.679,3.679,0,0,0,0,15.695v.2a3.651,3.651,0,0,0,1.456,2.942,3.909,3.909,0,0,0-.055.653,3.838,3.838,0,0,0,.1.891A3.242,3.242,0,0,0,0,23.119a7.08,7.08,0,0,0,7.07,7.074h17.69a7.08,7.08,0,0,0,7.07-7.074,3.242,3.242,0,0,0-1.505-2.737,3.838,3.838,0,0,0,.1-.891,3.732,3.732,0,0,0-.062-.692,3.671,3.671,0,0,0,1.463-2.926v-.179a3.692,3.692,0,0,0-.429-1.729A4.647,4.647,0,0,0,31.831,12M4.665,4.665A10.364,10.364,0,0,1,12,1.625h7.821A10.379,10.379,0,0,1,30.206,12a3.2,3.2,0,0,1-.055.588,3.053,3.053,0,0,1-.735,1.476c-.039.042-.078.085-.117.124a3.078,3.078,0,0,1-2.184.907H4.717a3.1,3.1,0,0,1-3.036-2.506A3.2,3.2,0,0,1,1.625,12a10.364,10.364,0,0,1,3.039-7.34M3.043,19.758c.065.036.13.075.2.114a4.719,4.719,0,0,0,2.467.631,4.715,4.715,0,0,0,2.464-.631c.166-.091.312-.185.449-.273a1.748,1.748,0,0,1,1.167-.4,1.748,1.748,0,0,1,1.167.4c.137.088.283.182.449.273a4.719,4.719,0,0,0,2.467.631,4.874,4.874,0,0,0,1.892-.348l1.3,1.343.328.338H5.367a1.723,1.723,0,0,1-.185-.01l-.033,0a.215.215,0,0,1-.046,0,1.253,1.253,0,0,1-.159-.026.041.041,0,0,1-.02,0l-.055-.01c-.055-.01-.111-.026-.163-.039l-.088-.029a2.226,2.226,0,0,1-.325-.14c-.046-.023-.088-.049-.133-.075a1.81,1.81,0,0,1-.192-.13.179.179,0,0,1-.029-.023l-.088-.068c-.029-.026-.059-.055-.088-.081a1,1,0,0,1-.085-.081c-.029-.033-.059-.062-.085-.094,0,0-.007-.007-.01-.01-.052-.062-.1-.127-.15-.2a.271.271,0,0,0-.026-.039c-.026-.039-.052-.081-.075-.124a1.819,1.819,0,0,1-.1-.2,1.578,1.578,0,0,1-.081-.2c-.016-.042-.026-.081-.039-.124s-.023-.085-.033-.127-.016-.085-.023-.127a.733.733,0,0,1-.02-.117m18.994.744a4.719,4.719,0,0,0,2.467-.631c.166-.091.312-.185.449-.273a1.751,1.751,0,0,1,1.17-.4,1.868,1.868,0,0,1,.52.062l-.585.608L24.484,21.5l-.325.338-.582.6a2.374,2.374,0,0,1-3.351,0l-.582-.6-.325-.338-1.573-1.625-.514-.533a1.542,1.542,0,0,1,.722-.137,1.748,1.748,0,0,1,1.167.4c.137.088.283.182.449.273a4.719,4.719,0,0,0,2.467.631m7.633,1.411a.742.742,0,0,1,.072.072.551.551,0,0,1,.072.078.733.733,0,0,1,.078.1.825.825,0,0,1,.075.111,1.012,1.012,0,0,1,.072.13.3.3,0,0,1,.023.046,1.041,1.041,0,0,1,.055.14.9.9,0,0,1,.039.133.644.644,0,0,1,.026.114c.007.039.013.081.016.12a1.418,1.418,0,0,1,.01.166,5.446,5.446,0,0,1-5.445,5.448H7.07a5.446,5.446,0,0,1-5.445-5.448,1.418,1.418,0,0,1,.01-.166c0-.039.01-.081.016-.12a.644.644,0,0,1,.026-.114.9.9,0,0,1,.039-.133,1.041,1.041,0,0,1,.055-.14.3.3,0,0,1,.023-.046,1.012,1.012,0,0,1,.072-.13.825.825,0,0,1,.075-.111.733.733,0,0,1,.078-.1.551.551,0,0,1,.072-.078c.023-.023.046-.049.072-.072s.026-.023.039-.036a3.959,3.959,0,0,0,3.166,1.583H18.958l.1.1.02.02a3.991,3.991,0,0,0,5.647,0l.02-.02.1-.1h1.619a3.95,3.95,0,0,0,3.166-1.583c.013.013.026.023.039.036M28.795,19.7c0,.016,0,.033-.007.049,0,.039-.01.075-.016.111,0,.007,0,.013,0,.02-.007.042-.016.085-.023.127s-.02.085-.033.127a.9.9,0,0,1-.039.124,1.578,1.578,0,0,1-.081.2,1.819,1.819,0,0,1-.1.2c-.023.042-.049.085-.075.124a.271.271,0,0,0-.026.039c-.049.068-.1.133-.15.2,0,0-.007.01-.01.01-.026.033-.055.062-.085.094s-.055.055-.085.081-.059.055-.088.081l-.088.068a.179.179,0,0,1-.029.023,1.53,1.53,0,0,1-.192.13c-.046.026-.088.052-.133.075a2.349,2.349,0,0,1-.322.14l-.091.029c-.052.013-.107.029-.163.039l-.055.01a.041.041,0,0,1-.02,0,1.253,1.253,0,0,1-.159.026.215.215,0,0,1-.046,0l-.033,0a1.723,1.723,0,0,1-.185.01h-.046l.325-.338,1.573-1.625.345-.358c.049-.007.094-.013.143-.023q0,.1-.01.2m.64-2.223a2.1,2.1,0,0,1-1.239.452.575.575,0,0,1-.075,0,2.017,2.017,0,0,1-.341-.029,2.2,2.2,0,0,1-.445-.117,3.273,3.273,0,0,0-1.213-.2c-2.045,0-2.045,1.3-4.086,1.3s-2.041-1.3-4.083-1.3a3.2,3.2,0,0,0-1.889.553,3.9,3.9,0,0,1-1.534.7,4,4,0,0,1-.66.052c-2.041,0-2.041-1.3-4.083-1.3s-2.041,1.3-4.08,1.3a3.567,3.567,0,0,1-2.227-.767A4.391,4.391,0,0,0,2.89,17.8a1.934,1.934,0,0,1-.777-.569A2.06,2.06,0,0,1,1.625,15.9v-.2a.829.829,0,0,1,.007-.127,4.573,4.573,0,0,0,1.294.8,4.694,4.694,0,0,0,1.791.354h22.4a4.7,4.7,0,0,0,1.489-.241c.1-.036.2-.072.3-.114a4.573,4.573,0,0,0,1.294-.8.829.829,0,0,1,.007.127v.179a2.009,2.009,0,0,1-.5,1.343,1.83,1.83,0,0,1-.27.257" transform="translate(0 0)" fill="#003d51"/></g></g></svg>