<svg xmlns="http://www.w3.org/2000/svg" width="82" height="82" viewBox="0 0 82 82">
  <g id="グループ_329" data-name="グループ 329" transform="translate(-985.5 -2749)">
    <path id="パス_995" data-name="パス 995" d="M41,82A41,41,0,1,1,82,41,41.047,41.047,0,0,1,41,82M41,3.08A37.92,37.92,0,1,0,78.92,41,37.963,37.963,0,0,0,41,3.08" transform="translate(985.5 2749)" fill="#172b4d"/>
    <path id="パス_996" data-name="パス 996" d="M59.17,66.175a.77.77,0,0,1-.381-1.44L94.284,44.6a.77.77,0,1,1,.76,1.339L59.549,66.074a.766.766,0,0,1-.379.1" transform="translate(949.583 2721.631)" fill="#172b4d"/>
    <path id="パス_997" data-name="パス 997" d="M153.62,63.129a.766.766,0,0,1-.485-.172c-3.176-2.581-6.276-4.717-12.065-4.717a.77.77,0,1,1,0-1.54c6.286,0,9.753,2.395,13.036,5.062a.77.77,0,0,1-.486,1.367" transform="translate(899.212 2714.128)" fill="#172b4d"/>
    <path id="パス_998" data-name="パス 998" d="M50.752,76.831c-6.869,0-10.318-2.826-13.653-5.56l-.615-.5a.77.77,0,1,1,.972-1.195l.62.507c3.269,2.68,6.358,5.211,12.677,5.211a.77.77,0,1,1,0,1.54" transform="translate(963.236 2706.317)" fill="#172b4d"/>
    <path id="パス_999" data-name="パス 999" d="M72.67,69.02a.77.77,0,0,1,0-1.54c6.308,0,9.4-2.534,12.678-5.215C88.69,59.529,92.144,56.7,99,56.7a.77.77,0,1,1,0,1.54c-6.308,0-9.4,2.534-12.678,5.215-3.341,2.736-6.8,5.564-13.654,5.564" transform="translate(941.28 2714.127)" fill="#172b4d"/>
    <path id="パス_1000" data-name="パス 1000" d="M93.343,79l-7.276,8.585a4.114,4.114,0,0,0-.924,3.157l1.27,9.547h13.859l1.27-9.547a4.07,4.07,0,0,0-.924-3.157Z" transform="translate(933.157 2700.413)" fill="#b1e068"/>
    <path id="パス_1001" data-name="パス 1001" d="M99.041,99.85H85.182a.769.769,0,0,1-.763-.668l-1.271-9.547a4.871,4.871,0,0,1,1.094-3.749l7.282-8.592a.8.8,0,0,1,1.174,0l7.276,8.585a4.839,4.839,0,0,1,1.1,3.757L99.8,99.182a.769.769,0,0,1-.763.668M85.856,98.31H98.367l1.181-8.879a3.31,3.31,0,0,0-.755-2.565l-6.682-7.884-6.689,7.892a3.324,3.324,0,0,0-.749,2.554Z" transform="translate(934.389 2701.622)" fill="#172b4d"/>
    <path id="パス_1002" data-name="パス 1002" d="M105.27,89.55a.77.77,0,0,1-.77-.77V77.77a.77.77,0,1,1,1.54,0V88.78a.77.77,0,0,1-.77.77" transform="translate(921.23 2701.643)" fill="#172b4d"/>
    <path id="パス_1003" data-name="パス 1003" d="M102.625,107.2a2.425,2.425,0,1,1-2.425,2.425,2.426,2.426,0,0,1,2.425-2.425" transform="translate(923.875 2683.07)" fill="#f7f8f8"/>
    <path id="パス_1004" data-name="パス 1004" d="M101.4,111.592a3.2,3.2,0,1,1,3.2-3.2,3.2,3.2,0,0,1-3.2,3.2m0-4.851a1.655,1.655,0,1,0,1.655,1.655,1.657,1.657,0,0,0-1.655-1.655" transform="translate(925.105 2684.299)" fill="#172b4d"/>
    <path id="パス_1005" data-name="パス 1005" d="M102.625,66.4a2.425,2.425,0,1,1-2.425,2.425,2.426,2.426,0,0,1,2.425-2.425" transform="translate(923.875 2708.162)" fill="#f2f2f3"/>
    <path id="パス_1006" data-name="パス 1006" d="M101.4,70.791a3.2,3.2,0,1,1,3.2-3.2,3.2,3.2,0,0,1-3.2,3.2m0-4.851a1.655,1.655,0,1,0,1.655,1.655A1.657,1.657,0,0,0,101.4,65.94" transform="translate(925.105 2709.393)" fill="#172b4d"/>
    <path id="パス_1007" data-name="パス 1007" d="M34.325,65.1A2.425,2.425,0,1,1,31.9,67.525,2.426,2.426,0,0,1,34.325,65.1" transform="translate(965.881 2708.962)" fill="#f2f2f3"/>
    <path id="パス_1008" data-name="パス 1008" d="M33.1,69.491a3.2,3.2,0,1,1,3.2-3.2,3.2,3.2,0,0,1-3.2,3.2m0-4.851A1.655,1.655,0,1,0,34.751,66.3,1.657,1.657,0,0,0,33.1,64.64" transform="translate(967.111 2710.192)" fill="#172b4d"/>
    <path id="パス_1009" data-name="パス 1009" d="M171.025,65.1a2.425,2.425,0,1,1-2.425,2.425,2.426,2.426,0,0,1,2.425-2.425" transform="translate(881.807 2708.962)" fill="#f2f2f3"/>
    <path id="パス_1010" data-name="パス 1010" d="M169.8,69.491a3.2,3.2,0,1,1,3.2-3.2,3.2,3.2,0,0,1-3.2,3.2m0-4.851a1.655,1.655,0,1,0,1.655,1.655A1.657,1.657,0,0,0,169.8,64.64" transform="translate(883.037 2710.192)" fill="#172b4d"/>
    <path id="パス_1011" data-name="パス 1011" d="M100.114,137.3H86.6a1.5,1.5,0,1,1,0-3h13.513a1.5,1.5,0,0,1,0,3" transform="translate(933.161 2666.402)" fill="#ffe578"/>
    <path id="パス_1012" data-name="パス 1012" d="M98.884,136.843H85.371a2.271,2.271,0,0,1,0-4.543H98.884a2.271,2.271,0,0,1,0,4.543m-13.513-3a.731.731,0,0,0,0,1.463H98.884a.731.731,0,1,0,0-1.463Z" transform="translate(934.392 2667.632)" fill="#172b4d"/>
    <path id="パス_1013" data-name="パス 1013" d="M90.34,155.5,88.8,142.1h13.667l-1.54,13.4Z" transform="translate(930.886 2661.605)" fill="#b1e068"/>
    <path id="パス_1014" data-name="パス 1014" d="M99.7,155.037H89.11a.77.77,0,0,1-.765-.682l-1.54-13.4a.77.77,0,0,1,.765-.858h13.667a.771.771,0,0,1,.765.858l-1.54,13.4a.77.77,0,0,1-.765.682m-9.9-1.54H99.01l1.363-11.857H88.433Z" transform="translate(932.116 2662.835)" fill="#172b4d"/>
    <rect id="長方形_1687" data-name="長方形 1687" width="4.081" height="4.081" transform="translate(1042.246 2764.861)" fill="#99faff"/>
    <path id="パス_1015" data-name="パス 1015" d="M150.251,44.821H146.17a.77.77,0,0,1-.77-.77v-4.08a.77.77,0,0,1,.77-.77h4.081a.77.77,0,0,1,.77.77v4.08a.77.77,0,0,1-.77.77m-3.311-1.54h2.541V40.741H146.94Z" transform="translate(896.076 2724.89)" fill="#172b4d"/>
    <rect id="長方形_1688" data-name="長方形 1688" width="4.081" height="4.081" transform="translate(1006.751 2784.456)" fill="#99faff"/>
    <path id="パス_1016" data-name="パス 1016" d="M58.051,95.721H53.97a.77.77,0,0,1-.77-.77V90.87a.77.77,0,0,1,.77-.77h4.081a.77.77,0,0,1,.77.77v4.081a.77.77,0,0,1-.77.77m-3.311-1.54h2.541V91.64H54.74Z" transform="translate(952.781 2693.586)" fill="#172b4d"/>
  </g>
</svg>
