<svg xmlns="http://www.w3.org/2000/svg" width="23.194" height="22" viewBox="0 0 23.194 22"><path d="M23.194,8.747A8.758,8.758,0,0,0,14.446,0h-5.7A8.758,8.758,0,0,0,0,8.747a3.4,3.4,0,0,0,.313,1.431A2.681,2.681,0,0,0,0,11.436v.147a2.66,2.66,0,0,0,1.061,2.144,2.848,2.848,0,0,0-.04.476,2.8,2.8,0,0,0,.076.649A2.362,2.362,0,0,0,0,16.846,5.159,5.159,0,0,0,5.152,22h12.89a5.159,5.159,0,0,0,5.152-5.154,2.362,2.362,0,0,0-1.1-1.994,2.8,2.8,0,0,0,.076-.649,2.719,2.719,0,0,0-.045-.5,2.675,2.675,0,0,0,1.066-2.132v-.13a2.69,2.69,0,0,0-.313-1.26,3.386,3.386,0,0,0,.313-1.428M3.4,3.4A7.552,7.552,0,0,1,8.747,1.184h5.7a7.563,7.563,0,0,1,7.563,7.563,2.328,2.328,0,0,1-.04.429,2.224,2.224,0,0,1-.535,1.075c-.028.031-.057.062-.085.09A2.243,2.243,0,0,1,19.757,11H3.437A2.259,2.259,0,0,1,1.225,9.176a2.328,2.328,0,0,1-.04-.429A7.552,7.552,0,0,1,3.4,3.4m-1.182,11c.047.026.095.054.144.083a3.439,3.439,0,0,0,1.8.46,3.436,3.436,0,0,0,1.8-.46c.121-.066.227-.135.327-.2a1.274,1.274,0,0,1,.85-.289,1.274,1.274,0,0,1,.85.289c.1.064.206.133.327.2a3.439,3.439,0,0,0,1.8.46,3.551,3.551,0,0,0,1.379-.253l.945.978.239.246H3.911a1.256,1.256,0,0,1-.135-.007l-.024,0a.156.156,0,0,1-.033,0,.913.913,0,0,1-.116-.019.03.03,0,0,1-.014,0l-.04-.007c-.04-.007-.081-.019-.118-.028l-.064-.021a1.622,1.622,0,0,1-.237-.1c-.033-.017-.064-.036-.1-.054a1.319,1.319,0,0,1-.14-.095.13.13,0,0,1-.021-.017l-.064-.05-.064-.059a.727.727,0,0,1-.062-.059c-.021-.024-.043-.045-.062-.069,0,0,0,0-.007-.007-.038-.045-.073-.092-.109-.142a.2.2,0,0,0-.019-.028c-.019-.028-.038-.059-.054-.09a1.325,1.325,0,0,1-.071-.142,1.15,1.15,0,0,1-.059-.149c-.012-.031-.019-.059-.028-.09s-.017-.062-.024-.092-.012-.062-.017-.092a.534.534,0,0,1-.014-.085m13.84.542a3.439,3.439,0,0,0,1.8-.46c.121-.066.227-.135.327-.2a1.276,1.276,0,0,1,.853-.289,1.361,1.361,0,0,1,.379.045l-.426.443-1.146,1.184-.237.246-.424.438a1.73,1.73,0,0,1-2.442,0l-.424-.438-.237-.246L12.93,14.48l-.374-.388a1.124,1.124,0,0,1,.526-.1,1.274,1.274,0,0,1,.85.289c.1.064.206.133.327.2a3.439,3.439,0,0,0,1.8.46m5.562,1.028a.541.541,0,0,1,.052.052.4.4,0,0,1,.052.057.534.534,0,0,1,.057.071.6.6,0,0,1,.054.081.737.737,0,0,1,.052.095.216.216,0,0,1,.017.033.759.759,0,0,1,.04.1.655.655,0,0,1,.028.1.469.469,0,0,1,.019.083c0,.028.009.059.012.088a1.033,1.033,0,0,1,.007.121,3.968,3.968,0,0,1-3.967,3.97H5.152a3.968,3.968,0,0,1-3.967-3.97,1.033,1.033,0,0,1,.007-.121c0-.028.007-.059.012-.088a.469.469,0,0,1,.019-.083.656.656,0,0,1,.028-.1.759.759,0,0,1,.04-.1.216.216,0,0,1,.017-.033.737.737,0,0,1,.052-.095.6.6,0,0,1,.054-.081.534.534,0,0,1,.057-.071.4.4,0,0,1,.052-.057c.017-.017.033-.036.052-.052l.028-.026a2.885,2.885,0,0,0,2.307,1.154h9.9l.073.076.014.014a2.908,2.908,0,0,0,4.114,0l.014-.014.073-.076h1.18a2.878,2.878,0,0,0,2.307-1.154l.028.026m-.637-1.615c0,.012,0,.024,0,.036,0,.028-.007.054-.012.081,0,0,0,.009,0,.014,0,.031-.012.062-.017.092s-.014.062-.024.092a.658.658,0,0,1-.028.09,1.15,1.15,0,0,1-.059.149,1.325,1.325,0,0,1-.071.142c-.017.031-.036.062-.054.09a.2.2,0,0,0-.019.028c-.036.05-.071.1-.109.142,0,0,0,.007-.007.007-.019.024-.04.045-.062.069s-.04.04-.062.059l-.064.059-.064.05a.13.13,0,0,1-.021.017,1.114,1.114,0,0,1-.14.095c-.033.019-.064.038-.1.054a1.711,1.711,0,0,1-.234.1l-.066.021c-.038.009-.078.021-.118.028l-.04.007a.03.03,0,0,1-.014,0,.913.913,0,0,1-.116.019.156.156,0,0,1-.033,0l-.024,0a1.256,1.256,0,0,1-.135.007H19.25l.237-.246,1.146-1.184.251-.261c.036,0,.069-.009.1-.017q0,.075-.007.149m.467-1.62a1.529,1.529,0,0,1-.9.329.419.419,0,0,1-.054,0,1.469,1.469,0,0,1-.249-.021,1.6,1.6,0,0,1-.325-.085,2.385,2.385,0,0,0-.884-.149c-1.49,0-1.49.947-2.977.947s-1.488-.947-2.975-.947a2.334,2.334,0,0,0-1.376.4,2.843,2.843,0,0,1-1.118.507,2.912,2.912,0,0,1-.481.038c-1.488,0-1.488-.947-2.975-.947s-1.488.947-2.973.947A2.6,2.6,0,0,1,2.537,13.2a3.2,3.2,0,0,0-.431-.225,1.409,1.409,0,0,1-.566-.415,1.5,1.5,0,0,1-.355-.974v-.147a.6.6,0,0,1,0-.092,3.332,3.332,0,0,0,.943.585,3.42,3.42,0,0,0,1.305.258h16.32a3.425,3.425,0,0,0,1.085-.175c.076-.026.149-.052.22-.083A3.332,3.332,0,0,0,22,11.343a.6.6,0,0,1,0,.092v.13a1.464,1.464,0,0,1-.365.978,1.334,1.334,0,0,1-.2.187" fill="#fff"/></svg>