<svg xmlns="http://www.w3.org/2000/svg" width="82" height="82" viewBox="0 0 82 82">
  <g id="グループ_328" data-name="グループ 328" transform="translate(-1234.155 -2789.972)">
    <path id="パス_1017" data-name="パス 1017" d="M289.655,122.972a41,41,0,1,1,41-41,41.047,41.047,0,0,1-41,41m0-78.92a37.92,37.92,0,1,0,37.92,37.92,37.963,37.963,0,0,0-37.92-37.92" transform="translate(985.5 2749)" fill="#172b4d"/>
    <path id="パス_1018" data-name="パス 1018" d="M352.049,190.988H341.655l2.733-8.816h4.928Z" transform="translate(928.303 2662.159)" fill="#cfd0d0"/>
    <path id="パス_1019" data-name="パス 1019" d="M350.82,190.528H340.425a.77.77,0,0,1-.735-1l2.733-8.816a.77.77,0,0,1,.735-.542h4.928a.77.77,0,0,1,.735.542l2.733,8.816a.77.77,0,0,1-.735,1m-9.35-1.54h8.3l-2.256-7.276h-3.793Z" transform="translate(929.533 2663.389)" fill="#172b4d"/>
    <path id="パス_1020" data-name="パス 1020" d="M347.364,208.691h-16.4a1.809,1.809,0,1,1,0-3.619H347.4a1.807,1.807,0,0,1,1.809,1.809,1.841,1.841,0,0,1-1.848,1.809" transform="translate(935.991 2648.074)" fill="#f7f8f8"/>
    <path id="パス_1021" data-name="パス 1021" d="M346.134,208.231h-16.4a2.579,2.579,0,1,1,0-5.159h16.438a2.579,2.579,0,1,1-.039,5.159m-16.4-3.619a1.039,1.039,0,1,0,0,2.079h16.4a1.073,1.073,0,0,0,1.078-1.039,1.041,1.041,0,0,0-1.039-1.039Z" transform="translate(937.221 2649.305)" fill="#172b4d"/>
    <path id="パス_1022" data-name="パス 1022" d="M333.438,129.771H292.245a5.89,5.89,0,0,1-5.89-5.89V95.662a5.89,5.89,0,0,1,5.89-5.89h41.231a5.89,5.89,0,0,1,5.89,5.89v28.219a5.948,5.948,0,0,1-5.929,5.89" transform="translate(962.314 2718.987)" fill="#f7f8f8"/>
    <path id="パス_1023" data-name="パス 1023" d="M332.208,129.311H291.015a6.668,6.668,0,0,1-6.66-6.66V94.432a6.668,6.668,0,0,1,6.66-6.66h41.231a6.668,6.668,0,0,1,6.66,6.66v28.219a6.741,6.741,0,0,1-6.7,6.66m-41.192-40a5.126,5.126,0,0,0-5.12,5.12v28.219a5.126,5.126,0,0,0,5.12,5.12h41.192a5.193,5.193,0,0,0,5.159-5.129V94.432a5.126,5.126,0,0,0-5.12-5.12Z" transform="translate(963.544 2720.217)" fill="#172b4d"/>
    <path id="パス_1024" data-name="パス 1024" d="M294.355,126.637v-23.1a5.029,5.029,0,0,1,5.082-4.966h36.611a5.029,5.029,0,0,1,5.082,4.966V126.6H294.355Z" transform="translate(957.393 2713.575)" fill="#e4ffff"/>
    <path id="パス_1025" data-name="パス 1025" d="M293.125,126.177a.77.77,0,0,1-.77-.77v-23.1a5.8,5.8,0,0,1,5.852-5.736h36.611a5.8,5.8,0,0,1,5.852,5.736v23.06a.77.77,0,0,1-.77.77H293.366a.765.765,0,0,1-.241.038m.77-1.578H339.13v-22.29a4.26,4.26,0,0,0-4.312-4.2H298.207a4.26,4.26,0,0,0-4.312,4.2Z" transform="translate(958.623 2714.805)" fill="#172b4d"/>
    <path id="パス_1026" data-name="パス 1026" d="M338.1,171.012H285.125a.77.77,0,1,1,0-1.54H338.1a.77.77,0,1,1,0,1.54" transform="translate(963.544 2669.969)" fill="#172b4d"/>
    <path id="パス_1027" data-name="パス 1027" d="M345.992,127.836H325.2a1.848,1.848,0,0,1-1.848-1.848V110.32a1.848,1.848,0,0,1,1.848-1.848h20.789a1.848,1.848,0,0,1,1.848,1.848v15.669a1.824,1.824,0,0,1-1.848,1.848" transform="translate(939.558 2707.486)" fill="#fff"/>
    <path id="パス_1028" data-name="パス 1028" d="M344.762,127.376H323.973a2.621,2.621,0,0,1-2.618-2.618V109.09a2.621,2.621,0,0,1,2.618-2.618h20.789a2.621,2.621,0,0,1,2.618,2.618v15.669a2.59,2.59,0,0,1-2.618,2.618m-20.789-19.364a1.079,1.079,0,0,0-1.078,1.078v15.669a1.079,1.079,0,0,0,1.078,1.078h20.789a1.054,1.054,0,0,0,1.078-1.078V109.09a1.079,1.079,0,0,0-1.078-1.078Z" transform="translate(940.788 2708.716)" fill="#172b4d"/>
    <path id="パス_1029" data-name="パス 1029" d="M346.609,118.012H322.125a.77.77,0,1,1,0-1.54h24.484a.77.77,0,0,1,0,1.54" transform="translate(940.788 2702.566)" fill="#172b4d"/>
    <rect id="長方形_1689" data-name="長方形 1689" width="11.78" height="2.695" transform="translate(1265.531 2822.695)" fill="#b1e068"/>
    <path id="パス_1030" data-name="パス 1030" d="M340.705,128.207h-11.78a.77.77,0,0,1-.77-.77v-2.695a.77.77,0,0,1,.77-.77h11.78a.77.77,0,0,1,.77.77v2.695a.77.77,0,0,1-.77.77m-11.01-1.54h10.24v-1.155h-10.24Z" transform="translate(936.606 2697.953)" fill="#172b4d"/>
    <rect id="長方形_1690" data-name="長方形 1690" width="5.043" height="2.695" transform="translate(1280.16 2822.695)" fill="#896446"/>
    <path id="パス_1031" data-name="パス 1031" d="M371.968,128.207h-5.043a.77.77,0,0,1-.77-.77v-2.695a.77.77,0,0,1,.77-.77h5.043a.77.77,0,0,1,.77.77v2.695a.77.77,0,0,1-.77.77m-4.273-1.54h3.5v-1.155h-3.5Z" transform="translate(913.235 2697.953)" fill="#172b4d"/>
    <rect id="長方形_1691" data-name="長方形 1691" width="4.389" height="4.389" transform="translate(1265.531 2828.547)" fill="#99faff"/>
    <path id="パス_1032" data-name="パス 1032" d="M333.314,145.1h-4.389a.77.77,0,0,1-.77-.77v-4.389a.77.77,0,0,1,.77-.77h4.389a.77.77,0,0,1,.77.77v4.389a.77.77,0,0,1-.77.77m-3.619-1.54h2.849v-2.849h-2.849Z" transform="translate(936.606 2688.605)" fill="#172b4d"/>
    <rect id="長方形_1692" data-name="長方形 1692" width="4.389" height="4.389" transform="translate(1272.961 2828.547)" fill="#99faff"/>
    <path id="パス_1033" data-name="パス 1033" d="M352.614,145.1h-4.389a.77.77,0,0,1-.77-.77v-4.389a.77.77,0,0,1,.77-.77h4.389a.77.77,0,0,1,.77.77v4.389a.77.77,0,0,1-.77.77m-3.619-1.54h2.849v-2.849h-2.849Z" transform="translate(924.736 2688.605)" fill="#172b4d"/>
    <rect id="長方形_1693" data-name="長方形 1693" width="4.389" height="4.389" transform="translate(1280.391 2828.547)" fill="#99faff"/>
    <path id="パス_1034" data-name="パス 1034" d="M371.914,145.1h-4.389a.77.77,0,0,1-.77-.77v-4.389a.77.77,0,0,1,.77-.77h4.389a.77.77,0,0,1,.77.77v4.389a.77.77,0,0,1-.77.77m-3.619-1.54h2.849v-2.849h-2.849Z" transform="translate(912.866 2688.605)" fill="#172b4d"/>
    <path id="パス_1035" data-name="パス 1035" d="M384.455,136.672l.654,4.928,1.309-1.309,3.311,3.311,1.655-1.617-3.311-3.349,1.309-1.309Z" transform="translate(901.98 2690.142)" fill="#ffe578"/>
    <path id="パス_1036" data-name="パス 1036" d="M388.5,143.141a.768.768,0,0,1-.544-.226l-2.766-2.766-.765.764a.77.77,0,0,1-1.307-.443l-.654-4.928a.77.77,0,0,1,.865-.865l4.927.654a.77.77,0,0,1,.443,1.308l-.767.768,2.773,2.8a.771.771,0,0,1-.01,1.092l-1.655,1.617a.768.768,0,0,1-.538.219m-3.311-4.851a.767.767,0,0,1,.544.226l2.773,2.773.557-.544-2.766-2.8a.77.77,0,0,1,0-1.086l.206-.207-2.385-.317.317,2.385.206-.206a.766.766,0,0,1,.544-.226" transform="translate(903.21 2691.373)" fill="#172b4d"/>
  </g>
</svg>
