<svg xmlns="http://www.w3.org/2000/svg" width="82" height="82" viewBox="0 0 82 82"><g transform="translate(-1030 -2722.028)"><path d="M50.752,76.831c-6.869,0-10.318-2.826-13.653-5.56l-.615-.5a.77.77,0,1,1,.972-1.195l.62.507c3.269,2.68,6.358,5.211,12.677,5.211a.77.77,0,1,1,0,1.54" transform="translate(1007.736 2679.345)" fill="#364042"/><path d="M41,82A41,41,0,1,1,82,41,41.047,41.047,0,0,1,41,82M41,3.08A37.92,37.92,0,1,0,78.92,41,37.963,37.963,0,0,0,41,3.08" transform="translate(1030 2722.028)" fill="#172b4d"/><path d="M59.17,66.175a.77.77,0,0,1-.381-1.44L94.284,44.6a.77.77,0,1,1,.76,1.339L59.549,66.074a.766.766,0,0,1-.379.1" transform="translate(994.083 2694.659)" fill="#364042"/><path d="M153.62,63.129a.766.766,0,0,1-.485-.172c-3.176-2.581-6.276-4.717-12.065-4.717a.77.77,0,1,1,0-1.54c6.286,0,9.753,2.395,13.036,5.062a.77.77,0,0,1-.486,1.367" transform="translate(943.712 2687.156)" fill="#364042"/><path d="M72.67,69.02a.77.77,0,0,1,0-1.54c6.308,0,9.4-2.534,12.678-5.215C88.69,59.529,92.144,56.7,99,56.7a.77.77,0,1,1,0,1.54c-6.308,0-9.4,2.534-12.678,5.215-3.341,2.736-6.8,5.564-13.654,5.564" transform="translate(985.78 2687.156)" fill="#364042"/><path d="M93.343,79l-7.276,8.585a4.114,4.114,0,0,0-.924,3.157l1.27,9.547h13.859l1.27-9.547a4.07,4.07,0,0,0-.924-3.157Z" transform="translate(977.657 2673.441)" fill="#b1e068"/><path d="M99.041,99.85H85.182a.769.769,0,0,1-.763-.668l-1.271-9.547a4.871,4.871,0,0,1,1.094-3.749l7.282-8.592a.8.8,0,0,1,1.174,0l7.276,8.585a4.839,4.839,0,0,1,1.1,3.757L99.8,99.182a.769.769,0,0,1-.763.668M85.856,98.31H98.367l1.181-8.879a3.31,3.31,0,0,0-.755-2.565l-6.682-7.884-6.689,7.892a3.324,3.324,0,0,0-.749,2.554Z" transform="translate(978.889 2674.65)" fill="#364042"/><path d="M105.27,89.55a.77.77,0,0,1-.77-.77V77.77a.77.77,0,1,1,1.54,0V88.78a.77.77,0,0,1-.77.77" transform="translate(965.73 2674.671)" fill="#364042"/><path d="M102.625,107.2a2.425,2.425,0,1,1-2.425,2.425,2.426,2.426,0,0,1,2.425-2.425" transform="translate(968.375 2656.098)" fill="#f7f8f8"/><path d="M101.4,111.592a3.2,3.2,0,1,1,3.2-3.2,3.2,3.2,0,0,1-3.2,3.2m0-4.851a1.655,1.655,0,1,0,1.655,1.655,1.657,1.657,0,0,0-1.655-1.655" transform="translate(969.605 2657.327)" fill="#364042"/><path d="M102.625,66.4a2.425,2.425,0,1,1-2.425,2.425,2.426,2.426,0,0,1,2.425-2.425" transform="translate(968.375 2681.19)" fill="#f2f2f3"/><path d="M101.4,70.791a3.2,3.2,0,1,1,3.2-3.2,3.2,3.2,0,0,1-3.2,3.2m0-4.851a1.655,1.655,0,1,0,1.655,1.655A1.657,1.657,0,0,0,101.4,65.94" transform="translate(969.605 2682.421)" fill="#364042"/><path d="M171.025,65.1a2.425,2.425,0,1,1-2.425,2.425,2.426,2.426,0,0,1,2.425-2.425" transform="translate(926.307 2681.99)" fill="#f2f2f3"/><path d="M169.8,69.491a3.2,3.2,0,1,1,3.2-3.2,3.2,3.2,0,0,1-3.2,3.2m0-4.851a1.655,1.655,0,1,0,1.655,1.655A1.657,1.657,0,0,0,169.8,64.64" transform="translate(927.537 2683.22)" fill="#364042"/><path d="M100.114,137.3H86.6a1.5,1.5,0,1,1,0-3h13.513a1.5,1.5,0,0,1,0,3" transform="translate(977.661 2639.43)" fill="#ffe578"/><path d="M98.884,136.843H85.371a2.271,2.271,0,0,1,0-4.543H98.884a2.271,2.271,0,0,1,0,4.543m-13.513-3a.731.731,0,0,0,0,1.463H98.884a.731.731,0,1,0,0-1.463Z" transform="translate(978.892 2640.66)" fill="#364042"/><path d="M90.34,155.5,88.8,142.1h13.667l-1.54,13.4Z" transform="translate(975.386 2634.633)" fill="#b1e068"/><path d="M99.7,155.037H89.11a.77.77,0,0,1-.765-.682l-1.54-13.4a.77.77,0,0,1,.765-.858h13.667a.771.771,0,0,1,.765.858l-1.54,13.4a.77.77,0,0,1-.765.682m-9.9-1.54H99.01l1.363-11.857H88.433Z" transform="translate(976.616 2635.863)" fill="#364042"/><rect width="4.081" height="4.081" transform="translate(1086.746 2737.889)" fill="#99faff"/><path d="M150.251,44.821H146.17a.77.77,0,0,1-.77-.77v-4.08a.77.77,0,0,1,.77-.77h4.081a.77.77,0,0,1,.77.77v4.08a.77.77,0,0,1-.77.77m-3.311-1.54h2.541V40.741H146.94Z" transform="translate(940.576 2697.918)" fill="#364042"/><rect width="4.081" height="4.081" transform="translate(1051.251 2757.484)" fill="#99faff"/><path d="M34.325,65.1A2.425,2.425,0,1,1,31.9,67.525,2.426,2.426,0,0,1,34.325,65.1" transform="translate(1010.381 2681.99)" fill="#f2f2f3"/><path d="M58.051,95.721H53.97a.77.77,0,0,1-.77-.77V90.87a.77.77,0,0,1,.77-.77h4.081a.77.77,0,0,1,.77.77v4.081a.77.77,0,0,1-.77.77m-3.311-1.54h2.541V91.64H54.74Z" transform="translate(997.281 2666.615)" fill="#364042"/><path d="M33.1,69.491a3.2,3.2,0,1,1,3.2-3.2,3.2,3.2,0,0,1-3.2,3.2m0-4.851A1.655,1.655,0,1,0,34.751,66.3,1.657,1.657,0,0,0,33.1,64.64" transform="translate(1011.611 2683.22)" fill="#364042"/></g></svg>