<svg xmlns="http://www.w3.org/2000/svg" xmlns:xlink="http://www.w3.org/1999/xlink" width="191.362" height="36" viewBox="0 0 191.362 36"><defs><clipPath id="a"><rect width="191.362" height="36" transform="translate(0 0)" fill="none"/></clipPath></defs><g transform="translate(0 0)"><g transform="translate(0 0)" clip-path="url(#a)"><path d="M23.189,36a3,3,0,0,1-3-2.972v-9.24A2.79,2.79,0,0,0,17.4,21H8.789A2.789,2.789,0,0,0,6,23.788V33a3,3,0,1,1-6,0V3A3,3,0,0,1,6,3v9.214A2.79,2.79,0,0,0,8.789,15H17.4a2.79,2.79,0,0,0,2.787-2.786V2.973a3,3,0,0,1,6,.029V33a3,3,0,0,1-3,3" transform="translate(0 -0.002)" fill="#09b1ed"/><path d="M244.6,59.768a3.081,3.081,0,0,1-3-3.152V38a3,3,0,1,1,6,0V56.616a3.082,3.082,0,0,1-3,3.152" transform="translate(-164.765 -23.769)" fill="#09b1ed"/><path d="M244.6,6a3,3,0,1,1,3-3,3,3,0,0,1-3,3" transform="translate(-164.764 -0.001)" fill="#09b1ed"/><path d="M244.6,6a3,3,0,1,1,3-3,3,3,0,0,1-3,3" transform="translate(-164.764 -0.001)" fill="#09b1ed"/><path d="M110.245,6a3,3,0,1,1,3-3,3,3,0,0,1-3,3" transform="translate(-73.139 -0.001)" fill="#09b1ed"/><path d="M113.245,38a3,3,0,1,0-6,0V56.616c0,.026,0,.051,0,.077s0,.049,0,.073a3,3,0,1,0,6,0c0-.024,0-.049,0-.073s0-.051,0-.077Z" transform="translate(-73.14 -23.769)" fill="#09b1ed"/><path d="M160.742,11.082a3,3,0,0,0-.34,5.982c.395.046.789.006,1.185.058a6.436,6.436,0,0,1,3.138,1.315,6.474,6.474,0,1,1-9.6,8.329,6.438,6.438,0,0,1-.775-2.183c-.08-.494-.023-21.568-.108-22.078A3,3,0,0,0,148.284,3c-.011.866,0,20.3,0,20.541a12.466,12.466,0,1,0,12.459-12.458" transform="translate(-101.123 0)" fill="#09b1ed"/><path d="M409.256,47.311c0-.051,0-.1,0-.151V38.005a3.081,3.081,0,0,0-3-3.152,3.009,3.009,0,0,0-2.774,1.951,12.455,12.455,0,0,0-19.1,9.438,11.242,11.242,0,0,0,0,2.122,12.454,12.454,0,0,0,19.1,9.452,3.006,3.006,0,0,0,2.772,1.951,3.081,3.081,0,0,0,3-3.148v-9c0-.1,0-.207,0-.307m-6.009.28c-.006.091-.006.182-.019.273a6.459,6.459,0,0,1-12.872-.006,5.81,5.81,0,0,1,0-1.1,6.46,6.46,0,0,1,12.872,0,5.214,5.214,0,0,1,.026.554c0,.091,0,.189-.006.28" transform="translate(-262.104 -23.769)" fill="#09b1ed"/><path d="M492.387,37.591a3,3,0,0,0-2.988-2.743c-.048,0-.1,0-.145,0a12.37,12.37,0,0,0-6.541,1.946,3.006,3.006,0,0,0-2.77-1.947,3.083,3.083,0,0,0-3,3.152v8.984h0v.131c0,.063,0,.125,0,.19,0,.027,0,.052,0,.077v9.228h0v0a3.14,3.14,0,0,0,2.108,3.007,2.864,2.864,0,0,0,2.635-.45,3.193,3.193,0,0,0,1.256-2.557v0h0V46.986h0v-.091a6.465,6.465,0,0,1,6.267-6.053c.064,0,.127.006.191.006s.127,0,.19-.006a3.006,3.006,0,0,0,2.8-2.737c.006-.043.006-.085.009-.127s0-.088,0-.13a2.348,2.348,0,0,0-.012-.257" transform="translate(-325.265 -23.766)" fill="#09b1ed"/><path d="M554.115,34.848a3.062,3.062,0,0,0-2.9,2.312,10.38,10.38,0,0,0-.107,2.577V48.4c0,.412.016.828-.007,1.239a4.381,4.381,0,0,1-8.476,1.281,5.446,5.446,0,0,1-.278-1.959V46.84c0-2.92.01-5.84,0-8.76a3.225,3.225,0,0,0-1.689-2.914,2.933,2.933,0,0,0-3.535.725c-.951,1.1-.775,2.554-.775,3.9q0,4.757,0,9.514A10.382,10.382,0,0,0,549.033,59.5a10.265,10.265,0,0,0,2.372-.855c.044-.023.254-.169.3-.156s.134.176.163.21a3.1,3.1,0,0,0,.372.373A2.909,2.909,0,0,0,556.7,58.2a6.037,6.037,0,0,0,.41-3.036V39.728A9.328,9.328,0,0,0,556.958,37a3.048,3.048,0,0,0-2.844-2.154" transform="translate(-365.773 -23.766)" fill="#09b1ed"/><path d="M296.142,43.364a8.987,8.987,0,0,0-8.984-8.516h-.051a8.992,8.992,0,0,0-8.984,8.516c-.012.16-.015.321-.015.484V56.612a3.083,3.083,0,0,0,2.909,3.151c.048,0,.094,0,.142,0h0c.033,0,.064,0,.1,0a3.05,3.05,0,0,0,2.849-2.567,3.364,3.364,0,0,0,.051-.584V43.847a2.363,2.363,0,0,1,.012-.257,3.012,3.012,0,0,1,2.7-2.731l.145-.009c.048,0,.1,0,.145,0,.031,0,.064,0,.094,0,.048,0,.1,0,.145.009a3.012,3.012,0,0,1,2.7,2.731,2.363,2.363,0,0,1,.012.257V56.612a3.394,3.394,0,0,0,.052.584,3.049,3.049,0,0,0,2.848,2.567c.052,0,.1,0,.154,0a.811.811,0,0,0,.088,0,3.083,3.083,0,0,0,2.909-3.151V43.847c0-.163,0-.323-.015-.484" transform="translate(-189.664 -23.766)" fill="#09b1ed"/><path d="M341.656,35.74a8.978,8.978,0,0,0-3.741-.889c-.052,0-.1,0-.154,0s-.1,0-.154,0a3.006,3.006,0,0,0-2.846,3,3.182,3.182,0,0,0,.033.453,3.009,3.009,0,0,0,2.948,2.546h.018a3,3,0,0,1,2.97,2.743,2.435,2.435,0,0,1,.012.257V56.612a3,3,0,0,0,5.984.321c.009-.106.015-.212.015-.321V43.847a9.008,9.008,0,0,0-5.086-8.107m-1.4,3.778-.01.014.01-.014" transform="translate(-228.301 -23.766)" fill="#c0cc00"/></g></g></svg>