<svg xmlns="http://www.w3.org/2000/svg" xmlns:xlink="http://www.w3.org/1999/xlink" width="288.641" height="222.344" viewBox="0 0 288.641 222.344"><defs><clipPath id="a"><rect width="288.642" height="222.344" fill="none"/></clipPath></defs><g clip-path="url(#a)"><path d="M235.234,83.97a72.6,72.6,0,0,0-72.514-68.725H87.864A72.618,72.618,0,0,0,15.245,87.864v7.571a21.256,21.256,0,0,0,21.27,21.27H214.076a21.09,21.09,0,0,0,6.649-1.063,20.611,20.611,0,0,0,3.665-1.6,21.37,21.37,0,0,0,6.878-6.085,20.155,20.155,0,0,0,1.457-2.3,20.689,20.689,0,0,0,1.016-2.12,21.235,21.235,0,0,0,1.6-8.1V87.864c0-1.3-.035-2.608-.106-3.895M85.65,86.16a18.6,18.6,0,1,1,18.6-18.6,18.6,18.6,0,0,1-18.6,18.6" transform="translate(-3.497 -3.497)" fill="#e4ffff"/><path d="M21.938,95v8.315a23.249,23.249,0,0,0,1.145,7.23,21.427,21.427,0,0,0,3.09,2.544A21.193,21.193,0,0,0,38.05,116.7H215.612a21.085,21.085,0,0,0,6.649-1.063,20.643,20.643,0,0,0,3.666-1.6,21.379,21.379,0,0,0,6.878-6.085,20.143,20.143,0,0,0,1.456-2.3,20.7,20.7,0,0,0,1.016-2.12,21.236,21.236,0,0,0,1.6-8.1V87.863c0-1.3-.035-2.608-.106-3.894a72.6,72.6,0,0,0-72.513-68.725H101.689A79.75,79.75,0,0,0,21.938,95" transform="translate(-5.033 -3.497)" fill="#99faff"/><path d="M119.674,77.594a18.6,18.6,0,1,1-18.6-18.6,18.6,18.6,0,0,1,18.6,18.6" transform="translate(-18.92 -13.533)" fill="#364042"/><path d="M105.722,73.094A6.292,6.292,0,1,1,99.431,66.8a6.291,6.291,0,0,1,6.292,6.292" transform="translate(-21.367 -15.325)" fill="#fff"/><path d="M224.492,77.594a18.6,18.6,0,1,1-18.6-18.6,18.6,18.6,0,0,1,18.6,18.6" transform="translate(-42.966 -13.533)" fill="#364042"/><path d="M210.539,73.094a6.292,6.292,0,1,1-6.292-6.292,6.291,6.291,0,0,1,6.292,6.292" transform="translate(-45.414 -15.325)" fill="#fff"/><path d="M287.069,86.264a44.49,44.49,0,0,0-13.834-14.72,49.576,49.576,0,0,0,3.131-8.341,50.67,50.67,0,0,0,.376-25.7,11.76,11.76,0,0,0-8.164-8.476,51.049,51.049,0,0,0-13.962-1.957,50.131,50.131,0,0,0-27.02,7.836.1.1,0,0,1,.012.018l-.018-.018A84.559,84.559,0,0,0,159.223,0H84.367A84.369,84.369,0,0,0,0,84.367v7.571a32.882,32.882,0,0,0,9.216,22.856c.652,5,3.712,9.944,7.512,14.314a27.85,27.85,0,0,0-2.8,12.218v.5c0,.864.041,1.721.117,2.567a23.342,23.342,0,0,0-12.211,20.5v.476a57.038,57.038,0,0,0,56.976,56.976H188.44a57.038,57.038,0,0,0,56.977-56.976v-.476a23.327,23.327,0,0,0-11.731-20.224,26.682,26.682,0,0,0,.147-2.843v-.5A27.927,27.927,0,0,0,226.28,122.2c.317-.57.6-1.146.875-1.721a32,32,0,0,0,4.858-3.454c.235-.2.464-.4.687-.6-.223.212-.452.411-.682.611a44.367,44.367,0,0,0,55.051-19,11.8,11.8,0,0,0,0-11.771m-57.253,70.011a11.527,11.527,0,0,1,3.853,8.617v.476A45.226,45.226,0,0,1,188.44,210.6H58.809A45.226,45.226,0,0,1,13.58,165.368v-.476a11.548,11.548,0,0,1,4.188-8.91,28.05,28.05,0,0,0,24.2,13.885H145.925l1.615,1.616a19.655,19.655,0,0,0,27.8,0l1.615-1.616h28.841a28.038,28.038,0,0,0,24.025-13.592M208.693,125.3a68.9,68.9,0,0,1-7.83,6.361,45.078,45.078,0,0,1-10.585,5.628c-.141.052-.276.094-.411.135a17.4,17.4,0,0,1-5.356.969c-16.371,0-16.371-11.748-32.735-11.748-9.287,0-13.3,3.783-18.033,7.054a23.163,23.163,0,0,1-12.44,4.611c-.717.053-1.469.082-2.262.082-16.37,0-16.37-11.748-32.735-11.748s-16.37,11.748-32.735,11.748a18.008,18.008,0,0,1-5.768-1.1c-5-1.715-10.538-5.257-15.284-9.222-1.328-1.1-2.591-2.238-3.766-3.383a33.036,33.036,0,0,0,4.264.276H209.045c-.117.112-.235.223-.352.341m4.241,11.924a79.875,79.875,0,0,0,6.008-5.5,16.191,16.191,0,0,1,3.143,9.609v.5a16.295,16.295,0,0,1-16.295,16.294H188.7l4.793-4.793,2.379-2.379a19.592,19.592,0,0,0,3.507-4.77,62.639,62.639,0,0,0,7.789-4.6c2.249-1.545,4.206-3.072,5.762-4.358m-32.659,12.711L167.03,163.176a8.8,8.8,0,0,1-.916.788c-.212.153-.429.3-.653.435h-.005a6.445,6.445,0,0,1-.687.364,8.573,8.573,0,0,1-1.445.506,8.218,8.218,0,0,1-1.886.223,8.125,8.125,0,0,1-1.879-.223,8.271,8.271,0,0,1-1.451-.506c-.235-.111-.464-.234-.687-.364s-.441-.276-.658-.435a8.269,8.269,0,0,1-.916-.788L137.76,145.091c1.691-1.022,3.16-2.079,4.493-3.037.23-.164.447-.323.664-.475,3.066-2.191,4.74-3.189,8.858-3.189s5.786,1,8.852,3.189c.217.153.435.311.663.475,4.159,2.984,9.657,6.938,18.985,7.877M30.914,141.578c6.149,4.217,14.462,8.558,22.655,8.558,11.965,0,18.468-4.67,23.214-8.083.229-.164.446-.323.663-.475,3.066-2.191,4.741-3.189,8.858-3.189s5.786,1,8.852,3.189c.217.153.435.311.664.475,4.746,3.413,11.254,8.083,23.219,8.083a39.991,39.991,0,0,0,6.737-.546A17.663,17.663,0,0,0,127,150.947l7.172,7.172H41.968a16.295,16.295,0,0,1-16.294-16.294v-.5a16.464,16.464,0,0,1,.353-3.389c1.392,1.122,3.042,2.379,4.887,3.642m200.928-49.64a21.236,21.236,0,0,1-1.6,8.1,20.525,20.525,0,0,1-1.016,2.12,20.151,20.151,0,0,1-1.457,2.3,21.37,21.37,0,0,1-6.878,6.085,20.637,20.637,0,0,1-3.665,1.6,21.094,21.094,0,0,1-6.649,1.063H33.017a21.259,21.259,0,0,1-21.269-21.27V84.367A72.618,72.618,0,0,1,84.367,11.748h74.856a72.506,72.506,0,0,1,72.514,68.725c.07,1.286.106,2.59.106,3.895Zm1.973-47.067h.006c.247-.159.5-.311.746-.464.264-.165.534-.323.811-.476.54-.311,1.086-.61,1.633-.887s1.11-.552,1.674-.8a37.212,37.212,0,0,1,3.63-1.422c.511-.17,1.022-.328,1.539-.475a38.9,38.9,0,0,1,21.481-.018,38.836,38.836,0,0,1-2.649,26.045A38.437,38.437,0,0,1,255.6,76.56c-.311.323-.64.647-.963.969a38.841,38.841,0,0,1-3.672,3.119c-.5.388-1.028.746-1.544,1.1s-1.046.693-1.58,1.016c-.27.164-.546.328-.816.482-.535.305-1.081.6-1.639.887-.54.276-1.1.546-1.662.8-.042.018-.089.035-.123.053l-.006.146v-.763q0-4.1-.388-8.124a83.69,83.69,0,0,0-1.915-11.583,82.726,82.726,0,0,0-7.472-19.783Z" fill="#364042"/><path d="M332.3,77.926a38.424,38.424,0,0,1-7.09,10.191c-.311.324-.64.647-.963.969a38.829,38.829,0,0,1-3.671,3.119c-.5.388-1.028.746-1.544,1.1s-1.046.694-1.581,1.016c-.27.164-.546.329-.817.482-.534.305-1.08.6-1.638.887-.541.276-1.1.546-1.662.8-.042.017-.089.035-.124.052l-.005.147v-.764q0-4.1-.388-8.124A83.681,83.681,0,0,0,310.9,76.217a82.74,82.74,0,0,0-7.472-19.783v-.006h.005c.247-.159.5-.311.746-.464q.4-.246.811-.475c.541-.311,1.087-.611,1.634-.887s1.11-.553,1.674-.805a37.138,37.138,0,0,1,3.63-1.421c.511-.17,1.022-.329,1.539-.476a38.9,38.9,0,0,1,21.481-.018A38.845,38.845,0,0,1,332.3,77.926" transform="translate(-69.61 -11.557)" fill="#b1e068"/><path d="M348.291,116.4a32.684,32.684,0,0,1-37.105,15.154c1.562-2.954,3.29-9.562,3.29-9.562a50.257,50.257,0,0,0,19.7-11.76,52.254,52.254,0,0,0,4.159-4.534,32.995,32.995,0,0,1,9.956,10.7" transform="translate(-71.39 -24.248)" fill="#b1e068"/><path d="M278.266,180.539v.5a16.295,16.295,0,0,1-16.294,16.294H244.885l4.793-4.793,2.379-2.379a19.649,19.649,0,0,0,3.507-4.77,62.624,62.624,0,0,0,7.788-4.6c2.25-1.545,4.206-3.072,5.762-4.358a79.563,79.563,0,0,0,6.009-5.5,16.2,16.2,0,0,1,3.143,9.61" transform="translate(-56.18 -39.214)" fill="#896446"/><path d="M237.713,211.329v.475a45.226,45.226,0,0,1-45.229,45.23H62.853A45.226,45.226,0,0,1,17.624,211.8v-.475a11.548,11.548,0,0,1,4.188-8.911,28.049,28.049,0,0,0,24.2,13.886H149.968l1.615,1.616a19.656,19.656,0,0,0,27.8,0l1.615-1.616h28.841a28.038,28.038,0,0,0,24.025-13.592,11.527,11.527,0,0,1,3.853,8.617" transform="translate(-4.043 -46.438)" fill="#78eaea"/><path d="M237.7,215.963A29.175,29.175,0,0,1,213.2,229.29H183.181l-1.681,1.681a20.46,20.46,0,0,1-28.934,0l-1.682-1.681H42.668a29.2,29.2,0,0,1-25.038-14.2,45.225,45.225,0,0,0,45.224,44.853H192.485A45.226,45.226,0,0,0,237.7,215.963" transform="translate(-4.045 -49.344)" fill="#99faff"/><path d="M141.821,199.184H49.613A16.295,16.295,0,0,1,33.319,182.89v-.5A16.512,16.512,0,0,1,33.671,179c1.392,1.122,3.043,2.379,4.887,3.642,6.15,4.217,14.462,8.558,22.656,8.558,11.965,0,18.467-4.67,23.213-8.083.23-.164.447-.323.664-.475,3.066-2.192,4.74-3.189,8.858-3.189s5.786,1,8.852,3.189c.217.153.435.311.663.475,4.746,3.413,11.254,8.083,23.219,8.083a40,40,0,0,0,6.738-.546,17.668,17.668,0,0,0,1.228,1.357Z" transform="translate(-7.644 -41.066)" fill="#6d482d"/><path d="M141.536,200.5l-1.939-1.939a19.7,19.7,0,0,1-1.352-1.494,44.1,44.1,0,0,1-7.422.6c-13.18,0-20.35-5.144-25.577-8.9-.253-.182-.492-.356-.731-.525-3.377-2.413-5.222-3.513-9.751-3.513s-6.38,1.1-9.757,3.513c-.24.169-.479.343-.731.525-5.228,3.759-12.391,8.9-25.571,8.9-8.9,0-17.915-4.644-24.658-9.225A16.294,16.294,0,0,0,49.78,200.5Z" transform="translate(-7.811 -42.378)" fill="#896446"/><path d="M221.289,191.131l-13.246,13.246a8.78,8.78,0,0,1-.916.787c-.212.153-.429.3-.652.435h-.006a6.319,6.319,0,0,1-.687.365,8.647,8.647,0,0,1-1.445.505,8.217,8.217,0,0,1-1.886.223,8.125,8.125,0,0,1-1.879-.223,8.34,8.34,0,0,1-1.451-.505c-.235-.112-.464-.235-.687-.365s-.44-.276-.657-.435a8.2,8.2,0,0,1-.917-.787l-18.086-18.086c1.692-1.022,3.16-2.079,4.494-3.037.229-.164.446-.323.664-.475,3.066-2.192,4.741-3.19,8.858-3.19s5.786,1,8.852,3.19c.217.153.435.311.664.475,4.158,2.984,9.656,6.937,18.984,7.877" transform="translate(-41.013 -41.2)" fill="#ffe578"/><path d="M217.606,162.074c-.117.112-.235.223-.352.341a68.977,68.977,0,0,1-7.83,6.361,45.048,45.048,0,0,1-10.585,5.628c-.141.052-.277.094-.412.135a17.4,17.4,0,0,1-5.357.969c-16.37,0-16.37-11.748-32.735-11.748-9.286,0-13.3,3.783-18.032,7.054a23.166,23.166,0,0,1-12.441,4.611c-.717.053-1.468.082-2.261.082-16.371,0-16.371-11.748-32.735-11.748S78.495,175.508,62.13,175.508a17.994,17.994,0,0,1-5.769-1.1c-5-1.715-10.538-5.257-15.284-9.222-1.327-1.1-2.59-2.238-3.765-3.383a33.027,33.027,0,0,0,4.264.276Z" transform="translate(-8.56 -37.119)" fill="#b1e068"/><path d="M313,128.185c15.164-2.2,24.72-12.319,29.653-19.37a32.884,32.884,0,0,0-3.9-3.12,52.133,52.133,0,0,1-4.159,4.534,50.243,50.243,0,0,1-19.7,11.76s-.847,3.24-1.891,6.2" transform="translate(-71.807 -24.248)" fill="#a7d852"/><path d="M306.622,55.2c-.546.276-1.093.576-1.633.887q-.414.229-.811.475c-.247.153-.5.306-.746.465h-.006v.005A82.69,82.69,0,0,1,310.9,76.811a83.7,83.7,0,0,1,1.915,11.583q.388,4.027.388,8.123v.764l.006-.146c.035-.018.082-.035.123-.053.564-.253,1.122-.522,1.662-.8.558-.282,1.1-.581,1.639-.887.27-.153.546-.317.816-.482.524-.316,1.036-.644,1.547-.994,6.991-15.963-.746-35.712-7.069-40.951a37.1,37.1,0,0,0-3.63,1.422c-.563.252-1.121.522-1.674.8" transform="translate(-69.61 -12.152)" fill="#a7d852"/><path d="M276.887,173.985a16.213,16.213,0,0,0-1.764-3.055,79.729,79.729,0,0,1-6.009,5.5c-1.557,1.286-3.512,2.813-5.762,4.358a62.683,62.683,0,0,1-7.789,4.6,19.6,19.6,0,0,1-3.507,4.769l-2.379,2.379-4.793,4.793c17.98-.7,27.687-14.672,32-23.347" transform="translate(-56.18 -39.214)" fill="#6d482d"/><path d="M221.289,191.131c-9.328-.94-14.826-4.893-18.984-7.877-.23-.164-.447-.323-.664-.475-3.066-2.192-4.734-3.19-8.852-3.19s-5.792,1-8.858,3.19c-.217.153-.435.311-.664.475-1.334.958-2.8,2.015-4.494,3.037l5.142,5.142h0c2.054-3.081,6.295-4.521,9.071-4.435,4.679.145,5.46,4.635,11.356,7.609a20.98,20.98,0,0,0,11.572,1.9l5.374-5.374" transform="translate(-41.013 -41.2)" fill="#eace57"/></g></svg>