<svg xmlns="http://www.w3.org/2000/svg" xmlns:xlink="http://www.w3.org/1999/xlink" width="110" height="20.694" viewBox="0 0 110 20.694"><defs><clipPath id="a"><rect width="110" height="20.694" transform="translate(0 0)" fill="#fff"/></clipPath></defs><g transform="translate(0 0)"><g transform="translate(0 0)" clip-path="url(#a)"><path d="M13.33,20.7A1.727,1.727,0,0,1,11.6,18.987V13.675a1.6,1.6,0,0,0-1.6-1.6H5.052a1.6,1.6,0,0,0-1.6,1.6V18.97a1.725,1.725,0,1,1-3.45,0V1.726a1.725,1.725,0,0,1,3.45,0v5.3a1.6,1.6,0,0,0,1.6,1.6H10a1.6,1.6,0,0,0,1.6-1.6V1.71a1.725,1.725,0,0,1,3.45.016V18.97A1.727,1.727,0,0,1,13.33,20.7" transform="translate(0 -0.002)" fill="#fff"/><path d="M243.32,49.175a1.771,1.771,0,0,1-1.723-1.812v-10.7a1.726,1.726,0,1,1,3.449,0v10.7a1.772,1.772,0,0,1-1.725,1.812" transform="translate(-197.432 -28.482)" fill="#fff"/><path d="M243.321,3.451a1.725,1.725,0,1,1,1.725-1.725,1.727,1.727,0,0,1-1.725,1.725" transform="translate(-197.431 -0.002)" fill="#fff"/><path d="M243.321,3.451a1.725,1.725,0,1,1,1.725-1.725,1.727,1.727,0,0,1-1.725,1.725" transform="translate(-197.431 -0.002)" fill="#fff"/><path d="M108.97,3.451a1.725,1.725,0,1,1,1.725-1.725,1.727,1.727,0,0,1-1.725,1.725" transform="translate(-87.64 -0.002)" fill="#fff"/><path d="M110.695,36.663a1.726,1.726,0,1,0-3.449,0v10.7c0,.015,0,.029,0,.044s0,.028,0,.042a1.724,1.724,0,1,0,3.449,0c0-.014,0-.028,0-.042s0-.029,0-.044Z" transform="translate(-87.641 -28.482)" fill="#fff"/><path d="M155.443,6.37a1.725,1.725,0,0,0-.2,3.439c.227.027.453,0,.681.033a3.7,3.7,0,0,1,1.8.756,3.722,3.722,0,1,1-5.516,4.788,3.7,3.7,0,0,1-.446-1.255c-.046-.284-.013-12.4-.062-12.691a1.725,1.725,0,0,0-3.427.284c-.007.5,0,11.667,0,11.808a7.166,7.166,0,1,0,7.162-7.161" transform="translate(-121.172 0)" fill="#fff"/><path d="M398.657,42.014c0-.029,0-.058,0-.087V36.665a1.771,1.771,0,0,0-1.723-1.812,1.729,1.729,0,0,0-1.595,1.122A7.159,7.159,0,0,0,384.356,41.4a6.459,6.459,0,0,0,0,1.22,7.159,7.159,0,0,0,10.981,5.433,1.728,1.728,0,0,0,1.593,1.122,1.771,1.771,0,0,0,1.725-1.81V42.191c0-.059,0-.119,0-.176m-3.454.161c0,.052,0,.1-.011.157a3.713,3.713,0,0,1-7.4,0,3.34,3.34,0,0,1,0-.633,3.713,3.713,0,0,1,7.4,0,3.005,3.005,0,0,1,.015.318c0,.052,0,.109,0,.161" transform="translate(-314.07 -28.482)" fill="#fff"/><path d="M485.82,36.425a1.727,1.727,0,0,0-1.717-1.577c-.028,0-.056,0-.083,0a7.11,7.11,0,0,0-3.76,1.118,1.728,1.728,0,0,0-1.592-1.119,1.772,1.772,0,0,0-1.725,1.812v5.164h0V41.9c0,.036,0,.072,0,.109,0,.015,0,.03,0,.044v5.3h0v0a1.805,1.805,0,0,0,1.212,1.728,1.646,1.646,0,0,0,1.515-.259,1.835,1.835,0,0,0,.722-1.47v0h0V41.825h0v-.052a3.716,3.716,0,0,1,3.6-3.479c.037,0,.073,0,.11,0s.073,0,.109,0a1.728,1.728,0,0,0,1.608-1.573c0-.024,0-.049.005-.073s0-.05,0-.075a1.34,1.34,0,0,0-.007-.148" transform="translate(-389.754 -28.478)" fill="#fff"/><path d="M546.557,34.848a1.76,1.76,0,0,0-1.664,1.329,5.97,5.97,0,0,0-.062,1.481v4.981c0,.237.009.476,0,.712a2.518,2.518,0,0,1-4.872.736,3.13,3.13,0,0,1-.16-1.126v-1.22c0-1.679.006-3.357,0-5.035a1.854,1.854,0,0,0-.971-1.675,1.686,1.686,0,0,0-2.032.417,3.2,3.2,0,0,0-.446,2.242q0,2.735,0,5.469a5.968,5.968,0,0,0,7.289,5.86A5.9,5.9,0,0,0,545,48.528c.025-.013.146-.1.172-.09s.077.1.093.121a1.778,1.778,0,0,0,.214.214,1.672,1.672,0,0,0,2.565-.5,3.47,3.47,0,0,0,.236-1.745V37.653a5.36,5.36,0,0,0-.088-1.567,1.752,1.752,0,0,0-1.635-1.238" transform="translate(-438.293 -28.478)" fill="#fff"/><path d="M288.474,39.743a5.166,5.166,0,0,0-5.164-4.895h-.029a5.169,5.169,0,0,0-5.164,4.895c-.007.092-.009.184-.009.278v7.337a1.772,1.772,0,0,0,1.672,1.811c.028,0,.054,0,.082,0h0c.019,0,.037,0,.056,0a1.753,1.753,0,0,0,1.637-1.476,1.933,1.933,0,0,0,.03-.335V40.021a1.348,1.348,0,0,1,.007-.148,1.731,1.731,0,0,1,1.551-1.57l.083-.005c.028,0,.056,0,.083,0s.037,0,.054,0,.056,0,.084.005a1.731,1.731,0,0,1,1.55,1.57,1.363,1.363,0,0,1,.007.148v7.337a1.952,1.952,0,0,0,.03.335,1.753,1.753,0,0,0,1.637,1.476c.03,0,.059,0,.089,0a.465.465,0,0,0,.05,0,1.772,1.772,0,0,0,1.672-1.811V40.021c0-.094,0-.186-.009-.278" transform="translate(-227.268 -28.478)" fill="#fff"/><path d="M338.724,35.361a5.161,5.161,0,0,0-2.15-.511c-.03,0-.059,0-.089,0s-.059,0-.089,0a1.726,1.726,0,0,0-1.617,1.469,1.709,1.709,0,0,0-.019.254,1.826,1.826,0,0,0,.019.261,1.73,1.73,0,0,0,1.695,1.464h.01a1.727,1.727,0,0,1,1.707,1.577,1.4,1.4,0,0,1,.007.148v7.337a1.722,1.722,0,0,0,3.44.184c.005-.061.009-.122.009-.184V40.021a5.178,5.178,0,0,0-2.924-4.66m-.807,2.172-.006.008.006-.008" transform="translate(-273.565 -28.478)" fill="#fff"/></g></g></svg>