<svg xmlns="http://www.w3.org/2000/svg" xmlns:xlink="http://www.w3.org/1999/xlink" width="307.591" height="236.942" viewBox="0 0 307.591 236.942"><defs><clipPath id="a"><rect width="307.591" height="236.942" fill="none"/></clipPath></defs><g clip-path="url(#a)"><path d="M280.2,119a77.367,77.367,0,0,0-77.274-73.236H123.151a77.385,77.385,0,0,0-77.386,77.387v8.069a22.65,22.65,0,0,0,22.666,22.666H257.649a22.463,22.463,0,0,0,7.086-1.133,21.961,21.961,0,0,0,3.906-1.709,22.777,22.777,0,0,0,7.33-6.485,21.5,21.5,0,0,0,1.552-2.448,22.008,22.008,0,0,0,1.083-2.26,22.63,22.63,0,0,0,1.7-8.632v-8.069c0-1.39-.038-2.779-.113-4.15m-159.4,2.335a19.824,19.824,0,1,1,19.824-19.824,19.817,19.817,0,0,1-19.824,19.824" transform="translate(-33.246 -33.245)" fill="#e4ffff"/><path d="M65.854,130.751v8.861a24.764,24.764,0,0,0,1.22,7.705,22.836,22.836,0,0,0,3.293,2.712,22.583,22.583,0,0,0,12.657,3.856H272.243a22.463,22.463,0,0,0,7.086-1.133,21.983,21.983,0,0,0,3.906-1.709,22.781,22.781,0,0,0,7.33-6.485,21.5,21.5,0,0,0,1.552-2.448,22.072,22.072,0,0,0,1.083-2.26,22.63,22.63,0,0,0,1.7-8.632V123.15c0-1.389-.038-2.779-.112-4.15a77.367,77.367,0,0,0-77.274-73.236H150.841a84.986,84.986,0,0,0-84.987,84.987" transform="translate(-47.839 -33.245)" fill="#99faff"/><path d="M287.208,196.907a19.824,19.824,0,1,1-19.824-19.824,19.821,19.821,0,0,1,19.824,19.824" transform="translate(-179.838 -128.641)" fill="#172b4d"/><path d="M293,207.233a6.705,6.705,0,1,1-6.705-6.705A6.7,6.7,0,0,1,293,207.233" transform="translate(-203.102 -145.672)" fill="#fff"/><path d="M601.852,196.907a19.824,19.824,0,1,1-19.824-19.824,19.821,19.821,0,0,1,19.824,19.824" transform="translate(-408.409 -128.641)" fill="#172b4d"/><path d="M607.64,207.233a6.705,6.705,0,1,1-6.705-6.705,6.7,6.7,0,0,1,6.705,6.705" transform="translate(-431.674 -145.672)" fill="#fff"/><path d="M305.915,91.927a47.4,47.4,0,0,0-14.741-15.686,52.9,52.9,0,0,0,3.336-8.889,53.994,53.994,0,0,0,.4-27.385,12.532,12.532,0,0,0-8.7-9.032,54.4,54.4,0,0,0-14.879-2.085,53.424,53.424,0,0,0-28.794,8.35.078.078,0,0,1,.013.019l-.019-.019A90.115,90.115,0,0,0,169.677,0H89.906A89.909,89.909,0,0,0,0,89.906v8.068A35.044,35.044,0,0,0,9.821,122.33c.695,5.327,3.956,10.6,8.006,15.254a29.683,29.683,0,0,0-2.986,13.02v.532c0,.92.044,1.834.125,2.736A24.874,24.874,0,0,0,1.953,175.717v.507A60.783,60.783,0,0,0,62.67,236.942H200.812a60.783,60.783,0,0,0,60.717-60.717v-.507a24.857,24.857,0,0,0-12.5-21.551,28.542,28.542,0,0,0,.156-3.03V150.6a29.761,29.761,0,0,0-8.05-20.381c.338-.607.645-1.221.933-1.834a34.146,34.146,0,0,0,5.177-3.68c.25-.213.495-.426.732-.645-.238.225-.482.438-.726.651a47.28,47.28,0,0,0,58.664-20.243,12.573,12.573,0,0,0,0-12.544M244.9,166.535a12.285,12.285,0,0,1,4.106,9.183v.507a48.2,48.2,0,0,1-48.2,48.2H62.67a48.2,48.2,0,0,1-48.2-48.2v-.507a12.307,12.307,0,0,1,4.463-9.5,29.891,29.891,0,0,0,25.789,14.8H155.505l1.721,1.721a20.945,20.945,0,0,0,29.62,0l1.722-1.721H219.3a29.878,29.878,0,0,0,25.6-14.484m-22.509-33.013a73.469,73.469,0,0,1-8.344,6.779,48.024,48.024,0,0,1-11.28,6c-.15.056-.294.1-.438.144a18.552,18.552,0,0,1-5.709,1.033c-17.445,0-17.445-12.519-34.884-12.519-9.9,0-14.178,4.031-19.217,7.518a24.694,24.694,0,0,1-13.258,4.914c-.764.056-1.565.088-2.41.088-17.445,0-17.445-12.519-34.884-12.519s-17.445,12.519-34.884,12.519A19.185,19.185,0,0,1,50.94,146.3c-5.327-1.828-11.23-5.6-16.287-9.828-1.415-1.177-2.76-2.385-4.012-3.605a35.163,35.163,0,0,0,4.544.294H222.77c-.125.119-.25.238-.376.363m4.519,12.707a84.945,84.945,0,0,0,6.4-5.865,17.26,17.26,0,0,1,3.349,10.241v.532A17.364,17.364,0,0,1,219.3,168.5H201.093l5.108-5.108,2.535-2.535a20.9,20.9,0,0,0,3.737-5.083,66.681,66.681,0,0,0,8.3-4.9c2.4-1.646,4.482-3.274,6.141-4.644m-34.8,13.546L178,173.89a9.348,9.348,0,0,1-.977.839c-.225.163-.457.319-.695.463h-.006a6.879,6.879,0,0,1-.732.388,9.207,9.207,0,0,1-1.54.538,8.73,8.73,0,0,1-2.01.238,8.636,8.636,0,0,1-2-.238,8.883,8.883,0,0,1-1.546-.538c-.251-.119-.495-.25-.733-.388s-.469-.294-.7-.463a8.744,8.744,0,0,1-.977-.839L146.8,154.617c1.8-1.089,3.368-2.216,4.788-3.236.244-.175.476-.344.707-.507,3.267-2.335,5.052-3.4,9.439-3.4s6.166,1.064,9.433,3.4c.231.163.463.332.707.507,4.432,3.18,10.291,7.392,20.231,8.394m-159.167-8.9c6.554,4.494,15.411,9.12,24.143,9.12,12.751,0,19.68-4.976,24.738-8.613.244-.175.476-.344.707-.507,3.267-2.335,5.051-3.4,9.439-3.4s6.165,1.064,9.433,3.4c.231.163.463.332.707.507,5.058,3.637,11.993,8.613,24.744,8.613a42.639,42.639,0,0,0,7.18-.582,18.891,18.891,0,0,0,1.308,1.446l7.643,7.643H44.724A17.364,17.364,0,0,1,27.36,151.136V150.6a17.575,17.575,0,0,1,.376-3.612c1.484,1.2,3.242,2.535,5.208,3.881m214.119-52.9a22.631,22.631,0,0,1-1.7,8.632,22.018,22.018,0,0,1-1.083,2.26,21.526,21.526,0,0,1-1.552,2.448,22.777,22.777,0,0,1-7.33,6.485,21.988,21.988,0,0,1-3.906,1.709,22.465,22.465,0,0,1-7.086,1.133H35.185A22.655,22.655,0,0,1,12.519,97.974V89.906A77.386,77.386,0,0,1,89.906,12.519h79.771a77.267,77.267,0,0,1,77.274,73.236c.075,1.371.113,2.76.113,4.15Zm2.1-50.157h.006c.263-.169.532-.332.795-.495q.422-.263.864-.507c.576-.332,1.158-.651,1.74-.945s1.183-.588,1.784-.858a39.609,39.609,0,0,1,3.868-1.515c.545-.181,1.089-.35,1.64-.507a41.447,41.447,0,0,1,22.891-.019,41.389,41.389,0,0,1-2.823,27.755,40.964,40.964,0,0,1-7.555,10.86c-.332.344-.682.689-1.027,1.033a41.369,41.369,0,0,1-3.912,3.324c-.538.413-1.1.795-1.646,1.171s-1.114.739-1.684,1.083c-.288.175-.582.35-.87.513-.57.326-1.152.645-1.746.945-.576.294-1.17.582-1.771.851-.044.019-.094.038-.132.056l-.006.156v-.814q0-4.366-.413-8.657a89.2,89.2,0,0,0-2.04-12.344,88.15,88.15,0,0,0-7.962-21.082Z" fill="#172b4d"/><path d="M941.6,180.584a40.959,40.959,0,0,1-7.555,10.86c-.332.345-.682.689-1.027,1.033a41.523,41.523,0,0,1-3.912,3.324c-.538.413-1.1.795-1.646,1.171s-1.114.739-1.684,1.083c-.288.175-.582.351-.87.513-.57.326-1.152.644-1.746.945-.576.294-1.171.582-1.771.851-.044.019-.094.038-.132.056l-.006.157v-.814q0-4.366-.413-8.657a89.241,89.241,0,0,0-2.041-12.344,88.144,88.144,0,0,0-7.962-21.082v-.007h.006c.263-.169.532-.331.795-.494q.423-.263.864-.507c.576-.331,1.158-.651,1.74-.945s1.183-.588,1.784-.858a39.576,39.576,0,0,1,3.868-1.515c.544-.182,1.089-.351,1.64-.507a41.444,41.444,0,0,1,22.891-.019,41.388,41.388,0,0,1-2.823,27.754" transform="translate(-661.67 -109.858)" fill="#b1e068"/><path d="M973.67,328.685a34.83,34.83,0,0,1-39.541,16.15c1.665-3.148,3.505-10.19,3.505-10.19a53.556,53.556,0,0,0,20.995-12.532,55.7,55.7,0,0,0,4.432-4.832,35.166,35.166,0,0,1,10.61,11.4" transform="translate(-678.591 -230.486)" fill="#b1e068"/><path d="M770.677,523.344v.532a17.364,17.364,0,0,1-17.364,17.364H735.1l5.108-5.108,2.535-2.535a20.9,20.9,0,0,0,3.737-5.083,66.687,66.687,0,0,0,8.3-4.9c2.4-1.646,4.482-3.274,6.141-4.645a84.9,84.9,0,0,0,6.4-5.865,17.26,17.26,0,0,1,3.349,10.241" transform="translate(-534.01 -372.74)" fill="#896446"/><path d="M287.442,617.124v.507a48.2,48.2,0,0,1-48.2,48.2H101.1a48.2,48.2,0,0,1-48.2-48.2v-.507a12.306,12.306,0,0,1,4.463-9.5,29.891,29.891,0,0,0,25.789,14.8H193.937l1.721,1.721a20.944,20.944,0,0,0,29.62,0L227,622.426h30.734a29.878,29.878,0,0,0,25.6-14.485,12.286,12.286,0,0,1,4.106,9.183" transform="translate(-38.432 -441.407)" fill="#78eaea"/><path d="M287.437,646.594a31.091,31.091,0,0,1-26.1,14.2H229.342l-1.792,1.792a21.8,21.8,0,0,1-30.834,0l-1.792-1.792H79.6a31.109,31.109,0,0,1-26.681-15.134,48.193,48.193,0,0,0,48.193,47.8H239.257a48.2,48.2,0,0,0,48.179-46.864" transform="translate(-38.445 -469.035)" fill="#99faff"/><path d="M215.644,558.843H117.382a17.364,17.364,0,0,1-17.364-17.364v-.532a17.593,17.593,0,0,1,.376-3.612c1.484,1.2,3.242,2.535,5.208,3.881,6.554,4.494,15.411,9.12,24.143,9.12,12.751,0,19.68-4.976,24.738-8.613.244-.175.476-.344.707-.507,3.267-2.335,5.052-3.4,9.439-3.4s6.165,1.064,9.433,3.4c.231.163.463.332.707.507,5.058,3.637,11.993,8.613,24.744,8.613a42.61,42.61,0,0,0,7.18-.582A18.888,18.888,0,0,0,208,551.2Z" transform="translate(-72.657 -390.343)" fill="#6d482d"/><path d="M216.747,571.323l-2.066-2.066a20.82,20.82,0,0,1-1.441-1.593,46.935,46.935,0,0,1-7.909.642c-14.046,0-21.685-5.482-27.257-9.488-.269-.193-.524-.379-.779-.559-3.6-2.572-5.564-3.744-10.391-3.744s-6.8,1.172-10.4,3.744c-.255.179-.51.365-.779.559-5.571,4.006-13.2,9.488-27.25,9.488-9.479,0-19.09-4.949-26.277-9.831a17.365,17.365,0,0,0,16.767,12.848Z" transform="translate(-74.242 -402.823)" fill="#896446"/><path d="M581.955,551.4,567.84,565.512a9.349,9.349,0,0,1-.976.839c-.225.163-.457.319-.695.463h-.006a6.864,6.864,0,0,1-.732.388,9.179,9.179,0,0,1-1.54.538,8.73,8.73,0,0,1-2.009.238,8.633,8.633,0,0,1-2-.238,8.856,8.856,0,0,1-1.546-.538c-.25-.119-.495-.251-.732-.388s-.47-.294-.7-.463a8.721,8.721,0,0,1-.977-.839l-19.273-19.273c1.8-1.089,3.367-2.216,4.789-3.236.244-.175.476-.344.707-.507,3.268-2.335,5.052-3.4,9.439-3.4s6.166,1.064,9.433,3.4c.232.163.463.332.707.507,4.432,3.18,10.291,7.393,20.231,8.394" transform="translate(-389.844 -391.623)" fill="#ffe578"/><path d="M304.138,485.985c-.125.119-.25.238-.376.363a73.442,73.442,0,0,1-8.344,6.779,48,48,0,0,1-11.28,6c-.15.056-.294.1-.438.144a18.545,18.545,0,0,1-5.709,1.033c-17.445,0-17.445-12.519-34.884-12.519-9.9,0-14.178,4.031-19.217,7.518a24.69,24.69,0,0,1-13.257,4.914c-.764.056-1.565.088-2.41.088-17.445,0-17.445-12.519-34.884-12.519S155.894,500.3,138.454,500.3a19.176,19.176,0,0,1-6.147-1.177c-5.327-1.828-11.23-5.6-16.287-9.827-1.415-1.177-2.76-2.385-4.012-3.605a35.166,35.166,0,0,0,4.544.294Z" transform="translate(-81.367 -352.826)" fill="#b1e068"/><path d="M939.577,341.248c16.16-2.342,26.342-13.128,31.6-20.642a34.984,34.984,0,0,0-4.158-3.325,55.725,55.725,0,0,1-4.432,4.832,53.55,53.55,0,0,1-20.995,12.531s-.9,3.452-2.015,6.6" transform="translate(-682.548 -230.486)" fill="#a7d852"/><path d="M914.241,161.379c-.582.294-1.164.613-1.74.945q-.441.244-.864.507c-.263.162-.532.325-.795.494h-.006v.006a88.154,88.154,0,0,1,7.962,21.082,89.191,89.191,0,0,1,2.04,12.344q.413,4.291.413,8.657v.814l.006-.157c.038-.019.088-.037.132-.056.6-.269,1.2-.557,1.772-.851.594-.3,1.177-.62,1.746-.945.288-.163.582-.338.87-.513.558-.337,1.1-.687,1.649-1.059,7.45-17.012-.8-38.057-7.533-43.64a39.606,39.606,0,0,0-3.868,1.515c-.6.269-1.2.557-1.784.858" transform="translate(-661.67 -115.509)" fill="#a7d852"/><path d="M769.207,516.359a17.329,17.329,0,0,0-1.879-3.256,85.022,85.022,0,0,1-6.4,5.865c-1.659,1.371-3.743,3-6.141,4.645a66.7,66.7,0,0,1-8.3,4.9,20.894,20.894,0,0,1-3.737,5.083l-2.535,2.535L735.1,541.24c19.161-.748,29.505-15.636,34.1-24.88" transform="translate(-534.01 -372.74)" fill="#6d482d"/><path d="M581.955,551.4c-9.94-1-15.8-5.214-20.231-8.394-.244-.175-.476-.344-.707-.507-3.267-2.335-5.045-3.4-9.433-3.4s-6.172,1.064-9.439,3.4c-.231.163-.463.332-.707.507-1.421,1.02-2.986,2.147-4.789,3.236l5.479,5.48h0c2.189-3.283,6.708-4.818,9.666-4.727,4.986.155,5.819,4.939,12.1,8.108a22.36,22.36,0,0,0,12.331,2.024l5.727-5.727" transform="translate(-389.844 -391.623)" fill="#eace57"/></g></svg>